<?xml version="1.0" encoding="UTF-8" standalone="no"?>
<svg
   xmlns:dc="http://purl.org/dc/elements/1.1/"
   xmlns:cc="http://creativecommons.org/ns#"
   xmlns:rdf="http://www.w3.org/1999/02/22-rdf-syntax-ns#"
   xmlns:svg="http://www.w3.org/2000/svg"
   xmlns="http://www.w3.org/2000/svg"
   xmlns:sodipodi="http://sodipodi.sourceforge.net/DTD/sodipodi-0.dtd"
   xmlns:inkscape="http://www.inkscape.org/namespaces/inkscape"
   width="21px"
   height="15px"
   viewBox="0 0 21 15"
   version="1.1"
   id="svg39"
   sodipodi:docname="AS.svg"
   inkscape:version="1.0.2-2 (e86c870879, 2021-01-15)">
  <metadata
     id="metadata43">
    <rdf:RDF>
      <cc:Work
         rdf:about="">
        <dc:format>image/svg+xml</dc:format>
        <dc:type
           rdf:resource="http://purl.org/dc/dcmitype/StillImage" />
      </cc:Work>
    </rdf:RDF>
  </metadata>
  <sodipodi:namedview
     pagecolor="#ffffff"
     bordercolor="#666666"
     borderopacity="1"
     objecttolerance="10"
     gridtolerance="10"
     guidetolerance="10"
     inkscape:pageopacity="0"
     inkscape:pageshadow="2"
     inkscape:window-width="704"
     inkscape:window-height="480"
     id="namedview41"
     showgrid="false"
     inkscape:zoom="52.761905"
     inkscape:cx="10.5"
     inkscape:cy="7.5"
     inkscape:window-x="0"
     inkscape:window-y="0"
     inkscape:window-maximized="0"
     inkscape:current-layer="svg39"
     inkscape:document-rotation="0" />
  <!-- Generator: sketchtool 46 (44423) - http://www.bohemiancoding.com/sketch -->
  <title
     id="title2">AS</title>
  <desc
     id="desc4">Created with sketchtool.</desc>
  <defs
     id="defs26">
    <linearGradient
       x1="50%"
       y1="0%"
       x2="50%"
       y2="100%"
       id="linearGradient-1">
      <stop
         stop-color="#FFFFFF"
         offset="0%"
         id="stop6" />
      <stop
         stop-color="#F0F0F0"
         offset="100%"
         id="stop8" />
    </linearGradient>
    <linearGradient
       x1="50%"
       y1="0%"
       x2="50%"
       y2="100%"
       id="linearGradient-2">
      <stop
         stop-color="#071585"
         offset="0%"
         id="stop11" />
      <stop
         stop-color="#000B64"
         offset="100%"
         id="stop13" />
    </linearGradient>
    <linearGradient
       x1="50%"
       y1="0%"
       x2="50%"
       y2="100%"
       id="linearGradient-3">
      <stop
         stop-color="#D32636"
         offset="0%"
         id="stop16" />
      <stop
         stop-color="#BA1827"
         offset="100%"
         id="stop18" />
    </linearGradient>
    <linearGradient
       x1="50%"
       y1="0%"
       x2="35.4001096%"
       y2="89.1313033%"
       id="linearGradient-4">
      <stop
         stop-color="#AB5423"
         offset="0%"
         id="stop21" />
      <stop
         stop-color="#5A3719"
         offset="100%"
         id="stop23" />
    </linearGradient>
    <linearGradient
       x1="50%"
       y1="0%"
       x2="50%"
       y2="100%"
       id="linearGradient7078">
      <stop
         stop-color="#ffffff"
         offset="0%"
         id="stop61" />
      <stop
         stop-color="#f0f0f0"
         offset="100%"
         id="stop63" />
    </linearGradient>
    <linearGradient
       x1="50%"
       y1="0%"
       x2="50%"
       y2="100%"
       id="linearGradient7296">
      <stop
         stop-color="#1e1e1e"
         offset="0%"
         id="stop66" />
      <stop
         stop-color="#121212"
         offset="100%"
         id="stop68" />
    </linearGradient>
    <linearGradient
       x1="50%"
       y1="0%"
       x2="50%"
       y2="100%"
       id="linearGradient8610">
      <stop
         stop-color="#5c5c5c"
         offset="0%"
         id="stop71" />
      <stop
         stop-color="#4a4a4a"
         offset="100%"
         id="stop73" />
    </linearGradient>
    <linearGradient
       x1="50%"
       y1="0%"
       x2="35.4001096%"
       y2="89.1313033%"
       id="linearGradient2628">
      <stop
         stop-color="#686868"
         offset="0%"
         id="stop76" />
      <stop
         stop-color="#3e3e3e"
         offset="100%"
         id="stop78" />
    </linearGradient>
  </defs>
  <g
     id="Symbols"
     stroke="none"
     stroke-width="1"
     fill="none"
     fill-rule="evenodd">
    <g
       id="AS">
      <rect
         id="FlagBackground"
         fill="url(#linearGradient7078)"
         x="0"
         y="0"
         width="21"
         height="15" />
      <rect
         id="Mask"
         fill="url(#linearGradient7296)"
         x="0"
         y="0"
         width="21"
         height="15" />
      <polygon
         id="Rectangle-1134"
         fill="url(#linearGradient8610)"
         fill-rule="nonzero"
         points="22 15.5 0 7.5 22 -0.5" />
      <polygon
         id="polygon31"
         fill="url(#linearGradient7078)"
         fill-rule="nonzero"
         points="21 0.927699992 2.92617498 7.5 21 14.0723" />
      <path
         d="M16,7.038486 C15.8815511,6.92003711 15.1942139,7.19421386 15.1942139,7.19421386 L14,6 C14,6 13.9383569,5.33698587 14.5,5 C14.9247187,4.74516878 15.7204931,4.83977815 16.4990013,4.5 C17.7459982,3.95575102 19,3 19,3 L18.1979642,5.20559849 C18.1979642,5.20559849 19.1166408,5.67923724 18.9999998,6 C18.9661979,6.0929551 18.0694389,6.38457486 17.9999998,6.5 C17.8680615,6.71931452 18.5239661,6.78580715 18.3197925,7.03848593 C17.7327784,7.76495606 17,8.5 17,8.5 L16,8 C16,8 16.1501465,7.18863249 16,7.038486 Z"
         id="Rectangle-1475"
         fill="url(#linearGradient2628)" />
      <circle
         id="Oval-322"
         fill="#c3c3c3"
         cx="13.5"
         cy="7.5"
         r="1" />
      <path
         d="M12.5,9 L17.5,9 C17.7761424,9 18,8.77614237 18,8.5 C18,8.22385763 17.7761424,8 17.5,8 L12.5,8 C12.2238576,8 12,8.22385763 12,8.5 C12,8.77614237 12.2238576,9 12.5,9 Z"
         id="Line"
         fill="#c3c3c3"
         fill-rule="nonzero" />
      <path
         d="M14.1969596,10.4595725 L17.6969596,8.95957252 C17.9507745,8.8507947 18.0683503,8.55685524 17.9595725,8.30304035 C17.8507947,8.04922546 17.5568552,7.93164967 17.3030404,8.04042748 L13.8030404,9.54042748 C13.5492255,9.6492053 13.4316497,9.94314476 13.5404275,10.1969596 C13.6492053,10.4507745 13.9431448,10.5683503 14.1969596,10.4595725 Z"
         id="Line-Copy"
         fill="#c3c3c3"
         fill-rule="nonzero" />
    </g>
  </g>
</svg>
