<?xml version="1.0" encoding="UTF-8" standalone="no"?>
<svg
   xmlns:dc="http://purl.org/dc/elements/1.1/"
   xmlns:cc="http://creativecommons.org/ns#"
   xmlns:rdf="http://www.w3.org/1999/02/22-rdf-syntax-ns#"
   xmlns:svg="http://www.w3.org/2000/svg"
   xmlns="http://www.w3.org/2000/svg"
   xmlns:sodipodi="http://sodipodi.sourceforge.net/DTD/sodipodi-0.dtd"
   xmlns:inkscape="http://www.inkscape.org/namespaces/inkscape"
   width="21px"
   height="15px"
   viewBox="0 0 21 15"
   version="1.1"
   id="svg86"
   sodipodi:docname="AZ.svg"
   inkscape:version="1.0.2-2 (e86c870879, 2021-01-15)">
  <metadata
     id="metadata90">
    <rdf:RDF>
      <cc:Work
         rdf:about="">
        <dc:format>image/svg+xml</dc:format>
        <dc:type
           rdf:resource="http://purl.org/dc/dcmitype/StillImage" />
      </cc:Work>
    </rdf:RDF>
  </metadata>
  <sodipodi:namedview
     pagecolor="#ffffff"
     bordercolor="#666666"
     borderopacity="1"
     objecttolerance="10"
     gridtolerance="10"
     guidetolerance="10"
     inkscape:pageopacity="0"
     inkscape:pageshadow="2"
     inkscape:window-width="2560"
     inkscape:window-height="1377"
     id="namedview88"
     showgrid="false"
     inkscape:zoom="54.619048"
     inkscape:cx="7.5065388"
     inkscape:cy="7.5"
     inkscape:window-x="-8"
     inkscape:window-y="-8"
     inkscape:window-maximized="1"
     inkscape:current-layer="svg86" />
  <!-- Generator: sketchtool 46 (44423) - http://www.bohemiancoding.com/sketch -->
  <title
     id="title51">AZ</title>
  <desc
     id="desc53">Created with sketchtool.</desc>
  <defs
     id="defs75">
    <linearGradient
       x1="50%"
       y1="0%"
       x2="50%"
       y2="100%"
       id="linearGradient-1">
      <stop
         stop-color="#FFFFFF"
         offset="0%"
         id="stop55" />
      <stop
         stop-color="#F0F0F0"
         offset="100%"
         id="stop57" />
    </linearGradient>
    <linearGradient
       x1="50%"
       y1="0%"
       x2="50%"
       y2="100%"
       id="linearGradient-2">
      <stop
         stop-color="#24AAD5"
         offset="0%"
         id="stop60" />
      <stop
         stop-color="#1899C2"
         offset="100%"
         id="stop62" />
    </linearGradient>
    <linearGradient
       x1="50%"
       y1="0%"
       x2="50%"
       y2="100%"
       id="linearGradient-3">
      <stop
         stop-color="#ED1845"
         offset="0%"
         id="stop65" />
      <stop
         stop-color="#DE0C39"
         offset="100%"
         id="stop67" />
    </linearGradient>
    <linearGradient
       x1="50%"
       y1="0%"
       x2="50%"
       y2="100%"
       id="linearGradient-4">
      <stop
         stop-color="#21BF75"
         offset="0%"
         id="stop70" />
      <stop
         stop-color="#19AD68"
         offset="100%"
         id="stop72" />
    </linearGradient>
  </defs>
  <g
     id="Symbols"
     stroke="none"
     stroke-width="1"
     fill="none"
     fill-rule="evenodd">
    <g
       id="AZ">
      <rect
         id="FlagBackground"
         fill="url(#linearGradient-1)"
         x="0"
         y="0"
         width="21"
         height="15" />
      <rect
         id="Rectangle-2"
         fill="url(#linearGradient-2)"
         x="0"
         y="0"
         width="21"
         height="5" />
      <rect
         id="rect79"
         fill="url(#linearGradient-3)"
         x="0"
         y="5"
         width="21"
         height="5" />
      <rect
         id="rect81"
         fill="url(#linearGradient-4)"
         x="0"
         y="10"
         width="21"
         height="5" />
      <path
         d="M11.3335689,6.25274924 C11.3059482,6.25092604 11.2780822,6.25 11.25,6.25 C10.5596441,6.25 10,6.80964406 10,7.5 C10,8.19035594 10.5596441,8.75 11.25,8.75 C11.2780822,8.75 11.3059482,8.74907396 11.3335689,8.74725076 C11.0951725,8.9068934 10.8084594,9 10.5,9 C9.67157288,9 9,8.32842712 9,7.5 C9,6.67157288 9.67157288,6 10.5,6 C10.8084594,6 11.0951725,6.0931066 11.3335689,6.25274924 Z M11.5,8 C11.2238576,8 11,7.77614237 11,7.5 C11,7.22385763 11.2238576,7 11.5,7 C11.7761424,7 12,7.22385763 12,7.5 C12,7.77614237 11.7761424,8 11.5,8 Z"
         id="Oval-68"
         fill="url(#linearGradient-1)" />
      <title>Azerbaijan</title>
    </g>
  </g>
</svg>
