<?xml version="1.0" encoding="UTF-8" standalone="no"?>
<svg
   xmlns:dc="http://purl.org/dc/elements/1.1/"
   xmlns:cc="http://creativecommons.org/ns#"
   xmlns:rdf="http://www.w3.org/1999/02/22-rdf-syntax-ns#"
   xmlns:svg="http://www.w3.org/2000/svg"
   xmlns="http://www.w3.org/2000/svg"
   xmlns:sodipodi="http://sodipodi.sourceforge.net/DTD/sodipodi-0.dtd"
   xmlns:inkscape="http://www.inkscape.org/namespaces/inkscape"
   width="21px"
   height="15px"
   viewBox="0 0 21 15"
   version="1.1"
   id="svg38"
   sodipodi:docname="BI.svg"
   inkscape:version="1.0.2-2 (e86c870879, 2021-01-15)">
  <metadata
     id="metadata42">
    <rdf:RDF>
      <cc:Work
         rdf:about="">
        <dc:format>image/svg+xml</dc:format>
        <dc:type
           rdf:resource="http://purl.org/dc/dcmitype/StillImage" />
      </cc:Work>
    </rdf:RDF>
  </metadata>
  <sodipodi:namedview
     pagecolor="#ffffff"
     bordercolor="#666666"
     borderopacity="1"
     objecttolerance="10"
     gridtolerance="10"
     guidetolerance="10"
     inkscape:pageopacity="0"
     inkscape:pageshadow="2"
     inkscape:window-width="704"
     inkscape:window-height="480"
     id="namedview40"
     showgrid="false"
     inkscape:zoom="52.761905"
     inkscape:cx="10.5"
     inkscape:cy="7.5"
     inkscape:window-x="0"
     inkscape:window-y="0"
     inkscape:window-maximized="0"
     inkscape:current-layer="svg38"
     inkscape:document-rotation="0" />
  <!-- Generator: sketchtool 46 (44423) - http://www.bohemiancoding.com/sketch -->
  <title
     id="title2">BI</title>
  <desc
     id="desc4">Created with sketchtool.</desc>
  <defs
     id="defs26">
    <linearGradient
       x1="50%"
       y1="0%"
       x2="50%"
       y2="100%"
       id="linearGradient-1">
      <stop
         stop-color="#FFFFFF"
         offset="0%"
         id="stop6" />
      <stop
         stop-color="#F0F0F0"
         offset="100%"
         id="stop8" />
    </linearGradient>
    <linearGradient
       x1="50%"
       y1="0%"
       x2="50%"
       y2="100%"
       id="linearGradient-2">
      <stop
         stop-color="#E4233B"
         offset="0%"
         id="stop11" />
      <stop
         stop-color="#CC162C"
         offset="100%"
         id="stop13" />
    </linearGradient>
    <linearGradient
       x1="50%"
       y1="0%"
       x2="50%"
       y2="100%"
       id="linearGradient-3">
      <stop
         stop-color="#34CD4E"
         offset="0%"
         id="stop16" />
      <stop
         stop-color="#2AB441"
         offset="100%"
         id="stop18" />
    </linearGradient>
    <linearGradient
       x1="50%"
       y1="0%"
       x2="50%"
       y2="100%"
       id="linearGradient-4">
      <stop
         stop-color="#DF2239"
         offset="0%"
         id="stop21" />
      <stop
         stop-color="#CC162C"
         offset="100%"
         id="stop23" />
    </linearGradient>
    <linearGradient
       x1="50%"
       y1="0%"
       x2="50%"
       y2="100%"
       id="linearGradient4747">
      <stop
         stop-color="#ffffff"
         offset="0%"
         id="stop60" />
      <stop
         stop-color="#f0f0f0"
         offset="100%"
         id="stop62" />
    </linearGradient>
    <linearGradient
       x1="50%"
       y1="0%"
       x2="50%"
       y2="100%"
       id="linearGradient2064">
      <stop
         stop-color="#5f5f5f"
         offset="0%"
         id="stop65" />
      <stop
         stop-color="#4f4f4f"
         offset="100%"
         id="stop67" />
    </linearGradient>
    <linearGradient
       x1="50%"
       y1="0%"
       x2="50%"
       y2="100%"
       id="linearGradient674">
      <stop
         stop-color="#919191"
         offset="0%"
         id="stop70" />
      <stop
         stop-color="#7e7e7e"
         offset="100%"
         id="stop72" />
    </linearGradient>
    <linearGradient
       x1="50%"
       y1="0%"
       x2="50%"
       y2="100%"
       id="linearGradient6959">
      <stop
         stop-color="#5d5d5d"
         offset="0%"
         id="stop75" />
      <stop
         stop-color="#4f4f4f"
         offset="100%"
         id="stop77" />
    </linearGradient>
  </defs>
  <g
     id="Symbols"
     stroke="none"
     stroke-width="1"
     fill="none"
     fill-rule="evenodd">
    <g
       id="BI">
      <rect
         id="FlagBackground"
         fill="url(#linearGradient4747)"
         x="0"
         y="0"
         width="21"
         height="15" />
      <g
         id="Group-2"
         transform="translate(-2.080000, -1.440000)">
        <rect
           id="Mask-Copy"
           fill="url(#linearGradient2064)"
           x="2.08023771"
           y="1.43733467"
           width="21"
           height="15" />
        <polygon
           id="Rectangle-253"
           fill="url(#linearGradient674)"
           points="2 1.43733467 11 8.93733467 2 16.4373347" />
        <polygon
           id="polygon31"
           fill="url(#linearGradient674)"
           transform="translate(18.580000, 8.937335) scale(-1, 1) translate(-18.580000, -8.937335) "
           points="14.0799999 1.43733467 23.0799999 8.93733467 14.0799999 16.4373347" />
        <path
           d="M10.3586667,6.23264816 L1.11838581,-1.77635684e-15 L1.11022302e-15,1.65807515 L9.23955861,7.89023612 C9.13603457,8.22085713 9.08023771,8.57257987 9.08023771,8.93733467 C9.08023771,9.30208947 9.13603457,9.65381222 9.23955861,9.98443323 L1.77635684e-15,16.2165942 L1.11838581,17.8746693 L10.3586667,11.6420212 C10.9629797,12.1389684 11.7367651,12.4373347 12.5802377,12.4373347 C13.4237103,12.4373347 14.1974957,12.1389684 14.8018087,11.6420212 L24.0420896,17.8746693 L25.1604754,16.2165942 L15.9209168,9.98443323 C16.0244408,9.65381222 16.0802377,9.30208947 16.0802377,8.93733467 C16.0802377,8.57257987 16.0244408,8.22085713 15.9209168,7.89023612 L25.1604754,1.65807515 L24.0420896,-3.55271368e-15 L14.8018087,6.23264816 C14.1974957,5.73570091 13.4237103,5.43733467 12.5802377,5.43733467 C11.7367651,5.43733467 10.9629797,5.73570091 10.3586667,6.23264816 Z"
           id="Rectangle-2"
           fill="url(#linearGradient4747)" />
        <path
           d="M12.5802377,7.93733467 L11.8731309,8.14444145 L12.0802377,7.43733467 L11.8731309,6.73022789 L12.5802377,6.93733467 L13.2873445,6.73022789 L13.0802377,7.43733467 L13.2873445,8.14444145 L12.5802377,7.93733467 Z M11.0802377,10.4373347 L10.3731309,10.6444415 L10.5802377,9.93733467 L10.3731309,9.23022789 L11.0802377,9.43733467 L11.7873445,9.23022789 L11.5802377,9.93733467 L11.7873445,10.6444415 L11.0802377,10.4373347 Z M14.0802377,10.4373347 L13.3731309,10.6444415 L13.5802377,9.93733467 L13.3731309,9.23022789 L14.0802377,9.43733467 L14.7873445,9.23022789 L14.5802377,9.93733467 L14.7873445,10.6444415 L14.0802377,10.4373347 Z"
           id="Star-2"
           fill="url(#linearGradient6959)" />
      </g>
    </g>
  </g>
</svg>
