<?xml version="1.0" encoding="UTF-8" standalone="no"?>
<svg
   xmlns:dc="http://purl.org/dc/elements/1.1/"
   xmlns:cc="http://creativecommons.org/ns#"
   xmlns:rdf="http://www.w3.org/1999/02/22-rdf-syntax-ns#"
   xmlns:svg="http://www.w3.org/2000/svg"
   xmlns="http://www.w3.org/2000/svg"
   xmlns:xlink="http://www.w3.org/1999/xlink"
   xmlns:sodipodi="http://sodipodi.sourceforge.net/DTD/sodipodi-0.dtd"
   xmlns:inkscape="http://www.inkscape.org/namespaces/inkscape"
   width="21px"
   height="15px"
   viewBox="0 0 21 15"
   version="1.1"
   id="svg45"
   sodipodi:docname="BL.svg"
   inkscape:version="1.0.2-2 (e86c870879, 2021-01-15)">
  <metadata
     id="metadata49">
    <rdf:RDF>
      <cc:Work
         rdf:about="">
        <dc:format>image/svg+xml</dc:format>
        <dc:type
           rdf:resource="http://purl.org/dc/dcmitype/StillImage" />
      </cc:Work>
    </rdf:RDF>
  </metadata>
  <sodipodi:namedview
     pagecolor="#ffffff"
     bordercolor="#666666"
     borderopacity="1"
     objecttolerance="10"
     gridtolerance="10"
     guidetolerance="10"
     inkscape:pageopacity="0"
     inkscape:pageshadow="2"
     inkscape:window-width="704"
     inkscape:window-height="480"
     id="namedview47"
     showgrid="false"
     inkscape:zoom="52.761905"
     inkscape:cx="10.5"
     inkscape:cy="7.5"
     inkscape:window-x="0"
     inkscape:window-y="0"
     inkscape:window-maximized="0"
     inkscape:current-layer="svg45"
     inkscape:document-rotation="0" />
  <!-- Generator: sketchtool 46 (44423) - http://www.bohemiancoding.com/sketch -->
  <title
     id="title2">BL</title>
  <desc
     id="desc4">Created with sketchtool.</desc>
  <defs
     id="defs27">
    <linearGradient
       x1="50%"
       y1="0%"
       x2="50%"
       y2="100%"
       id="linearGradient-1">
      <stop
         stop-color="#FFFFFF"
         offset="0%"
         id="stop6" />
      <stop
         stop-color="#F0F0F0"
         offset="100%"
         id="stop8" />
    </linearGradient>
    <linearGradient
       x1="50%"
       y1="0%"
       x2="50%"
       y2="100%"
       id="linearGradient-2">
      <stop
         stop-color="#216CD3"
         offset="0%"
         id="stop11" />
      <stop
         stop-color="#1557B2"
         offset="100%"
         id="stop13" />
    </linearGradient>
    <path
       d="M0.5,0 L7.49999992,0 L7.49999998,4.49121523 C7.49999999,5.04835167 7.16440529,5.78765261 6.74055213,6.15095532 L5.1460309,7.5176878 C4.51309551,8.06020385 3.48356295,8.05733967 2.8539691,7.5176878 L1.25944787,6.15095532 C0.840016394,5.79144262 0.5,5.04991192 0.5,4.49121523 L0.5,0 Z"
       id="path-3" />
    <linearGradient
       x1="50%"
       y1="0%"
       x2="50%"
       y2="100%"
       id="linearGradient-5">
      <stop
         stop-color="#F7E14B"
         offset="0%"
         id="stop17" />
      <stop
         stop-color="#F7DF3E"
         offset="100%"
         id="stop19" />
    </linearGradient>
    <linearGradient
       x1="50%"
       y1="0%"
       x2="50%"
       y2="100%"
       id="linearGradient-6">
      <stop
         stop-color="#E12539"
         offset="0%"
         id="stop22" />
      <stop
         stop-color="#CA192C"
         offset="100%"
         id="stop24" />
    </linearGradient>
    <linearGradient
       x1="50%"
       y1="0%"
       x2="50%"
       y2="100%"
       id="linearGradient3126">
      <stop
         stop-color="#ffffff"
         offset="0%"
         id="stop68" />
      <stop
         stop-color="#f0f0f0"
         offset="100%"
         id="stop70" />
    </linearGradient>
    <linearGradient
       x1="50%"
       y1="0%"
       x2="50%"
       y2="100%"
       id="linearGradient5034">
      <stop
         stop-color="#616161"
         offset="0%"
         id="stop73" />
      <stop
         stop-color="#4e4e4e"
         offset="100%"
         id="stop75" />
    </linearGradient>
    <linearGradient
       x1="50%"
       y1="0%"
       x2="50%"
       y2="100%"
       id="linearGradient752">
      <stop
         stop-color="#d6d6d6"
         offset="0%"
         id="stop78" />
      <stop
         stop-color="#d4d4d4"
         offset="100%"
         id="stop80" />
    </linearGradient>
    <linearGradient
       x1="50%"
       y1="0%"
       x2="50%"
       y2="100%"
       id="linearGradient5932">
      <stop
         stop-color="#5f5f5f"
         offset="0%"
         id="stop83" />
      <stop
         stop-color="#505050"
         offset="100%"
         id="stop85" />
    </linearGradient>
  </defs>
  <g
     id="Symbols"
     stroke="none"
     stroke-width="1"
     fill="none"
     fill-rule="evenodd">
    <g
       id="BL">
      <rect
         id="FlagBackground"
         fill="url(#linearGradient3126)"
         x="0"
         y="0"
         width="21"
         height="15" />
      <g
         id="Rectangle-1693"
         transform="translate(6.500000, 5.000000)">
        <mask
           id="mask-4"
           fill="white">
          <use
             xlink:href="#path-3"
             id="use30" />
        </mask>
        <use
           id="Combined-Shape"
           fill="url(#linearGradient5034)"
           xlink:href="#path-3" />
        <path
           d="M2,2 C1.72385763,2 1.5,1.77614237 1.5,1.5 C1.5,1.22385763 1.72385763,1 2,1 C2.27614237,1 2.5,1.22385763 2.5,1.5 C2.5,1.77614237 2.27614237,2 2,2 Z M4,2 C3.72385763,2 3.5,1.77614237 3.5,1.5 C3.5,1.22385763 3.72385763,1 4,1 C4.27614237,1 4.5,1.22385763 4.5,1.5 C4.5,1.77614237 4.27614237,2 4,2 Z M6,2 C5.72385763,2 5.5,1.77614237 5.5,1.5 C5.5,1.22385763 5.72385763,1 6,1 C6.27614237,1 6.5,1.22385763 6.5,1.5 C6.5,1.77614237 6.27614237,2 6,2 Z"
           id="path34"
           fill="url(#linearGradient752)"
           mask="url(#mask-4)" />
        <path
           d="M2.5,6.5 C2.22385763,6.5 2,6.27614237 2,6 C2,5.72385763 2.22385763,5.5 2.5,5.5 C2.77614237,5.5 3,5.72385763 3,6 C3,6.27614237 2.77614237,6.5 2.5,6.5 Z M4,7 C3.72385763,7 3.5,6.77614237 3.5,6.5 C3.5,6.22385763 3.72385763,6 4,6 C4.27614237,6 4.5,6.22385763 4.5,6.5 C4.5,6.77614237 4.27614237,7 4,7 Z M5.5,6.5 C5.22385763,6.5 5,6.27614237 5,6 C5,5.72385763 5.22385763,5.5 5.5,5.5 C5.77614237,5.5 6,5.72385763 6,6 C6,6.27614237 5.77614237,6.5 5.5,6.5 Z"
           id="Combined-Shape-Copy"
           fill="url(#linearGradient752)"
           mask="url(#mask-4)" />
        <rect
           id="Rectangle-1425-Copy"
           fill="url(#linearGradient5932)"
           mask="url(#mask-4)"
           x="0.5"
           y="3"
           width="7"
           height="2" />
        <circle
           id="Oval-292"
           fill="#ffffff"
           mask="url(#mask-4)"
           cx="4"
           cy="4"
           r="1" />
      </g>
      <path
         d="M6.5,3.5 C6.5,3.5 8.5,3 10.5,3 C12.5,3 14.5,3.5 14.5,3.5 L14,5.5 C14,5.5 12.25,5 10.5,5 C8.75,5 7,5.5 7,5.5 L6.5,3.5 Z"
         id="Rectangle-1426"
         fill="url(#linearGradient752)" />
      <path
         d="M10.5,4.5 C10.2238576,4.5 10,4.27614237 10,4 C10,3.72385763 10.2238576,3.5 10.5,3.5 C10.7761424,3.5 11,3.72385763 11,4 C11,4.27614237 10.7761424,4.5 10.5,4.5 Z M12.5,4.5 C12.2238576,4.5 12,4.27614237 12,4 C12,3.72385763 12.2238576,3.5 12.5,3.5 C12.7761424,3.5 13,3.72385763 13,4 C13,4.27614237 12.7761424,4.5 12.5,4.5 Z M8.5,4.5 C8.22385763,4.5 8,4.27614237 8,4 C8,3.72385763 8.22385763,3.5 8.5,3.5 C8.77614237,3.5 9,3.72385763 9,4 C9,4.27614237 8.77614237,4.5 8.5,4.5 Z"
         id="path41"
         fill="#4f4f4f" />
    </g>
  </g>
</svg>
