<?xml version="1.0" encoding="UTF-8" standalone="no"?>
<svg
   xmlns:dc="http://purl.org/dc/elements/1.1/"
   xmlns:cc="http://creativecommons.org/ns#"
   xmlns:rdf="http://www.w3.org/1999/02/22-rdf-syntax-ns#"
   xmlns:svg="http://www.w3.org/2000/svg"
   xmlns="http://www.w3.org/2000/svg"
   xmlns:xlink="http://www.w3.org/1999/xlink"
   xmlns:sodipodi="http://sodipodi.sourceforge.net/DTD/sodipodi-0.dtd"
   xmlns:inkscape="http://www.inkscape.org/namespaces/inkscape"
   width="21px"
   height="15px"
   viewBox="0 0 21 15"
   version="1.1"
   id="svg53"
   sodipodi:docname="BM.svg"
   inkscape:version="1.0.2-2 (e86c870879, 2021-01-15)">
  <metadata
     id="metadata57">
    <rdf:RDF>
      <cc:Work
         rdf:about="">
        <dc:format>image/svg+xml</dc:format>
        <dc:type
           rdf:resource="http://purl.org/dc/dcmitype/StillImage" />
      </cc:Work>
    </rdf:RDF>
  </metadata>
  <sodipodi:namedview
     pagecolor="#ffffff"
     bordercolor="#666666"
     borderopacity="1"
     objecttolerance="10"
     gridtolerance="10"
     guidetolerance="10"
     inkscape:pageopacity="0"
     inkscape:pageshadow="2"
     inkscape:window-width="704"
     inkscape:window-height="480"
     id="namedview55"
     showgrid="false"
     inkscape:zoom="52.761905"
     inkscape:cx="10.5"
     inkscape:cy="7.5"
     inkscape:window-x="0"
     inkscape:window-y="0"
     inkscape:window-maximized="0"
     inkscape:current-layer="svg53"
     inkscape:document-rotation="0" />
  <!-- Generator: sketchtool 46 (44423) - http://www.bohemiancoding.com/sketch -->
  <title
     id="title2">BM</title>
  <desc
     id="desc4">Created with sketchtool.</desc>
  <defs
     id="defs32">
    <linearGradient
       x1="50%"
       y1="0%"
       x2="50%"
       y2="100%"
       id="linearGradient-1">
      <stop
         stop-color="#FFFFFF"
         offset="0%"
         id="stop6" />
      <stop
         stop-color="#F0F0F0"
         offset="100%"
         id="stop8" />
    </linearGradient>
    <linearGradient
       x1="50%"
       y1="0%"
       x2="50%"
       y2="100%"
       id="linearGradient-2">
      <stop
         stop-color="#DC1F37"
         offset="0%"
         id="stop11" />
      <stop
         stop-color="#CF142C"
         offset="100%"
         id="stop13" />
    </linearGradient>
    <linearGradient
       x1="50%"
       y1="0%"
       x2="50%"
       y2="100%"
       id="linearGradient-3">
      <stop
         stop-color="#042C90"
         offset="0%"
         id="stop16" />
      <stop
         stop-color="#00247E"
         offset="100%"
         id="stop18" />
    </linearGradient>
    <linearGradient
       x1="50%"
       y1="0%"
       x2="50%"
       y2="100%"
       id="linearGradient-4">
      <stop
         stop-color="#DB1E36"
         offset="0%"
         id="stop21" />
      <stop
         stop-color="#D51931"
         offset="100%"
         id="stop23" />
    </linearGradient>
    <path
       d="M0,2.5 L0,0 L2,0 L4,0 L4,2.5 C4,4 2,5 2,5 C2,5 0,4 0,2.5 Z"
       id="path-5" />
    <linearGradient
       x1="50%"
       y1="0%"
       x2="50%"
       y2="100%"
       id="linearGradient-7">
      <stop
         stop-color="#E20B0C"
         offset="0%"
         id="stop27" />
      <stop
         stop-color="#D40001"
         offset="100%"
         id="stop29" />
    </linearGradient>
    <linearGradient
       x1="50%"
       y1="0%"
       x2="50%"
       y2="100%"
       id="linearGradient8112">
      <stop
         stop-color="#ffffff"
         offset="0%"
         id="stop79" />
      <stop
         stop-color="#f0f0f0"
         offset="100%"
         id="stop81" />
    </linearGradient>
    <linearGradient
       x1="50%"
       y1="0%"
       x2="50%"
       y2="100%"
       id="linearGradient1400">
      <stop
         stop-color="#5a5a5a"
         offset="0%"
         id="stop84" />
      <stop
         stop-color="#4f4f4f"
         offset="100%"
         id="stop86" />
    </linearGradient>
    <linearGradient
       x1="50%"
       y1="0%"
       x2="50%"
       y2="100%"
       id="linearGradient8701">
      <stop
         stop-color="#2b2b2b"
         offset="0%"
         id="stop89" />
      <stop
         stop-color="#232323"
         offset="100%"
         id="stop91" />
    </linearGradient>
    <linearGradient
       x1="50%"
       y1="0%"
       x2="50%"
       y2="100%"
       id="linearGradient9221">
      <stop
         stop-color="#595959"
         offset="0%"
         id="stop94" />
      <stop
         stop-color="#545454"
         offset="100%"
         id="stop96" />
    </linearGradient>
    <linearGradient
       x1="50%"
       y1="0%"
       x2="50%"
       y2="100%"
       id="linearGradient2914">
      <stop
         stop-color="#4b4b4b"
         offset="0%"
         id="stop99" />
      <stop
         stop-color="#404040"
         offset="100%"
         id="stop101" />
    </linearGradient>
  </defs>
  <g
     id="Symbols"
     stroke="none"
     stroke-width="1"
     fill="none"
     fill-rule="evenodd">
    <g
       id="BM">
      <rect
         id="FlagBackground"
         fill="url(#linearGradient8112)"
         x="0"
         y="0"
         width="21"
         height="15" />
      <rect
         id="Mask-Copy"
         fill="url(#linearGradient1400)"
         x="0"
         y="0"
         width="21"
         height="15" />
      <rect
         id="Rectangle-1115"
         fill="url(#linearGradient8701)"
         x="0"
         y="0"
         width="9"
         height="7" />
      <path
         d="M3,3.22996746 L-1.3516287,-0.5 L0.660232527,-0.5 L4.16023253,2 L4.85660189,2 L9.5,-0.902123821 L9.5,0.25 C9.5,0.552509227 9.33308555,0.876533554 9.08215972,1.05576629 L6,3.25730895 L6,3.77003254 L9.13722049,6.45907867 C9.59934261,6.85518335 9.34102897,7.5 8.75,7.5 C8.50478614,7.5 8.2052751,7.40393402 8.00092153,7.25796718 L4.83976747,5 L4.14339811,5 L-0.5,7.90212382 L-0.5,6.24269105 L3,3.74269105 L3,3.22996746 Z"
         id="Rectangle-36"
         fill="url(#linearGradient8112)"
         fill-rule="nonzero" />
      <path
         d="M3.5,3 L-4.4408921e-16,7.10542736e-15 L0.5,7.10542736e-15 L4,2.5 L5,2.5 L9,7.10542736e-15 L9,0.25 C9,0.388071187 8.91348267,0.561798096 8.79154062,0.648899555 L5.5,3 L5.5,4 L8.8118248,6.83870697 C8.91575109,6.92778665 8.8840332,7 8.75,7 L8.75,7 C8.61192881,7 8.41348267,6.9382019 8.29154062,6.85110044 L5,4.5 L4,4.5 L-4.4408921e-16,7 L-4.4408921e-16,6.5 L3.5,4 L3.5,3 Z"
         id="path38"
         fill="url(#linearGradient9221)" />
      <path
         d="M-4.4408921e-16,2.5 L-4.4408921e-16,4.5 L3.5,4.5 L3.5,7.00461102 C3.5,7.2782068 3.71403503,7.5 4.00468445,7.5 L4.99531555,7.5 C5.27404508,7.5 5.5,7.2842474 5.5,7.00461102 L5.5,4.5 L9.00952148,4.5 C9.28040529,4.5 9.5,4.28596497 9.5,3.99531555 L9.5,3.00468445 C9.5,2.72595492 9.28494263,2.5 9.00952148,2.5 L5.5,2.5 L5.5,7.10542736e-15 L3.5,7.10542736e-15 L3.5,2.5 L-4.4408921e-16,2.5 Z"
         id="Rectangle-2"
         fill="url(#linearGradient8112)" />
      <polygon
         id="polygon41"
         fill="url(#linearGradient9221)"
         points="-4.4408921e-16 3 4 3 4 2.5 4 7.10542736e-15 5 7.10542736e-15 5 2.5 5 3 9 3 9 4 5 4 5 4.5 5 7 4 7 4 4.5 4 4 -4.4408921e-16 4" />
      <g
         id="Rectangle-1105"
         transform="translate(13.000000, 5.000000)">
        <mask
           id="mask-6"
           fill="white">
          <use
             xlink:href="#path-5"
             id="use43" />
        </mask>
        <use
           id="Mask"
           fill="url(#linearGradient8112)"
           xlink:href="#path-5" />
        <circle
           id="Oval-173"
           fill="#a0a0a0"
           mask="url(#mask-6)"
           cx="2"
           cy="3"
           r="1" />
        <path
           d="M2,2 C1.72385763,2 1.5,1.77614237 1.5,1.5 C1.5,1.22385763 1.72385763,1 2,1 C2.27614237,1 2.5,1.22385763 2.5,1.5 C2.5,1.77614237 2.27614237,2 2,2 Z M1,3 C0.723857625,3 0.5,2.77614237 0.5,2.5 C0.5,2.22385763 0.723857625,2 1,2 C1.27614237,2 1.5,2.22385763 1.5,2.5 C1.5,2.77614237 1.27614237,3 1,3 Z M3,3 C2.72385763,3 2.5,2.77614237 2.5,2.5 C2.5,2.22385763 2.72385763,2 3,2 C3.27614237,2 3.5,2.22385763 3.5,2.5 C3.5,2.77614237 3.27614237,3 3,3 Z"
           id="Oval-174"
           fill="url(#linearGradient2914)"
           mask="url(#mask-6)" />
        <rect
           id="Rectangle-1106"
           fill="#666666"
           mask="url(#mask-6)"
           x="0"
           y="4"
           width="4"
           height="1" />
      </g>
    </g>
  </g>
</svg>
