<?xml version="1.0" encoding="UTF-8" standalone="no"?>
<svg
   xmlns:dc="http://purl.org/dc/elements/1.1/"
   xmlns:cc="http://creativecommons.org/ns#"
   xmlns:rdf="http://www.w3.org/1999/02/22-rdf-syntax-ns#"
   xmlns:svg="http://www.w3.org/2000/svg"
   xmlns="http://www.w3.org/2000/svg"
   xmlns:sodipodi="http://sodipodi.sourceforge.net/DTD/sodipodi-0.dtd"
   xmlns:inkscape="http://www.inkscape.org/namespaces/inkscape"
   width="21px"
   height="15px"
   viewBox="0 0 21 15"
   version="1.1"
   id="svg33"
   sodipodi:docname="BY.svg"
   inkscape:version="1.0.2-2 (e86c870879, 2021-01-15)">
  <metadata
     id="metadata37">
    <rdf:RDF>
      <cc:Work
         rdf:about="">
        <dc:format>image/svg+xml</dc:format>
        <dc:type
           rdf:resource="http://purl.org/dc/dcmitype/StillImage" />
      </cc:Work>
    </rdf:RDF>
  </metadata>
  <sodipodi:namedview
     pagecolor="#ffffff"
     bordercolor="#666666"
     borderopacity="1"
     objecttolerance="10"
     gridtolerance="10"
     guidetolerance="10"
     inkscape:pageopacity="0"
     inkscape:pageshadow="2"
     inkscape:window-width="704"
     inkscape:window-height="480"
     id="namedview35"
     showgrid="false"
     inkscape:zoom="52.761905"
     inkscape:cx="10.5"
     inkscape:cy="7.5"
     inkscape:window-x="0"
     inkscape:window-y="0"
     inkscape:window-maximized="0"
     inkscape:current-layer="svg33"
     inkscape:document-rotation="0" />
  <!-- Generator: sketchtool 46 (44423) - http://www.bohemiancoding.com/sketch -->
  <title
     id="title2">BY</title>
  <desc
     id="desc4">Created with sketchtool.</desc>
  <defs
     id="defs21">
    <linearGradient
       x1="50%"
       y1="0%"
       x2="50%"
       y2="100%"
       id="linearGradient-1">
      <stop
         stop-color="#FFFFFF"
         offset="0%"
         id="stop6" />
      <stop
         stop-color="#F0F0F0"
         offset="100%"
         id="stop8" />
    </linearGradient>
    <linearGradient
       x1="50%"
       y1="0%"
       x2="50%"
       y2="100%"
       id="linearGradient-2">
      <stop
         stop-color="#E54252"
         offset="0%"
         id="stop11" />
      <stop
         stop-color="#C63442"
         offset="100%"
         id="stop13" />
    </linearGradient>
    <linearGradient
       x1="50%"
       y1="0%"
       x2="50%"
       y2="100%"
       id="linearGradient-3">
      <stop
         stop-color="#5CBE6B"
         offset="0%"
         id="stop16" />
      <stop
         stop-color="#4EA55B"
         offset="100%"
         id="stop18" />
    </linearGradient>
    <linearGradient
       x1="50%"
       y1="0%"
       x2="50%"
       y2="100%"
       id="linearGradient7724">
      <stop
         stop-color="#ffffff"
         offset="0%"
         id="stop52" />
      <stop
         stop-color="#f0f0f0"
         offset="100%"
         id="stop54" />
    </linearGradient>
    <linearGradient
       x1="50%"
       y1="0%"
       x2="50%"
       y2="100%"
       id="linearGradient8151">
      <stop
         stop-color="#757575"
         offset="0%"
         id="stop57" />
      <stop
         stop-color="#616161"
         offset="100%"
         id="stop59" />
    </linearGradient>
    <linearGradient
       x1="50%"
       y1="0%"
       x2="50%"
       y2="100%"
       id="linearGradient7244">
      <stop
         stop-color="#979797"
         offset="0%"
         id="stop62" />
      <stop
         stop-color="#838383"
         offset="100%"
         id="stop64" />
    </linearGradient>
  </defs>
  <g
     id="Symbols"
     stroke="none"
     stroke-width="1"
     fill="none"
     fill-rule="evenodd">
    <g
       id="BY">
      <rect
         id="FlagBackground"
         fill="url(#linearGradient7724)"
         x="0"
         y="0"
         width="21"
         height="15" />
      <rect
         id="Rectangle-2"
         fill="url(#linearGradient8151)"
         x="0"
         y="0"
         width="21"
         height="10" />
      <rect
         id="rect25"
         fill="url(#linearGradient7244)"
         x="0"
         y="10"
         width="21"
         height="5" />
      <path
         d="M3,12.75 L3,15 L2.22044605e-16,15 L2.22044605e-16,0 L3,0 L3,2.25 L2.5,3 L3,3.75 L3,5.25 L2.5,6 L3,6.75 L3,8.25 L2.5,9 L3,9.75 L3,11.25 L2.5,12 L3,12.75 Z"
         id="Rectangle-1512"
         fill="url(#linearGradient7724)" />
      <path
         d="M-1.5,3 L-0.5,1.5 L0.5,3 L-0.5,4.5 L-1.5,3 Z M-1.5,6 L-0.5,4.5 L0.5,6 L-0.5,7.5 L-1.5,6 Z M-1.5,9 L-0.5,7.5 L0.5,9 L-0.5,10.5 L-1.5,9 Z M-1.5,12 L-0.5,10.5 L0.5,12 L-0.5,13.5 L-1.5,12 Z"
         id="Rectangle-1513"
         fill="url(#linearGradient8151)" />
      <path
         d="M0.5,1.5 L1.5,0 L2.5,1.5 L1.5,3 L0.5,1.5 Z M0.5,4.5 L1.5,3 L2.5,4.5 L1.5,6 L0.5,4.5 Z M0.5,7.5 L1.5,6 L2.5,7.5 L1.5,9 L0.5,7.5 Z M0.5,10.5 L1.5,9 L2.5,10.5 L1.5,12 L0.5,10.5 Z M0.5,13.5 L1.5,12 L2.5,13.5 L1.5,15 L0.5,13.5 Z"
         id="path29"
         fill="url(#linearGradient8151)" />
    </g>
  </g>
</svg>
