<?xml version="1.0" encoding="UTF-8" standalone="no"?>
<svg
   xmlns:dc="http://purl.org/dc/elements/1.1/"
   xmlns:cc="http://creativecommons.org/ns#"
   xmlns:rdf="http://www.w3.org/1999/02/22-rdf-syntax-ns#"
   xmlns:svg="http://www.w3.org/2000/svg"
   xmlns="http://www.w3.org/2000/svg"
   xmlns:sodipodi="http://sodipodi.sourceforge.net/DTD/sodipodi-0.dtd"
   xmlns:inkscape="http://www.inkscape.org/namespaces/inkscape"
   width="21px"
   height="15px"
   viewBox="0 0 21 15"
   version="1.1"
   id="svg44"
   sodipodi:docname="CX.svg"
   inkscape:version="1.0.2-2 (e86c870879, 2021-01-15)">
  <metadata
     id="metadata48">
    <rdf:RDF>
      <cc:Work
         rdf:about="">
        <dc:format>image/svg+xml</dc:format>
        <dc:type
           rdf:resource="http://purl.org/dc/dcmitype/StillImage" />
      </cc:Work>
    </rdf:RDF>
  </metadata>
  <sodipodi:namedview
     pagecolor="#ffffff"
     bordercolor="#666666"
     borderopacity="1"
     objecttolerance="10"
     gridtolerance="10"
     guidetolerance="10"
     inkscape:pageopacity="0"
     inkscape:pageshadow="2"
     inkscape:window-width="704"
     inkscape:window-height="480"
     id="namedview46"
     showgrid="false"
     inkscape:zoom="52.761905"
     inkscape:cx="10.5"
     inkscape:cy="7.5"
     inkscape:window-x="0"
     inkscape:window-y="0"
     inkscape:window-maximized="0"
     inkscape:current-layer="svg44"
     inkscape:document-rotation="0" />
  <!-- Generator: sketchtool 46 (44423) - http://www.bohemiancoding.com/sketch -->
  <title
     id="title2">CX</title>
  <desc
     id="desc4">Created with sketchtool.</desc>
  <defs
     id="defs26">
    <linearGradient
       x1="50%"
       y1="0%"
       x2="50%"
       y2="100%"
       id="linearGradient-1">
      <stop
         stop-color="#FFFFFF"
         offset="0%"
         id="stop6" />
      <stop
         stop-color="#F0F0F0"
         offset="100%"
         id="stop8" />
    </linearGradient>
    <linearGradient
       x1="50%"
       y1="0%"
       x2="50%"
       y2="100%"
       id="linearGradient-2">
      <stop
         stop-color="#0637C5"
         offset="0%"
         id="stop11" />
      <stop
         stop-color="#002CAA"
         offset="100%"
         id="stop13" />
    </linearGradient>
    <linearGradient
       x1="50%"
       y1="0%"
       x2="50%"
       y2="100%"
       id="linearGradient-3">
      <stop
         stop-color="#3BA758"
         offset="0%"
         id="stop16" />
      <stop
         stop-color="#2C8945"
         offset="100%"
         id="stop18" />
    </linearGradient>
    <linearGradient
       x1="50%"
       y1="0%"
       x2="50%"
       y2="100%"
       id="linearGradient-4">
      <stop
         stop-color="#FFCC5D"
         offset="0%"
         id="stop21" />
      <stop
         stop-color="#FEC54A"
         offset="100%"
         id="stop23" />
    </linearGradient>
    <linearGradient
       x1="50%"
       y1="0%"
       x2="50%"
       y2="100%"
       id="linearGradient1567">
      <stop
         stop-color="#ffffff"
         offset="0%"
         id="stop66" />
      <stop
         stop-color="#f0f0f0"
         offset="100%"
         id="stop68" />
    </linearGradient>
    <linearGradient
       x1="50%"
       y1="0%"
       x2="50%"
       y2="100%"
       id="linearGradient2707">
      <stop
         stop-color="#393939"
         offset="0%"
         id="stop71" />
      <stop
         stop-color="#2d2d2d"
         offset="100%"
         id="stop73" />
    </linearGradient>
    <linearGradient
       x1="50%"
       y1="0%"
       x2="50%"
       y2="100%"
       id="linearGradient4919">
      <stop
         stop-color="#7e7e7e"
         offset="0%"
         id="stop76" />
      <stop
         stop-color="#656565"
         offset="100%"
         id="stop78" />
    </linearGradient>
    <linearGradient
       x1="50%"
       y1="0%"
       x2="50%"
       y2="100%"
       id="linearGradient7749">
      <stop
         stop-color="#cfcfcf"
         offset="0%"
         id="stop81" />
      <stop
         stop-color="#c8c8c8"
         offset="100%"
         id="stop83" />
    </linearGradient>
  </defs>
  <g
     id="Symbols"
     stroke="none"
     stroke-width="1"
     fill="none"
     fill-rule="evenodd">
    <g
       id="CX">
      <rect
         id="FlagBackground"
         fill="url(#linearGradient1567)"
         x="0"
         y="0"
         width="21"
         height="15" />
      <rect
         id="Mask-Copy"
         fill="url(#linearGradient2707)"
         x="0"
         y="0"
         width="21"
         height="15" />
      <polygon
         id="Star-2"
         fill="#ffffff"
         points="4 13 3.29289322 13.2071068 3.5 12.5 3.29289322 11.7928932 4 12 4.70710678 11.7928932 4.5 12.5 4.70710678 13.2071068" />
      <polygon
         id="polygon31"
         fill="#ffffff"
         points="4 5.5 3.29289322 5.70710678 3.5 5 3.29289322 4.29289322 4 4.5 4.70710678 4.29289322 4.5 5 4.70710678 5.70710678" />
      <polygon
         id="polygon33"
         fill="#ffffff"
         points="6 8.5 5.29289322 8.70710678 5.5 8 5.29289322 7.29289322 6 7.5 6.70710678 7.29289322 6.5 8 6.70710678 8.70710678" />
      <polygon
         id="polygon35"
         fill="#ffffff"
         points="2 9.5 1.29289322 9.70710678 1.5 9 1.29289322 8.29289322 2 8.5 2.70710678 8.29289322 2.5 9 2.70710678 9.70710678" />
      <polygon
         id="polygon37"
         fill="#ffffff"
         points="5.5 10.75 5.14644661 10.8535534 5.25 10.5 5.14644661 10.1464466 5.5 10.25 5.85355339 10.1464466 5.75 10.5 5.85355339 10.8535534" />
      <path
         d="M0,15 L8.92088689,8.62793794 C8.92088689,8.62793794 10.9032976,9.65338011 11.6608887,9.11224365 C12.4184797,8.57110719 12.007584,6.42315426 12.007584,6.42315426 L21,0 L0,0 L0,15 Z"
         id="Rectangle-2"
         fill="url(#linearGradient4919)"
         transform="translate(10.500000, 7.500000) scale(-1, 1) translate(-10.500000, -7.500000) " />
      <path
         d="M14.4608154,7.5 C14.4608154,7.5 16.8752441,7.10070801 17.1632469,5.97338867 C17.4512496,4.84606934 14.8652842,4.03911885 14.7629395,3.63378906 C14.6605947,3.22845927 15.713369,3.51604253 16.1784668,3.63378906 C16.629344,3.74793543 17.5108643,4.32946777 17.5108643,4.32946777 C17.5108643,4.32946777 17.5002035,3.52896036 17.3800049,3.15930176 C17.1780193,2.53811563 16.5443115,1.35693359 16.5443115,1.35693359 C16.5443115,1.35693359 17.6192341,2.04635707 18.0804443,2.59667969 C18.3447129,2.91200868 18.4435738,4.33495351 18.7702637,4.82263184 C19.3544946,5.69476397 20.7176961,4.72111177 20.1385498,5.64562988 C19.5594035,6.570148 18.228,6.69580008 17.1632469,7.10070801 C16.1976859,7.4678948 14.0476074,7.96191406 14.0476074,7.96191406 L14.4608154,7.5 Z"
         id="Rectangle-1235"
         fill="url(#linearGradient7749)" />
      <path
         d="M10.5,10 C9.11928813,10 8,8.88071187 8,7.5 C8,6.11928813 9.11928813,5 10.5,5 C11.8807119,5 13,6.11928813 13,7.5 C13,8.88071187 11.8807119,10 10.5,10 Z M9.25823975,7.5 L9,8 C9,8 9.83917652,7.81083448 10.1229248,8 C10.5071976,8.25618185 10.5,9 10.5,9 L11,9 C11,9 10.8364748,8.27040987 11.0932007,7.75695801 C11.3499266,7.24350614 12,7 12,7 L12,6 C12,6 11.3187548,6.72708173 10.5,7 C9.68124518,7.27291827 9,7 9,7 L9.25823975,7.5 Z"
         id="Combined-Shape"
         fill="url(#linearGradient7749)" />
    </g>
  </g>
</svg>
