<?xml version="1.0" encoding="UTF-8" standalone="no"?>
<svg
   xmlns:dc="http://purl.org/dc/elements/1.1/"
   xmlns:cc="http://creativecommons.org/ns#"
   xmlns:rdf="http://www.w3.org/1999/02/22-rdf-syntax-ns#"
   xmlns:svg="http://www.w3.org/2000/svg"
   xmlns="http://www.w3.org/2000/svg"
   xmlns:sodipodi="http://sodipodi.sourceforge.net/DTD/sodipodi-0.dtd"
   xmlns:inkscape="http://www.inkscape.org/namespaces/inkscape"
   width="21px"
   height="15px"
   viewBox="0 0 21 15"
   version="1.1"
   id="svg40"
   sodipodi:docname="DO.svg"
   inkscape:version="1.0.2-2 (e86c870879, 2021-01-15)">
  <metadata
     id="metadata44">
    <rdf:RDF>
      <cc:Work
         rdf:about="">
        <dc:format>image/svg+xml</dc:format>
        <dc:type
           rdf:resource="http://purl.org/dc/dcmitype/StillImage" />
      </cc:Work>
    </rdf:RDF>
  </metadata>
  <sodipodi:namedview
     pagecolor="#ffffff"
     bordercolor="#666666"
     borderopacity="1"
     objecttolerance="10"
     gridtolerance="10"
     guidetolerance="10"
     inkscape:pageopacity="0"
     inkscape:pageshadow="2"
     inkscape:window-width="704"
     inkscape:window-height="480"
     id="namedview42"
     showgrid="false"
     inkscape:zoom="52.761905"
     inkscape:cx="10.5"
     inkscape:cy="7.5"
     inkscape:window-x="0"
     inkscape:window-y="0"
     inkscape:window-maximized="0"
     inkscape:current-layer="svg40"
     inkscape:document-rotation="0" />
  <!-- Generator: sketchtool 46 (44423) - http://www.bohemiancoding.com/sketch -->
  <title
     id="title2">DO</title>
  <desc
     id="desc4">Created with sketchtool.</desc>
  <defs
     id="defs21">
    <linearGradient
       x1="50%"
       y1="0%"
       x2="50%"
       y2="100%"
       id="linearGradient-1">
      <stop
         stop-color="#FFFFFF"
         offset="0%"
         id="stop6" />
      <stop
         stop-color="#F0F0F0"
         offset="100%"
         id="stop8" />
    </linearGradient>
    <linearGradient
       x1="50%"
       y1="0%"
       x2="50%"
       y2="100%"
       id="linearGradient-2">
      <stop
         stop-color="#083D7A"
         offset="0%"
         id="stop11" />
      <stop
         stop-color="#032F61"
         offset="100%"
         id="stop13" />
    </linearGradient>
    <linearGradient
       x1="50%"
       y1="0%"
       x2="50%"
       y2="100%"
       id="linearGradient-3">
      <stop
         stop-color="#DF1E35"
         offset="0%"
         id="stop16" />
      <stop
         stop-color="#CC162C"
         offset="100%"
         id="stop18" />
    </linearGradient>
    <linearGradient
       x1="50%"
       y1="0%"
       x2="50%"
       y2="100%"
       id="linearGradient2691">
      <stop
         stop-color="#ffffff"
         offset="0%"
         id="stop59" />
      <stop
         stop-color="#f0f0f0"
         offset="100%"
         id="stop61" />
    </linearGradient>
    <linearGradient
       x1="50%"
       y1="0%"
       x2="50%"
       y2="100%"
       id="linearGradient8202">
      <stop
         stop-color="#343434"
         offset="0%"
         id="stop64" />
      <stop
         stop-color="#282828"
         offset="100%"
         id="stop66" />
    </linearGradient>
    <linearGradient
       x1="50%"
       y1="0%"
       x2="50%"
       y2="100%"
       id="linearGradient1983">
      <stop
         stop-color="#5a5a5a"
         offset="0%"
         id="stop69" />
      <stop
         stop-color="#4f4f4f"
         offset="100%"
         id="stop71" />
    </linearGradient>
  </defs>
  <g
     id="Symbols"
     stroke="none"
     stroke-width="1"
     fill="none"
     fill-rule="evenodd">
    <g
       id="DO">
      <rect
         id="FlagBackground"
         fill="url(#linearGradient2691)"
         x="0"
         y="0"
         width="21"
         height="15" />
      <rect
         id="Rectangle-2"
         fill="url(#linearGradient8202)"
         x="0"
         y="0"
         width="9"
         height="6" />
      <rect
         id="rect25"
         fill="url(#linearGradient8202)"
         x="12"
         y="9"
         width="9"
         height="6" />
      <rect
         id="rect27"
         fill="url(#linearGradient1983)"
         x="0"
         y="9"
         width="9"
         height="6" />
      <rect
         id="rect29"
         fill="url(#linearGradient1983)"
         x="12"
         y="0"
         width="9"
         height="6" />
      <path
         d="M9,6 L0,6 L0,9 L9,9 L9,15 L12,15 L12,9 L21,9 L21,6 L12,6 L12,0 L9,0 L9,6 Z"
         id="path31"
         fill="url(#linearGradient2691)" />
      <path
         d="M10.5,6 C9.67157288,6 9,6.67157288 9,7.5 C9,8.32842712 9.67157288,9 10.5,9 L10.5,9 C11.3284271,9 12,8.32842712 12,7.5"
         id="Oval-85"
         fill-opacity="0.2"
         fill="#5d5d5d"
         transform="translate(10.500000, 7.500000) rotate(-45.000000) translate(-10.500000, -7.500000) " />
      <circle
         id="circle34"
         fill="#282828"
         cx="10.5"
         cy="7.5"
         r="1" />
      <path
         d="M11.5606602,8.56066017 C10.9748737,9.14644661 10.0251263,9.14644661 9.43933983,8.56066017 C8.85355339,7.97487373 8.85355339,7.02512627 9.43933983,6.43933983 L9.79289322,6.79289322 C9.40236893,7.18341751 9.40236893,7.81658249 9.79289322,8.20710678 C10.1834175,8.59763107 10.8165825,8.59763107 11.2071068,8.20710678 C11.5976311,7.81658249 11.5976311,7.18341751 11.2071068,6.79289322 L11.5606602,6.43933983 C12.1464466,7.02512627 12.1464466,7.97487373 11.5606602,8.56066017 Z M11.5606602,8.56066017 C10.9748737,9.14644661 10.0251263,9.14644661 9.43933983,8.56066017 C8.85355339,7.97487373 8.85355339,7.02512627 9.43933983,6.43933983 L9.79289322,6.79289322 C9.40236893,7.18341751 9.40236893,7.81658249 9.79289322,8.20710678 C10.1834175,8.59763107 10.8165825,8.59763107 11.2071068,8.20710678 C11.5976311,7.81658249 11.5976311,7.18341751 11.2071068,6.79289322 L11.5606602,6.43933983 C12.1464466,7.02512627 12.1464466,7.97487373 11.5606602,8.56066017 Z"
         id="path36"
         fill="#474747"
         fill-rule="nonzero" />
    </g>
  </g>
</svg>
