<?xml version="1.0" encoding="UTF-8" standalone="no"?>
<svg
   xmlns:dc="http://purl.org/dc/elements/1.1/"
   xmlns:cc="http://creativecommons.org/ns#"
   xmlns:rdf="http://www.w3.org/1999/02/22-rdf-syntax-ns#"
   xmlns:svg="http://www.w3.org/2000/svg"
   xmlns="http://www.w3.org/2000/svg"
   xmlns:sodipodi="http://sodipodi.sourceforge.net/DTD/sodipodi-0.dtd"
   xmlns:inkscape="http://www.inkscape.org/namespaces/inkscape"
   width="21px"
   height="15px"
   viewBox="0 0 21 15"
   version="1.1"
   id="svg28"
   sodipodi:docname="EU.svg"
   inkscape:version="1.0.2-2 (e86c870879, 2021-01-15)">
  <metadata
     id="metadata32">
    <rdf:RDF>
      <cc:Work
         rdf:about="">
        <dc:format>image/svg+xml</dc:format>
        <dc:type
           rdf:resource="http://purl.org/dc/dcmitype/StillImage" />
      </cc:Work>
    </rdf:RDF>
  </metadata>
  <sodipodi:namedview
     pagecolor="#ffffff"
     bordercolor="#666666"
     borderopacity="1"
     objecttolerance="10"
     gridtolerance="10"
     guidetolerance="10"
     inkscape:pageopacity="0"
     inkscape:pageshadow="2"
     inkscape:window-width="704"
     inkscape:window-height="480"
     id="namedview30"
     showgrid="false"
     inkscape:zoom="52.761905"
     inkscape:cx="10.5"
     inkscape:cy="7.5"
     inkscape:window-x="0"
     inkscape:window-y="0"
     inkscape:window-maximized="0"
     inkscape:current-layer="svg28"
     inkscape:document-rotation="0" />
  <!-- Generator: sketchtool 46 (44423) - http://www.bohemiancoding.com/sketch -->
  <title
     id="title2">EU</title>
  <desc
     id="desc4">Created with sketchtool.</desc>
  <defs
     id="defs21">
    <linearGradient
       x1="50%"
       y1="0%"
       x2="50%"
       y2="100%"
       id="linearGradient-1">
      <stop
         stop-color="#FFFFFF"
         offset="0%"
         id="stop6" />
      <stop
         stop-color="#F0F0F0"
         offset="100%"
         id="stop8" />
    </linearGradient>
    <linearGradient
       x1="50%"
       y1="0%"
       x2="50%"
       y2="100%"
       id="linearGradient-2">
      <stop
         stop-color="#043CAE"
         offset="0%"
         id="stop11" />
      <stop
         stop-color="#00339A"
         offset="100%"
         id="stop13" />
    </linearGradient>
    <linearGradient
       x1="50%"
       y1="0%"
       x2="50%"
       y2="100%"
       id="linearGradient-3">
      <stop
         stop-color="#FFD429"
         offset="0%"
         id="stop16" />
      <stop
         stop-color="#FFCC00"
         offset="100%"
         id="stop18" />
    </linearGradient>
    <linearGradient
       x1="50%"
       y1="0%"
       x2="50%"
       y2="100%"
       id="linearGradient3627">
      <stop
         stop-color="#ffffff"
         offset="0%"
         id="stop47" />
      <stop
         stop-color="#f0f0f0"
         offset="100%"
         id="stop49" />
    </linearGradient>
    <linearGradient
       x1="50%"
       y1="0%"
       x2="50%"
       y2="100%"
       id="linearGradient344">
      <stop
         stop-color="#383838"
         offset="0%"
         id="stop52" />
      <stop
         stop-color="#2f2f2f"
         offset="100%"
         id="stop54" />
    </linearGradient>
    <linearGradient
       x1="50%"
       y1="0%"
       x2="50%"
       y2="100%"
       id="linearGradient9128">
      <stop
         stop-color="#cdcdcd"
         offset="0%"
         id="stop57" />
      <stop
         stop-color="#c4c4c4"
         offset="100%"
         id="stop59" />
    </linearGradient>
  </defs>
  <g
     id="Symbols"
     stroke="none"
     stroke-width="1"
     fill="none"
     fill-rule="evenodd">
    <g
       id="EU">
      <rect
         id="FlagBackground"
         fill="url(#linearGradient3627)"
         x="0"
         y="0"
         width="21"
         height="15" />
      <rect
         id="Mask-Copy"
         fill="url(#linearGradient344)"
         x="0"
         y="0"
         width="21"
         height="15" />
      <path
         d="M10.5,3 L9.79289322,3.20710678 L10,2.5 L9.79289322,1.79289322 L10.5,2 L11.2071068,1.79289322 L11,2.5 L11.2071068,3.20710678 L10.5,3 Z M10.5,13 L9.79289322,13.2071068 L10,12.5 L9.79289322,11.7928932 L10.5,12 L11.2071068,11.7928932 L11,12.5 L11.2071068,13.2071068 L10.5,13 Z M15.5,8 L14.7928932,8.20710678 L15,7.5 L14.7928932,6.79289322 L15.5,7 L16.2071068,6.79289322 L16,7.5 L16.2071068,8.20710678 L15.5,8 Z M5.5,8 L4.79289322,8.20710678 L5,7.5 L4.79289322,6.79289322 L5.5,7 L6.20710678,6.79289322 L6,7.5 L6.20710678,8.20710678 L5.5,8 Z M14.830127,5.5 L14.1230202,5.70710678 L14.330127,5 L14.1230202,4.29289322 L14.830127,4.5 L15.5372338,4.29289322 L15.330127,5 L15.5372338,5.70710678 L14.830127,5.5 Z M6.16987298,10.5 L5.4627662,10.7071068 L5.66987298,10 L5.4627662,9.29289322 L6.16987298,9.5 L6.87697976,9.29289322 L6.66987298,10 L6.87697976,10.7071068 L6.16987298,10.5 Z M13,3.66987298 L12.2928932,3.87697976 L12.5,3.16987298 L12.2928932,2.4627662 L13,2.66987298 L13.7071068,2.4627662 L13.5,3.16987298 L13.7071068,3.87697976 L13,3.66987298 Z M8,12.330127 L7.29289322,12.5372338 L7.5,11.830127 L7.29289322,11.1230202 L8,11.330127 L8.70710678,11.1230202 L8.5,11.830127 L8.70710678,12.5372338 L8,12.330127 Z M14.830127,10.5 L14.1230202,10.7071068 L14.330127,10 L14.1230202,9.29289322 L14.830127,9.5 L15.5372338,9.29289322 L15.330127,10 L15.5372338,10.7071068 L14.830127,10.5 Z M6.16987298,5.5 L5.4627662,5.70710678 L5.66987298,5 L5.4627662,4.29289322 L6.16987298,4.5 L6.87697976,4.29289322 L6.66987298,5 L6.87697976,5.70710678 L6.16987298,5.5 Z M13,12.330127 L12.2928932,12.5372338 L12.5,11.830127 L12.2928932,11.1230202 L13,11.330127 L13.7071068,11.1230202 L13.5,11.830127 L13.7071068,12.5372338 L13,12.330127 Z M8,3.66987298 L7.29289322,3.87697976 L7.5,3.16987298 L7.29289322,2.4627662 L8,2.66987298 L8.70710678,2.4627662 L8.5,3.16987298 L8.70710678,3.87697976 L8,3.66987298 Z"
         id="Star-2"
         fill="url(#linearGradient9128)" />
    </g>
  </g>
</svg>
