<?xml version="1.0" encoding="UTF-8" standalone="no"?>
<svg
   xmlns:dc="http://purl.org/dc/elements/1.1/"
   xmlns:cc="http://creativecommons.org/ns#"
   xmlns:rdf="http://www.w3.org/1999/02/22-rdf-syntax-ns#"
   xmlns:svg="http://www.w3.org/2000/svg"
   xmlns="http://www.w3.org/2000/svg"
   xmlns:xlink="http://www.w3.org/1999/xlink"
   xmlns:sodipodi="http://sodipodi.sourceforge.net/DTD/sodipodi-0.dtd"
   xmlns:inkscape="http://www.inkscape.org/namespaces/inkscape"
   width="21px"
   height="15px"
   viewBox="0 0 21 15"
   version="1.1"
   id="svg55"
   sodipodi:docname="FJ.svg"
   inkscape:version="1.0.2-2 (e86c870879, 2021-01-15)">
  <metadata
     id="metadata59">
    <rdf:RDF>
      <cc:Work
         rdf:about="">
        <dc:format>image/svg+xml</dc:format>
        <dc:type
           rdf:resource="http://purl.org/dc/dcmitype/StillImage" />
      </cc:Work>
    </rdf:RDF>
  </metadata>
  <sodipodi:namedview
     pagecolor="#ffffff"
     bordercolor="#666666"
     borderopacity="1"
     objecttolerance="10"
     gridtolerance="10"
     guidetolerance="10"
     inkscape:pageopacity="0"
     inkscape:pageshadow="2"
     inkscape:window-width="704"
     inkscape:window-height="480"
     id="namedview57"
     showgrid="false"
     inkscape:zoom="52.761905"
     inkscape:cx="10.5"
     inkscape:cy="7.5"
     inkscape:window-x="0"
     inkscape:window-y="0"
     inkscape:window-maximized="0"
     inkscape:current-layer="svg55"
     inkscape:document-rotation="0" />
  <!-- Generator: sketchtool 46 (44423) - http://www.bohemiancoding.com/sketch -->
  <title
     id="title2">FJ</title>
  <desc
     id="desc4">Created with sketchtool.</desc>
  <defs
     id="defs33">
    <linearGradient
       x1="50%"
       y1="0%"
       x2="50%"
       y2="100%"
       id="linearGradient-1">
      <stop
         stop-color="#FFFFFF"
         offset="0%"
         id="stop6" />
      <stop
         stop-color="#F0F0F0"
         offset="100%"
         id="stop8" />
    </linearGradient>
    <linearGradient
       x1="50%"
       y1="0%"
       x2="50%"
       y2="100%"
       id="linearGradient-2">
      <stop
         stop-color="#79CFF6"
         offset="0%"
         id="stop11" />
      <stop
         stop-color="#68BFE6"
         offset="100%"
         id="stop13" />
    </linearGradient>
    <linearGradient
       x1="50%"
       y1="0%"
       x2="50%"
       y2="100%"
       id="linearGradient-3">
      <stop
         stop-color="#042C90"
         offset="0%"
         id="stop16" />
      <stop
         stop-color="#00247E"
         offset="100%"
         id="stop18" />
    </linearGradient>
    <path
       d="M0,3.5 L0,0 L5,0 L5,3.5 C5,6 2.5,7 2.5,7 C2.5,7 0,6 0,3.5 Z"
       id="path-4" />
    <linearGradient
       x1="50%"
       y1="0%"
       x2="50%"
       y2="100%"
       id="linearGradient-6">
      <stop
         stop-color="#EB1D43"
         offset="0%"
         id="stop22" />
      <stop
         stop-color="#D21034"
         offset="100%"
         id="stop24" />
    </linearGradient>
    <linearGradient
       x1="50%"
       y1="0%"
       x2="50%"
       y2="100%"
       id="linearGradient-7">
      <stop
         stop-color="#DB1E36"
         offset="0%"
         id="stop27" />
      <stop
         stop-color="#D51931"
         offset="100%"
         id="stop29" />
    </linearGradient>
    <path
       d="M3.5,3 L0,0 L0.5,0 L4,2.5 L5,2.5 L9,0 L9,0.25 C9,0.388071187 8.91348267,0.561798096 8.79154062,0.648899555 L5.5,3 L5.5,4 L8.8118248,6.83870697 C8.91575109,6.92778665 8.8840332,7 8.75,7 L8.75,7 C8.61192881,7 8.41348267,6.9382019 8.29154062,6.85110044 L5,4.5 L4,4.5 L0,7 L0,6.5 L3.5,4 L3.5,3 Z"
       id="path-8" />
    <linearGradient
       x1="50%"
       y1="0%"
       x2="50%"
       y2="100%"
       id="linearGradient1813">
      <stop
         stop-color="#ffffff"
         offset="0%"
         id="stop82" />
      <stop
         stop-color="#f0f0f0"
         offset="100%"
         id="stop84" />
    </linearGradient>
    <linearGradient
       x1="50%"
       y1="0%"
       x2="50%"
       y2="100%"
       id="linearGradient2496">
      <stop
         stop-color="#bababa"
         offset="0%"
         id="stop87" />
      <stop
         stop-color="#a9a9a9"
         offset="100%"
         id="stop89" />
    </linearGradient>
    <linearGradient
       x1="50%"
       y1="0%"
       x2="50%"
       y2="100%"
       id="linearGradient814">
      <stop
         stop-color="#2b2b2b"
         offset="0%"
         id="stop92" />
      <stop
         stop-color="#232323"
         offset="100%"
         id="stop94" />
    </linearGradient>
    <linearGradient
       x1="50%"
       y1="0%"
       x2="50%"
       y2="100%"
       id="linearGradient7831">
      <stop
         stop-color="#5f5f5f"
         offset="0%"
         id="stop97" />
      <stop
         stop-color="#4e4e4e"
         offset="100%"
         id="stop99" />
    </linearGradient>
    <linearGradient
       x1="50%"
       y1="0%"
       x2="50%"
       y2="100%"
       id="linearGradient4590">
      <stop
         stop-color="#595959"
         offset="0%"
         id="stop102" />
      <stop
         stop-color="#545454"
         offset="100%"
         id="stop104" />
    </linearGradient>
  </defs>
  <g
     id="Symbols"
     stroke="none"
     stroke-width="1"
     fill="none"
     fill-rule="evenodd">
    <g
       id="FJ">
      <rect
         id="FlagBackground"
         fill="url(#linearGradient1813)"
         x="0"
         y="0"
         width="21"
         height="15" />
      <rect
         id="Mask-Copy"
         fill="url(#linearGradient2496)"
         x="0"
         y="0"
         width="21"
         height="15" />
      <rect
         id="Rectangle-1115"
         fill="url(#linearGradient814)"
         x="0"
         y="0"
         width="9"
         height="7" />
      <g
         id="Rectangle-1105"
         transform="translate(13.000000, 4.000000)">
        <mask
           id="mask-5"
           fill="white">
          <use
             xlink:href="#path-4"
             id="use38" />
        </mask>
        <use
           id="Mask"
           fill="url(#linearGradient1813)"
           xlink:href="#path-4" />
        <path
           d="M1,2.5 C0.723857625,2.5 0.5,2.27614237 0.5,2 C0.5,1.72385763 0.723857625,1.5 1,1.5 C1.27614237,1.5 1.5,1.72385763 1.5,2 C1.5,2.27614237 1.27614237,2.5 1,2.5 Z M4,2.5 C3.72385763,2.5 3.5,2.27614237 3.5,2 C3.5,1.72385763 3.72385763,1.5 4,1.5 C4.27614237,1.5 4.5,1.72385763 4.5,2 C4.5,2.27614237 4.27614237,2.5 4,2.5 Z"
           id="Oval-177"
           fill="#6c6c6c"
           mask="url(#mask-5)" />
        <polygon
           id="Rectangle-1106"
           fill="url(#linearGradient7831)"
           mask="url(#mask-5)"
           points="1.37667655e-13 0 5 0 5 1 3 1 3 3 5 3 5 4 3 4 3 7 2 7 2 4 1.37667655e-13 4 1.37667655e-13 3 2 3 2 1 1.37667655e-13 1" />
      </g>
      <g
         id="Rectangle-36">
        <use
           fill="url(#linearGradient4590)"
           fill-rule="evenodd"
           xlink:href="#path-8"
           id="use45" />
        <path
           stroke="#ffffff"
           stroke-width="0.5"
           d="M3.25,3.11498373 L-0.675814352,-0.25 L0.5,-0.25 L0.645309548,-0.203433368 L4.08011626,2.25 L4.92830094,2.25 L9.25,-0.45106191 L9.25,0.25 C9.25,0.471733776 9.12210758,0.720006202 8.93685017,0.852332923 L5.75,3.12865447 L5.75,3.88501627 L8.97452264,6.64889282 C9.25702778,6.89104008 9.11322839,7.25 8.75,7.25 C8.55691391,7.25 8.30820236,7.17022759 8.14623107,7.05453381 L4.91988374,4.75 L4.07169906,4.75 L-0.25,7.45106191 L-0.25,6.37134553 L3.25,3.87134553 L3.25,3.11498373 Z"
           id="path47" />
      </g>
      <path
         d="M0,2.5 L0,4.5 L3.5,4.5 L3.5,7.00461102 C3.5,7.2782068 3.71403503,7.5 4.00468445,7.5 L4.99531555,7.5 C5.27404508,7.5 5.5,7.2842474 5.5,7.00461102 L5.5,4.5 L9.00952148,4.5 C9.28040529,4.5 9.5,4.28596497 9.5,3.99531555 L9.5,3.00468445 C9.5,2.72595492 9.28494263,2.5 9.00952148,2.5 L5.5,2.5 L5.5,0 L3.5,0 L3.5,2.5 L0,2.5 Z"
         id="Rectangle-2"
         fill="url(#linearGradient1813)" />
      <polygon
         id="polygon51"
         fill="url(#linearGradient4590)"
         points="0 3 4 3 4 2.5 4 0 5 0 5 2.5 5 3 9 3 9 4 5 4 5 4.5 5 7 4 7 4 4.5 4 4 0 4" />
    </g>
  </g>
</svg>
