<?xml version="1.0" encoding="UTF-8" standalone="no"?>
<svg
   xmlns:dc="http://purl.org/dc/elements/1.1/"
   xmlns:cc="http://creativecommons.org/ns#"
   xmlns:rdf="http://www.w3.org/1999/02/22-rdf-syntax-ns#"
   xmlns:svg="http://www.w3.org/2000/svg"
   xmlns="http://www.w3.org/2000/svg"
   xmlns:sodipodi="http://sodipodi.sourceforge.net/DTD/sodipodi-0.dtd"
   xmlns:inkscape="http://www.inkscape.org/namespaces/inkscape"
   width="21px"
   height="15px"
   viewBox="0 0 21 15"
   version="1.1"
   id="svg23"
   sodipodi:docname="FM.svg"
   inkscape:version="1.0.2-2 (e86c870879, 2021-01-15)">
  <metadata
     id="metadata27">
    <rdf:RDF>
      <cc:Work
         rdf:about="">
        <dc:format>image/svg+xml</dc:format>
        <dc:type
           rdf:resource="http://purl.org/dc/dcmitype/StillImage" />
      </cc:Work>
    </rdf:RDF>
  </metadata>
  <sodipodi:namedview
     pagecolor="#ffffff"
     bordercolor="#666666"
     borderopacity="1"
     objecttolerance="10"
     gridtolerance="10"
     guidetolerance="10"
     inkscape:pageopacity="0"
     inkscape:pageshadow="2"
     inkscape:window-width="704"
     inkscape:window-height="480"
     id="namedview25"
     showgrid="false"
     inkscape:zoom="52.761905"
     inkscape:cx="10.5"
     inkscape:cy="7.5"
     inkscape:window-x="0"
     inkscape:window-y="0"
     inkscape:window-maximized="0"
     inkscape:current-layer="svg23"
     inkscape:document-rotation="0" />
  <!-- Generator: sketchtool 46 (44423) - http://www.bohemiancoding.com/sketch -->
  <title
     id="title2">FM</title>
  <desc
     id="desc4">Created with sketchtool.</desc>
  <defs
     id="defs16">
    <linearGradient
       x1="50%"
       y1="0%"
       x2="50%"
       y2="100%"
       id="linearGradient-1">
      <stop
         stop-color="#FFFFFF"
         offset="0%"
         id="stop6" />
      <stop
         stop-color="#F0F0F0"
         offset="100%"
         id="stop8" />
    </linearGradient>
    <linearGradient
       x1="50%"
       y1="0%"
       x2="50%"
       y2="100%"
       id="linearGradient-2">
      <stop
         stop-color="#95CEF5"
         offset="0%"
         id="stop11" />
      <stop
         stop-color="#78B3DC"
         offset="100%"
         id="stop13" />
    </linearGradient>
    <linearGradient
       x1="50%"
       y1="0%"
       x2="50%"
       y2="100%"
       id="linearGradient2021">
      <stop
         stop-color="#ffffff"
         offset="0%"
         id="stop39" />
      <stop
         stop-color="#f0f0f0"
         offset="100%"
         id="stop41" />
    </linearGradient>
    <linearGradient
       x1="50%"
       y1="0%"
       x2="50%"
       y2="100%"
       id="linearGradient3532">
      <stop
         stop-color="#c1c1c1"
         offset="0%"
         id="stop44" />
      <stop
         stop-color="#a6a6a6"
         offset="100%"
         id="stop46" />
    </linearGradient>
  </defs>
  <g
     id="Symbols"
     stroke="none"
     stroke-width="1"
     fill="none"
     fill-rule="evenodd">
    <g
       id="FM">
      <rect
         id="FlagBackground"
         fill="url(#linearGradient2021)"
         x="0"
         y="0"
         width="21"
         height="15" />
      <rect
         id="Mask-Copy"
         fill="url(#linearGradient3532)"
         x="0"
         y="0"
         width="21"
         height="15" />
      <path
         d="M10.5,4.31999999 L9.3244295,5.11803399 L9.72013366,3.75339393 L8.59788697,2.88196601 L10.0180161,2.83660607 L10.5,1.5 L10.9819839,2.83660607 L12.402113,2.88196601 L11.2798663,3.75339393 L11.6755705,5.11803399 L10.5,4.31999999 Z M10.5,12.32 L9.3244295,13.118034 L9.72013366,11.7533939 L8.59788697,10.881966 L10.0180161,10.8366061 L10.5,9.5 L10.9819839,10.8366061 L12.402113,10.881966 L11.2798663,11.7533939 L11.6755705,13.118034 L10.5,12.32 Z M14.5,8.31999999 L13.3244295,9.11803399 L13.7201337,7.75339393 L12.597887,6.88196601 L14.0180161,6.83660607 L14.5,5.5 L14.9819839,6.83660607 L16.402113,6.88196601 L15.2798663,7.75339393 L15.6755705,9.11803399 L14.5,8.31999999 Z M6.5,8.31999999 L5.3244295,9.11803399 L5.72013366,7.75339393 L4.59788697,6.88196601 L6.0180161,6.83660607 L6.5,5.5 L6.9819839,6.83660607 L8.40211303,6.88196601 L7.27986634,7.75339393 L7.6755705,9.11803399 L6.5,8.31999999 Z"
         id="Star-33"
         fill="url(#linearGradient2021)" />
    </g>
  </g>
</svg>
