<?xml version="1.0" encoding="UTF-8" standalone="no"?>
<svg
   xmlns:dc="http://purl.org/dc/elements/1.1/"
   xmlns:cc="http://creativecommons.org/ns#"
   xmlns:rdf="http://www.w3.org/1999/02/22-rdf-syntax-ns#"
   xmlns:svg="http://www.w3.org/2000/svg"
   xmlns="http://www.w3.org/2000/svg"
   xmlns:sodipodi="http://sodipodi.sourceforge.net/DTD/sodipodi-0.dtd"
   xmlns:inkscape="http://www.inkscape.org/namespaces/inkscape"
   width="21px"
   height="15px"
   viewBox="0 0 21 15"
   version="1.1"
   id="svg29"
   sodipodi:docname="GE.svg"
   inkscape:version="1.0.2-2 (e86c870879, 2021-01-15)">
  <metadata
     id="metadata33">
    <rdf:RDF>
      <cc:Work
         rdf:about="">
        <dc:format>image/svg+xml</dc:format>
        <dc:type
           rdf:resource="http://purl.org/dc/dcmitype/StillImage" />
      </cc:Work>
    </rdf:RDF>
  </metadata>
  <sodipodi:namedview
     pagecolor="#ffffff"
     bordercolor="#666666"
     borderopacity="1"
     objecttolerance="10"
     gridtolerance="10"
     guidetolerance="10"
     inkscape:pageopacity="0"
     inkscape:pageshadow="2"
     inkscape:window-width="704"
     inkscape:window-height="480"
     id="namedview31"
     showgrid="false"
     inkscape:zoom="52.761905"
     inkscape:cx="10.5"
     inkscape:cy="7.5"
     inkscape:window-x="0"
     inkscape:window-y="0"
     inkscape:window-maximized="0"
     inkscape:current-layer="svg29"
     inkscape:document-rotation="0" />
  <!-- Generator: sketchtool 46 (44423) - http://www.bohemiancoding.com/sketch -->
  <title
     id="title2">GE</title>
  <desc
     id="desc4">Created with sketchtool.</desc>
  <defs
     id="defs16">
    <linearGradient
       x1="50%"
       y1="0%"
       x2="50%"
       y2="100%"
       id="linearGradient-1">
      <stop
         stop-color="#FFFFFF"
         offset="0%"
         id="stop6" />
      <stop
         stop-color="#F0F0F0"
         offset="100%"
         id="stop8" />
    </linearGradient>
    <linearGradient
       x1="50%"
       y1="0%"
       x2="50%"
       y2="100%"
       id="linearGradient-2">
      <stop
         stop-color="#FF2B37"
         offset="0%"
         id="stop11" />
      <stop
         stop-color="#FD0D1B"
         offset="100%"
         id="stop13" />
    </linearGradient>
    <linearGradient
       x1="50%"
       y1="0%"
       x2="50%"
       y2="100%"
       id="linearGradient8969">
      <stop
         stop-color="#ffffff"
         offset="0%"
         id="stop45" />
      <stop
         stop-color="#f0f0f0"
         offset="100%"
         id="stop47" />
    </linearGradient>
    <linearGradient
       x1="50%"
       y1="0%"
       x2="50%"
       y2="100%"
       id="linearGradient3521">
      <stop
         stop-color="#6c6c6c"
         offset="0%"
         id="stop50" />
      <stop
         stop-color="#565656"
         offset="100%"
         id="stop52" />
    </linearGradient>
  </defs>
  <g
     id="Symbols"
     stroke="none"
     stroke-width="1"
     fill="none"
     fill-rule="evenodd">
    <g
       id="GE">
      <rect
         id="FlagBackground"
         fill="url(#linearGradient8969)"
         x="0"
         y="0"
         width="21"
         height="15" />
      <path
         d="M9,6 L0,6 L0,9 L9,9 L9,15 L12,15 L12,9 L21,9 L21,6 L12,6 L12,0 L9,0 L9,6 Z"
         id="Rectangle-2"
         fill="url(#linearGradient3521)" />
      <path
         d="M16.2,2.7 L16,1.5 L17,1.5 L16.8,2.7 L18,2.5 L18,3.5 L16.8,3.3 L17,4.5 L16,4.5 L16.2,3.3 L15,3.5 L15,2.5 L16.2,2.7 Z"
         id="Rectangle-742"
         fill="#565656" />
      <path
         d="M4.2,2.7 L4,1.5 L5,1.5 L4.8,2.7 L6,2.5 L6,3.5 L4.8,3.3 L5,4.5 L4,4.5 L4.2,3.3 L3,3.5 L3,2.5 L4.2,2.7 Z"
         id="path21"
         fill="#565656" />
      <path
         d="M4.2,11.7 L4,10.5 L5,10.5 L4.8,11.7 L6,11.5 L6,12.5 L4.8,12.3 L5,13.5 L4,13.5 L4.2,12.3 L3,12.5 L3,11.5 L4.2,11.7 Z"
         id="path23"
         fill="#565656" />
      <path
         d="M16.2,11.7 L16,10.5 L17,10.5 L16.8,11.7 L18,11.5 L18,12.5 L16.8,12.3 L17,13.5 L16,13.5 L16.2,12.3 L15,12.5 L15,11.5 L16.2,11.7 Z"
         id="path25"
         fill="#565656" />
    </g>
  </g>
</svg>
