<?xml version="1.0" encoding="UTF-8" standalone="no"?>
<svg
   xmlns:dc="http://purl.org/dc/elements/1.1/"
   xmlns:cc="http://creativecommons.org/ns#"
   xmlns:rdf="http://www.w3.org/1999/02/22-rdf-syntax-ns#"
   xmlns:svg="http://www.w3.org/2000/svg"
   xmlns="http://www.w3.org/2000/svg"
   xmlns:sodipodi="http://sodipodi.sourceforge.net/DTD/sodipodi-0.dtd"
   xmlns:inkscape="http://www.inkscape.org/namespaces/inkscape"
   width="21px"
   height="15px"
   viewBox="0 0 21 15"
   version="1.1"
   id="svg44"
   sodipodi:docname="GI.svg"
   inkscape:version="1.0.2-2 (e86c870879, 2021-01-15)">
  <metadata
     id="metadata48">
    <rdf:RDF>
      <cc:Work
         rdf:about="">
        <dc:format>image/svg+xml</dc:format>
        <dc:type
           rdf:resource="http://purl.org/dc/dcmitype/StillImage" />
      </cc:Work>
    </rdf:RDF>
  </metadata>
  <sodipodi:namedview
     pagecolor="#ffffff"
     bordercolor="#666666"
     borderopacity="1"
     objecttolerance="10"
     gridtolerance="10"
     guidetolerance="10"
     inkscape:pageopacity="0"
     inkscape:pageshadow="2"
     inkscape:window-width="704"
     inkscape:window-height="480"
     id="namedview46"
     showgrid="false"
     inkscape:zoom="52.761905"
     inkscape:cx="10.5"
     inkscape:cy="7.5"
     inkscape:window-x="0"
     inkscape:window-y="0"
     inkscape:window-maximized="0"
     inkscape:current-layer="svg44"
     inkscape:document-rotation="0" />
  <!-- Generator: sketchtool 46 (44423) - http://www.bohemiancoding.com/sketch -->
  <title
     id="title2">GI</title>
  <desc
     id="desc4">Created with sketchtool.</desc>
  <defs
     id="defs31">
    <linearGradient
       x1="50%"
       y1="0%"
       x2="50%"
       y2="100%"
       id="linearGradient-1">
      <stop
         stop-color="#FFFFFF"
         offset="0%"
         id="stop6" />
      <stop
         stop-color="#F0F0F0"
         offset="100%"
         id="stop8" />
    </linearGradient>
    <linearGradient
       x1="50%"
       y1="0%"
       x2="50%"
       y2="100%"
       id="linearGradient-2">
      <stop
         stop-color="#E71924"
         offset="0%"
         id="stop11" />
      <stop
         stop-color="#D6101B"
         offset="100%"
         id="stop13" />
    </linearGradient>
    <linearGradient
       x1="50%"
       y1="0%"
       x2="50%"
       y2="100%"
       id="linearGradient-3">
      <stop
         stop-color="#EA1824"
         offset="0%"
         id="stop16" />
      <stop
         stop-color="#D6101B"
         offset="100%"
         id="stop18" />
    </linearGradient>
    <linearGradient
       x1="50%"
       y1="0%"
       x2="50%"
       y2="100%"
       id="linearGradient-4">
      <stop
         stop-color="#262626"
         offset="0%"
         id="stop21" />
      <stop
         stop-color="#0D0D0D"
         offset="100%"
         id="stop23" />
    </linearGradient>
    <linearGradient
       x1="50%"
       y1="0%"
       x2="50%"
       y2="100%"
       id="linearGradient-5">
      <stop
         stop-color="#ECCE3E"
         offset="0%"
         id="stop26" />
      <stop
         stop-color="#D9BC2D"
         offset="100%"
         id="stop28" />
    </linearGradient>
    <linearGradient
       x1="50%"
       y1="0%"
       x2="50%"
       y2="100%"
       id="linearGradient5144">
      <stop
         stop-color="#ffffff"
         offset="0%"
         id="stop69" />
      <stop
         stop-color="#f0f0f0"
         offset="100%"
         id="stop71" />
    </linearGradient>
    <linearGradient
       x1="50%"
       y1="0%"
       x2="50%"
       y2="100%"
       id="linearGradient5155">
      <stop
         stop-color="#585858"
         offset="0%"
         id="stop74" />
      <stop
         stop-color="#4c4c4c"
         offset="100%"
         id="stop76" />
    </linearGradient>
    <linearGradient
       x1="50%"
       y1="0%"
       x2="50%"
       y2="100%"
       id="linearGradient1823">
      <stop
         stop-color="#585858"
         offset="0%"
         id="stop79" />
      <stop
         stop-color="#4c4c4c"
         offset="100%"
         id="stop81" />
    </linearGradient>
    <linearGradient
       x1="50%"
       y1="0%"
       x2="50%"
       y2="100%"
       id="linearGradient9032">
      <stop
         stop-color="#262626"
         offset="0%"
         id="stop84" />
      <stop
         stop-color="#0d0d0d"
         offset="100%"
         id="stop86" />
    </linearGradient>
    <linearGradient
       x1="50%"
       y1="0%"
       x2="50%"
       y2="100%"
       id="linearGradient8325">
      <stop
         stop-color="#c7c7c7"
         offset="0%"
         id="stop89" />
      <stop
         stop-color="#b4b4b4"
         offset="100%"
         id="stop91" />
    </linearGradient>
  </defs>
  <g
     id="Symbols"
     stroke="none"
     stroke-width="1"
     fill="none"
     fill-rule="evenodd">
    <g
       id="GI">
      <rect
         id="FlagBackground"
         fill="url(#linearGradient5144)"
         x="0"
         y="0"
         width="21"
         height="15" />
      <rect
         id="Rectangle-2"
         fill="url(#linearGradient5144)"
         x="0"
         y="0"
         width="21"
         height="10" />
      <rect
         id="Combined-Shape"
         fill="url(#linearGradient5155)"
         x="0"
         y="10"
         width="21"
         height="5" />
      <path
         d="M9,6 L8,6 L8,4.49047852 C8,4.21505737 7.77404508,4 7.49531555,4 L6.50468445,4 C6.21403503,4 6,4.21959471 6,4.49047852 L6,6.75476074 L6,8 L5,9 L16,9 L15,8 L15,6.75476074 L15,4.49047852 C15,4.21505737 14.7740451,4 14.4953156,4 L13.5046844,4 C13.214035,4 13,4.21959471 13,4.49047852 L13,6 L12,6 L12,3.49047852 C12,3.21505737 11.7782068,3 11.504611,3 L9.49538898,3 C9.2157526,3 9,3.21959471 9,3.49047852 L9,6 Z"
         id="path36"
         fill="url(#linearGradient1823)" />
      <path
         d="M7,8 C6.72385763,8 6.5,7.77614237 6.5,7.5 C6.5,7.22385763 6.72385763,7 7,7 C7.27614237,7 7.5,7.22385763 7.5,7.5 C7.5,7.77614237 7.27614237,8 7,8 Z M7,6 C6.72385763,6 6.5,5.77614237 6.5,5.5 C6.5,5.22385763 6.72385763,5 7,5 C7.27614237,5 7.5,5.22385763 7.5,5.5 C7.5,5.77614237 7.27614237,6 7,6 Z M10.5,8 C10.2238576,8 10,7.77614237 10,7.5 C10,7.22385763 10.2238576,7 10.5,7 C10.7761424,7 11,7.22385763 11,7.5 C11,7.77614237 10.7761424,8 10.5,8 Z M10.5,5 C10.2238576,5 10,4.77614237 10,4.5 C10,4.22385763 10.2238576,4 10.5,4 C10.7761424,4 11,4.22385763 11,4.5 C11,4.77614237 10.7761424,5 10.5,5 Z M14,8 C13.7238576,8 13.5,7.77614237 13.5,7.5 C13.5,7.22385763 13.7238576,7 14,7 C14.2761424,7 14.5,7.22385763 14.5,7.5 C14.5,7.77614237 14.2761424,8 14,8 Z M14,6 C13.7238576,6 13.5,5.77614237 13.5,5.5 C13.5,5.22385763 13.7238576,5 14,5 C14.2761424,5 14.5,5.22385763 14.5,5.5 C14.5,5.77614237 14.2761424,6 14,6 Z"
         id="path38"
         fill="url(#linearGradient9032)" />
      <path
         d="M10,9.9430981 L10,12 L9,12 L9,13 L11,13 L11,9.9430981 C11.5825962,9.80581929 12,9.43540628 12,9 C12,8.44771525 11.3284271,8 10.5,8 C9.67157288,8 9,8.44771525 9,9 C9,9.43540628 9.41740381,9.80581929 10,9.9430981 Z"
         id="path40"
         fill="url(#linearGradient8325)" />
    </g>
  </g>
</svg>
