<?xml version="1.0" encoding="UTF-8" standalone="no"?>
<svg
   xmlns:dc="http://purl.org/dc/elements/1.1/"
   xmlns:cc="http://creativecommons.org/ns#"
   xmlns:rdf="http://www.w3.org/1999/02/22-rdf-syntax-ns#"
   xmlns:svg="http://www.w3.org/2000/svg"
   xmlns="http://www.w3.org/2000/svg"
   xmlns:xlink="http://www.w3.org/1999/xlink"
   xmlns:sodipodi="http://sodipodi.sourceforge.net/DTD/sodipodi-0.dtd"
   xmlns:inkscape="http://www.inkscape.org/namespaces/inkscape"
   width="21px"
   height="15px"
   viewBox="0 0 21 15"
   version="1.1"
   id="svg49"
   sodipodi:docname="HT.svg"
   inkscape:version="1.0.2-2 (e86c870879, 2021-01-15)">
  <metadata
     id="metadata53">
    <rdf:RDF>
      <cc:Work
         rdf:about="">
        <dc:format>image/svg+xml</dc:format>
        <dc:type
           rdf:resource="http://purl.org/dc/dcmitype/StillImage" />
      </cc:Work>
    </rdf:RDF>
  </metadata>
  <sodipodi:namedview
     pagecolor="#ffffff"
     bordercolor="#666666"
     borderopacity="1"
     objecttolerance="10"
     gridtolerance="10"
     guidetolerance="10"
     inkscape:pageopacity="0"
     inkscape:pageshadow="2"
     inkscape:window-width="704"
     inkscape:window-height="480"
     id="namedview51"
     showgrid="false"
     inkscape:zoom="52.761905"
     inkscape:cx="10.5"
     inkscape:cy="7.5"
     inkscape:window-x="0"
     inkscape:window-y="0"
     inkscape:window-maximized="0"
     inkscape:current-layer="svg49"
     inkscape:document-rotation="0" />
  <!-- Generator: sketchtool 46 (44423) - http://www.bohemiancoding.com/sketch -->
  <title
     id="title2">HT</title>
  <desc
     id="desc4">Created with sketchtool.</desc>
  <defs
     id="defs24">
    <linearGradient
       x1="50%"
       y1="0%"
       x2="50%"
       y2="100%"
       id="linearGradient-1">
      <stop
         stop-color="#FFFFFF"
         offset="0%"
         id="stop6" />
      <stop
         stop-color="#F0F0F0"
         offset="100%"
         id="stop8" />
    </linearGradient>
    <linearGradient
       x1="50%"
       y1="0%"
       x2="50%"
       y2="100%"
       id="linearGradient-2">
      <stop
         stop-color="#112EBC"
         offset="0%"
         id="stop11" />
      <stop
         stop-color="#0620A0"
         offset="100%"
         id="stop13" />
    </linearGradient>
    <linearGradient
       x1="50%"
       y1="0%"
       x2="50%"
       y2="100%"
       id="linearGradient-3">
      <stop
         stop-color="#E3264A"
         offset="0%"
         id="stop16" />
      <stop
         stop-color="#D20F34"
         offset="100%"
         id="stop18" />
    </linearGradient>
    <rect
       id="path-4"
       x="0"
       y="0"
       width="7"
       height="6"
       rx="0.5" />
    <path
       d="M0,5 L1.10529494,4.44735253 C1.5994269,4.20028655 2.44266033,4 2.99895656,4 L4.00104344,4 C4.55275191,4 5.40472984,4.20236492 5.89470506,4.44735253 L7,5 L7,6 L0,6 L0,5 Z"
       id="path-6" />
    <path
       d="M1,3.0059123 C1,2.72650465 1.17979383,2.64383507 1.390625,2.8125 L3.109375,4.1875 C3.32511123,4.36008898 3.67979383,4.35616493 3.890625,4.1875 L5.609375,2.8125 C5.82511123,2.63991102 6,2.73071289 6,3.0059123 L6,4.4940877 C6,4.77349535 5.78515625,5 5.50230122,5 L1.49769878,5 C1.22282734,5 1,4.76928711 1,4.4940877 L1,3.0059123 Z"
       id="path-7" />
    <linearGradient
       x1="50%"
       y1="0%"
       x2="50%"
       y2="100%"
       id="linearGradient9502">
      <stop
         stop-color="#ffffff"
         offset="0%"
         id="stop71" />
      <stop
         stop-color="#f0f0f0"
         offset="100%"
         id="stop73" />
    </linearGradient>
    <linearGradient
       x1="50%"
       y1="0%"
       x2="50%"
       y2="100%"
       id="linearGradient3505">
      <stop
         stop-color="#363636"
         offset="0%"
         id="stop76" />
      <stop
         stop-color="#272727"
         offset="100%"
         id="stop78" />
    </linearGradient>
    <linearGradient
       x1="50%"
       y1="0%"
       x2="50%"
       y2="100%"
       id="linearGradient1088">
      <stop
         stop-color="#636363"
         offset="0%"
         id="stop81" />
      <stop
         stop-color="#4e4e4e"
         offset="100%"
         id="stop83" />
    </linearGradient>
  </defs>
  <g
     id="Symbols"
     stroke="none"
     stroke-width="1"
     fill="none"
     fill-rule="evenodd">
    <g
       id="HT">
      <rect
         id="FlagBackground"
         fill="url(#linearGradient9502)"
         x="0"
         y="0"
         width="21"
         height="15" />
      <rect
         id="Rectangle-2"
         fill="url(#linearGradient3505)"
         x="0"
         y="0"
         width="21"
         height="7" />
      <rect
         id="rect28"
         fill="url(#linearGradient1088)"
         x="0"
         y="7"
         width="21"
         height="8" />
      <g
         id="Rectangle-180"
         transform="translate(7.000000, 5.000000)">
        <mask
           id="mask-5"
           fill="white">
          <use
             xlink:href="#path-4"
             id="use30" />
        </mask>
        <use
           id="Mask"
           fill="url(#linearGradient9502)"
           xlink:href="#path-4" />
        <g
           id="Rectangle-181"
           mask="url(#mask-5)">
          <use
             fill="#b5b5b5"
             fill-rule="evenodd"
             xlink:href="#path-6"
             id="use34" />
          <path
             stroke="#525252"
             stroke-width="0.5"
             d="M0.25,5.1545085 L0.25,5.75 L6.75,5.75 L6.75,5.1545085 L5.78290166,4.67095933 C5.32616358,4.44259029 4.51229671,4.25 4.00104344,4.25 L2.99895656,4.25 C2.48310198,4.25 1.67798094,4.44051803 1.21709834,4.67095933 L0.25,5.1545085 Z"
             id="path36" />
        </g>
        <circle
           id="Oval-6"
           fill="#b8b8b8"
           mask="url(#mask-5)"
           cx="3.5"
           cy="2.5"
           r="1.5" />
        <g
           id="Rectangle-182"
           mask="url(#mask-5)">
          <use
             fill="#8b8b8b"
             fill-rule="evenodd"
             xlink:href="#path-7"
             id="use40" />
          <path
             stroke="#323232"
             stroke-width="0.5"
             d="M1.25,3.02015621 L1.25,4.4940877 C1.25,4.63389068 1.36357173,4.75 1.49769878,4.75 L5.50230122,4.75 C5.64276516,4.75 5.75,4.63977414 5.75,4.4940877 L5.75,3.02015621 L4.04679876,4.3827172 C3.74324769,4.62555806 3.25884401,4.62723142 2.95320124,4.3827172 L1.25,3.02015621 Z"
             id="path42" />
        </g>
        <path
           d="M2.17206907,1.17206907 C2.07703795,1.07703795 2.11394024,1 2.25577831,1 L4.74422169,1 C4.88548415,1 4.91935349,1.08064651 4.82793093,1.17206907 L3.67206907,2.32793093 C3.57703795,2.42296205 3.41935349,2.41935349 3.32793093,2.32793093 L2.17206907,1.17206907 Z"
           id="Rectangle-183"
           fill="#4f4f4f"
           mask="url(#mask-5)" />
      </g>
    </g>
  </g>
</svg>
