<?xml version="1.0" encoding="UTF-8" standalone="no"?>
<svg
   xmlns:dc="http://purl.org/dc/elements/1.1/"
   xmlns:cc="http://creativecommons.org/ns#"
   xmlns:rdf="http://www.w3.org/1999/02/22-rdf-syntax-ns#"
   xmlns:svg="http://www.w3.org/2000/svg"
   xmlns="http://www.w3.org/2000/svg"
   xmlns:sodipodi="http://sodipodi.sourceforge.net/DTD/sodipodi-0.dtd"
   xmlns:inkscape="http://www.inkscape.org/namespaces/inkscape"
   width="21px"
   height="15px"
   viewBox="0 0 21 15"
   version="1.1"
   id="svg34"
   sodipodi:docname="JE.svg"
   inkscape:version="1.0.2-2 (e86c870879, 2021-01-15)">
  <metadata
     id="metadata38">
    <rdf:RDF>
      <cc:Work
         rdf:about="">
        <dc:format>image/svg+xml</dc:format>
        <dc:type
           rdf:resource="http://purl.org/dc/dcmitype/StillImage" />
      </cc:Work>
    </rdf:RDF>
  </metadata>
  <sodipodi:namedview
     pagecolor="#ffffff"
     bordercolor="#666666"
     borderopacity="1"
     objecttolerance="10"
     gridtolerance="10"
     guidetolerance="10"
     inkscape:pageopacity="0"
     inkscape:pageshadow="2"
     inkscape:window-width="704"
     inkscape:window-height="480"
     id="namedview36"
     showgrid="false"
     inkscape:zoom="52.761905"
     inkscape:cx="10.5"
     inkscape:cy="7.5"
     inkscape:window-x="0"
     inkscape:window-y="0"
     inkscape:window-maximized="0"
     inkscape:current-layer="svg34"
     inkscape:document-rotation="0" />
  <!-- Generator: sketchtool 46 (44423) - http://www.bohemiancoding.com/sketch -->
  <title
     id="title2">JE</title>
  <desc
     id="desc4">Created with sketchtool.</desc>
  <defs
     id="defs26">
    <linearGradient
       x1="50%"
       y1="0%"
       x2="50%"
       y2="100%"
       id="linearGradient-1">
      <stop
         stop-color="#FFFFFF"
         offset="0%"
         id="stop6" />
      <stop
         stop-color="#F0F0F0"
         offset="100%"
         id="stop8" />
    </linearGradient>
    <linearGradient
       x1="50%"
       y1="0%"
       x2="50%"
       y2="100%"
       id="linearGradient-2">
      <stop
         stop-color="#EF273F"
         offset="0%"
         id="stop11" />
      <stop
         stop-color="#DB1C33"
         offset="100%"
         id="stop13" />
    </linearGradient>
    <linearGradient
       x1="50%"
       y1="0%"
       x2="50%"
       y2="100%"
       id="linearGradient-3">
      <stop
         stop-color="#F22A41"
         offset="0%"
         id="stop16" />
      <stop
         stop-color="#E51D34"
         offset="100%"
         id="stop18" />
    </linearGradient>
    <linearGradient
       x1="50%"
       y1="0%"
       x2="50%"
       y2="100%"
       id="linearGradient-4">
      <stop
         stop-color="#FADF46"
         offset="0%"
         id="stop21" />
      <stop
         stop-color="#F9DC38"
         offset="100%"
         id="stop23" />
    </linearGradient>
    <linearGradient
       x1="50%"
       y1="0%"
       x2="50%"
       y2="100%"
       id="linearGradient4734">
      <stop
         stop-color="#ffffff"
         offset="0%"
         id="stop56" />
      <stop
         stop-color="#f0f0f0"
         offset="100%"
         id="stop58" />
    </linearGradient>
    <linearGradient
       x1="50%"
       y1="0%"
       x2="50%"
       y2="100%"
       id="linearGradient8281">
      <stop
         stop-color="#666666"
         offset="0%"
         id="stop61" />
      <stop
         stop-color="#585858"
         offset="100%"
         id="stop63" />
    </linearGradient>
    <linearGradient
       x1="50%"
       y1="0%"
       x2="50%"
       y2="100%"
       id="linearGradient1904">
      <stop
         stop-color="#686868"
         offset="0%"
         id="stop66" />
      <stop
         stop-color="#5b5b5b"
         offset="100%"
         id="stop68" />
    </linearGradient>
    <linearGradient
       x1="50%"
       y1="0%"
       x2="50%"
       y2="100%"
       id="linearGradient5825">
      <stop
         stop-color="#d6d6d6"
         offset="0%"
         id="stop71" />
      <stop
         stop-color="#d2d2d2"
         offset="100%"
         id="stop73" />
    </linearGradient>
  </defs>
  <g
     id="Symbols"
     stroke="none"
     stroke-width="1"
     fill="none"
     fill-rule="evenodd">
    <g
       id="JE">
      <rect
         id="FlagBackground"
         fill="url(#linearGradient4734)"
         x="0"
         y="0"
         width="21"
         height="15" />
      <path
         d="M10.5002378,6.29111667 L-0.961614117,-1.44000006 L-2.07999992,0.218075088 L8.71194613,7.49733462 L-2.07999992,14.7765941 L-0.961614117,16.4346693 L10.5002378,8.70355256 L21.9620897,16.4346693 L23.0804755,14.7765941 L12.2885294,7.49733462 L23.0804755,0.218075088 L21.9620897,-1.44000006 L10.5002378,6.29111667 Z"
         id="Rectangle-2"
         fill="url(#linearGradient8281)" />
      <path
         d="M9.00023778,2.50201906 C9.00023778,2.22328954 9.21599038,1.99733462 9.49562677,1.99733462 L11.5048488,1.99733462 C11.7784446,1.99733462 12.0002378,2.21136965 12.0002378,2.50201906 L12.0002378,3.49265017 C12.0002378,3.77137969 11.8397115,4.15786089 11.6523374,4.34523501 L10.8481382,5.14943423 C10.6559981,5.34157431 10.3397115,5.33680834 10.1523374,5.14943423 L9.34813817,4.34523501 C9.15599809,4.15309493 9.00023778,3.78329958 9.00023778,3.49265017 L9.00023778,2.50201906 Z"
         id="Rectangle-1462"
         fill="url(#linearGradient1904)" />
      <path
         d="M10.5002378,3.99733462 C10.2240954,3.99733462 10.0002378,3.77347699 10.0002378,3.49733462 C10.0002378,3.22119224 10.2240954,2.99733462 10.5002378,2.99733462 C10.7763802,2.99733462 11.0002378,3.22119224 11.0002378,3.49733462 C11.0002378,3.77347699 10.7763802,3.99733462 10.5002378,3.99733462 Z M10.5002378,1.99733462 C9.67181066,1.99733462 9.00023778,1.77347699 9.00023778,1.49733462 C9.00023778,1.22119224 9.67181066,0.997334616 10.5002378,0.997334616 C11.3286649,0.997334616 12.0002378,1.22119224 12.0002378,1.49733462 C12.0002378,1.77347699 11.3286649,1.99733462 10.5002378,1.99733462 Z"
         id="Combined-Shape"
         fill="url(#linearGradient5825)" />
    </g>
  </g>
</svg>
