<?xml version="1.0" encoding="UTF-8" standalone="no"?>
<svg
   xmlns:dc="http://purl.org/dc/elements/1.1/"
   xmlns:cc="http://creativecommons.org/ns#"
   xmlns:rdf="http://www.w3.org/1999/02/22-rdf-syntax-ns#"
   xmlns:svg="http://www.w3.org/2000/svg"
   xmlns="http://www.w3.org/2000/svg"
   xmlns:sodipodi="http://sodipodi.sourceforge.net/DTD/sodipodi-0.dtd"
   xmlns:inkscape="http://www.inkscape.org/namespaces/inkscape"
   width="21px"
   height="15px"
   viewBox="0 0 21 15"
   version="1.1"
   id="svg46"
   sodipodi:docname="KM.svg"
   inkscape:version="1.0.2-2 (e86c870879, 2021-01-15)">
  <metadata
     id="metadata50">
    <rdf:RDF>
      <cc:Work
         rdf:about="">
        <dc:format>image/svg+xml</dc:format>
        <dc:type
           rdf:resource="http://purl.org/dc/dcmitype/StillImage" />
      </cc:Work>
    </rdf:RDF>
  </metadata>
  <sodipodi:namedview
     pagecolor="#ffffff"
     bordercolor="#666666"
     borderopacity="1"
     objecttolerance="10"
     gridtolerance="10"
     guidetolerance="10"
     inkscape:pageopacity="0"
     inkscape:pageshadow="2"
     inkscape:window-width="704"
     inkscape:window-height="480"
     id="namedview48"
     showgrid="false"
     inkscape:zoom="52.761905"
     inkscape:cx="10.5"
     inkscape:cy="7.5"
     inkscape:window-x="0"
     inkscape:window-y="0"
     inkscape:window-maximized="0"
     inkscape:current-layer="svg46"
     inkscape:document-rotation="0" />
  <!-- Generator: sketchtool 46 (44423) - http://www.bohemiancoding.com/sketch -->
  <title
     id="title2">KM</title>
  <desc
     id="desc4">Created with sketchtool.</desc>
  <defs
     id="defs31">
    <linearGradient
       x1="50%"
       y1="0%"
       x2="50%"
       y2="100%"
       id="linearGradient-1">
      <stop
         stop-color="#FFFFFF"
         offset="0%"
         id="stop6" />
      <stop
         stop-color="#F0F0F0"
         offset="100%"
         id="stop8" />
    </linearGradient>
    <linearGradient
       x1="50%"
       y1="0%"
       x2="50%"
       y2="100%"
       id="linearGradient-2">
      <stop
         stop-color="#FFCB49"
         offset="0%"
         id="stop11" />
      <stop
         stop-color="#FFC638"
         offset="100%"
         id="stop13" />
    </linearGradient>
    <linearGradient
       x1="50%"
       y1="0%"
       x2="50%"
       y2="100%"
       id="linearGradient-3">
      <stop
         stop-color="#DC1D34"
         offset="0%"
         id="stop16" />
      <stop
         stop-color="#CC162C"
         offset="100%"
         id="stop18" />
    </linearGradient>
    <linearGradient
       x1="50%"
       y1="0%"
       x2="50%"
       y2="100%"
       id="linearGradient-4">
      <stop
         stop-color="#4985D4"
         offset="0%"
         id="stop21" />
      <stop
         stop-color="#3D77C2"
         offset="100%"
         id="stop23" />
    </linearGradient>
    <linearGradient
       x1="50%"
       y1="0%"
       x2="50%"
       y2="100%"
       id="linearGradient-5">
      <stop
         stop-color="#4BA343"
         offset="0%"
         id="stop26" />
      <stop
         stop-color="#408D39"
         offset="100%"
         id="stop28" />
    </linearGradient>
    <linearGradient
       x1="50%"
       y1="0%"
       x2="50%"
       y2="100%"
       id="linearGradient6185">
      <stop
         stop-color="#ffffff"
         offset="0%"
         id="stop71" />
      <stop
         stop-color="#f0f0f0"
         offset="100%"
         id="stop73" />
    </linearGradient>
    <linearGradient
       x1="50%"
       y1="0%"
       x2="50%"
       y2="100%"
       id="linearGradient2724">
      <stop
         stop-color="#cccccc"
         offset="0%"
         id="stop76" />
      <stop
         stop-color="#c7c7c7"
         offset="100%"
         id="stop78" />
    </linearGradient>
    <linearGradient
       x1="50%"
       y1="0%"
       x2="50%"
       y2="100%"
       id="linearGradient7802">
      <stop
         stop-color="#595959"
         offset="0%"
         id="stop81" />
      <stop
         stop-color="#4f4f4f"
         offset="100%"
         id="stop83" />
    </linearGradient>
    <linearGradient
       x1="50%"
       y1="0%"
       x2="50%"
       y2="100%"
       id="linearGradient400">
      <stop
         stop-color="#7c7c7c"
         offset="0%"
         id="stop86" />
      <stop
         stop-color="#6e6e6e"
         offset="100%"
         id="stop88" />
    </linearGradient>
    <linearGradient
       x1="50%"
       y1="0%"
       x2="50%"
       y2="100%"
       id="linearGradient2446">
      <stop
         stop-color="#7e7e7e"
         offset="0%"
         id="stop91" />
      <stop
         stop-color="#6c6c6c"
         offset="100%"
         id="stop93" />
    </linearGradient>
  </defs>
  <g
     id="Symbols"
     stroke="none"
     stroke-width="1"
     fill="none"
     fill-rule="evenodd">
    <g
       id="KM">
      <rect
         id="FlagBackground"
         fill="url(#linearGradient6185)"
         x="0"
         y="0"
         width="21"
         height="15" />
      <rect
         id="Rectangle-2"
         fill="url(#linearGradient2724)"
         x="0"
         y="0"
         width="21"
         height="4" />
      <rect
         id="rect35"
         fill="url(#linearGradient7802)"
         x="0"
         y="7"
         width="21"
         height="4" />
      <rect
         id="rect37"
         fill="url(#linearGradient400)"
         x="0"
         y="11"
         width="21"
         height="4" />
      <rect
         id="rect39"
         fill="url(#linearGradient6185)"
         x="0"
         y="4"
         width="21"
         height="3" />
      <polygon
         id="polygon41"
         fill="url(#linearGradient2446)"
         points="0 15 10 7.5 0 0" />
      <path
         d="M4.75,4.59451311 C4.51028506,4.53281475 4.25897468,4.5 4,4.5 C2.34314575,4.5 1,5.84314575 1,7.5 C1,9.15685425 2.34314575,10.5 4,10.5 C4.25897468,10.5 4.51028506,10.4671852 4.75,10.4054869 C3.45607959,10.0724548 2.5,8.89787957 2.5,7.5 C2.5,6.10212043 3.45607959,4.92754521 4.75,4.59451311 Z M5.5,6 C5.22385763,6 5,5.77614237 5,5.5 C5,5.22385763 5.22385763,5 5.5,5 C5.77614237,5 6,5.22385763 6,5.5 C6,5.77614237 5.77614237,6 5.5,6 Z M5.5,8 C5.22385763,8 5,7.77614237 5,7.5 C5,7.22385763 5.22385763,7 5.5,7 C5.77614237,7 6,7.22385763 6,7.5 C6,7.77614237 5.77614237,8 5.5,8 Z M5.5,10 C5.22385763,10 5,9.77614237 5,9.5 C5,9.22385763 5.22385763,9 5.5,9 C5.77614237,9 6,9.22385763 6,9.5 C6,9.77614237 5.77614237,10 5.5,10 Z"
         id="Oval-12"
         fill="url(#linearGradient6185)" />
    </g>
  </g>
</svg>
