<?xml version="1.0" encoding="UTF-8" standalone="no"?>
<svg
   xmlns:dc="http://purl.org/dc/elements/1.1/"
   xmlns:cc="http://creativecommons.org/ns#"
   xmlns:rdf="http://www.w3.org/1999/02/22-rdf-syntax-ns#"
   xmlns:svg="http://www.w3.org/2000/svg"
   xmlns="http://www.w3.org/2000/svg"
   xmlns:sodipodi="http://sodipodi.sourceforge.net/DTD/sodipodi-0.dtd"
   xmlns:inkscape="http://www.inkscape.org/namespaces/inkscape"
   width="21px"
   height="15px"
   viewBox="0 0 21 15"
   version="1.1"
   id="svg30"
   sodipodi:docname="MP.svg"
   inkscape:version="1.0.2-2 (e86c870879, 2021-01-15)">
  <metadata
     id="metadata34">
    <rdf:RDF>
      <cc:Work
         rdf:about="">
        <dc:format>image/svg+xml</dc:format>
        <dc:type
           rdf:resource="http://purl.org/dc/dcmitype/StillImage" />
      </cc:Work>
    </rdf:RDF>
  </metadata>
  <sodipodi:namedview
     pagecolor="#ffffff"
     bordercolor="#666666"
     borderopacity="1"
     objecttolerance="10"
     gridtolerance="10"
     guidetolerance="10"
     inkscape:pageopacity="0"
     inkscape:pageshadow="2"
     inkscape:window-width="704"
     inkscape:window-height="480"
     id="namedview32"
     showgrid="false"
     inkscape:zoom="52.761905"
     inkscape:cx="10.5"
     inkscape:cy="7.5"
     inkscape:window-x="0"
     inkscape:window-y="0"
     inkscape:window-maximized="0"
     inkscape:current-layer="svg30"
     inkscape:document-rotation="0" />
  <!-- Generator: sketchtool 46 (44423) - http://www.bohemiancoding.com/sketch -->
  <title
     id="title2">MP</title>
  <desc
     id="desc4">Created with sketchtool.</desc>
  <defs
     id="defs21">
    <linearGradient
       x1="50%"
       y1="0%"
       x2="50%"
       y2="100%"
       id="linearGradient-1">
      <stop
         stop-color="#FFFFFF"
         offset="0%"
         id="stop6" />
      <stop
         stop-color="#F0F0F0"
         offset="100%"
         id="stop8" />
    </linearGradient>
    <linearGradient
       x1="50%"
       y1="0%"
       x2="50%"
       y2="100%"
       id="linearGradient-2">
      <stop
         stop-color="#1E8BD6"
         offset="0%"
         id="stop11" />
      <stop
         stop-color="#1074BA"
         offset="100%"
         id="stop13" />
    </linearGradient>
    <linearGradient
       x1="50%"
       y1="0%"
       x2="50%"
       y2="100%"
       id="linearGradient-3">
      <stop
         stop-color="#A9A7A9"
         offset="0%"
         id="stop16" />
      <stop
         stop-color="#8C8A8C"
         offset="100%"
         id="stop18" />
    </linearGradient>
    <linearGradient
       x1="50%"
       y1="0%"
       x2="50%"
       y2="100%"
       id="linearGradient977">
      <stop
         stop-color="#ffffff"
         offset="0%"
         id="stop49" />
      <stop
         stop-color="#f0f0f0"
         offset="100%"
         id="stop51" />
    </linearGradient>
    <linearGradient
       x1="50%"
       y1="0%"
       x2="50%"
       y2="100%"
       id="linearGradient1070">
      <stop
         stop-color="#737373"
         offset="0%"
         id="stop54" />
      <stop
         stop-color="#5e5e5e"
         offset="100%"
         id="stop56" />
    </linearGradient>
    <linearGradient
       x1="50%"
       y1="0%"
       x2="50%"
       y2="100%"
       id="linearGradient2736">
      <stop
         stop-color="#a8a8a8"
         offset="0%"
         id="stop59" />
      <stop
         stop-color="#8b8b8b"
         offset="100%"
         id="stop61" />
    </linearGradient>
  </defs>
  <g
     id="Symbols"
     stroke="none"
     stroke-width="1"
     fill="none"
     fill-rule="evenodd">
    <g
       id="MP">
      <rect
         id="FlagBackground"
         fill="url(#linearGradient977)"
         x="0"
         y="0"
         width="21"
         height="15" />
      <rect
         id="Rectangle-2"
         fill="url(#linearGradient1070)"
         x="0"
         y="0"
         width="21"
         height="15" />
      <path
         d="M10.5,12.5 C13.2614237,12.5 15.5,10.2614237 15.5,7.5 C15.5,4.73857625 13.2614237,2.5 10.5,2.5 C7.73857625,2.5 5.5,4.73857625 5.5,7.5 C5.5,10.2614237 7.73857625,12.5 10.5,12.5 L10.5,12.5 Z M10.5,11.5 C8.290861,11.5 6.5,9.709139 6.5,7.5 C6.5,5.290861 8.290861,3.5 10.5,3.5 C12.709139,3.5 14.5,5.290861 14.5,7.5 C14.5,9.709139 12.709139,11.5 10.5,11.5 L10.5,11.5 Z"
         id="Oval-228"
         fill="url(#linearGradient977)"
         fill-rule="nonzero" />
      <path
         d="M8.93768562,5.99703014 C8.9721009,5.4463856 9.44266033,5 9.99895656,5 L11.0010434,5 C11.5527519,5 12.0283148,5.45303631 12.0623144,5.99703014 L12.4376856,12.0029699 C12.4721009,12.5536144 12.0566468,13 11.4906311,13 L9.5093689,13 C8.95190985,13 8.52831477,12.5469637 8.56231438,12.0029699 L8.93768562,5.99703014 Z"
         id="Combined-Shape"
         fill="url(#linearGradient2736)" />
      <polygon
         id="Star-8"
         fill="url(#linearGradient977)"
         points="10.5 9.51500015 8.44275162 10.9815596 9.2018078 8.57180831 7.17130219 7.06844062 9.6976731 7.04569185 10.5 4.6500001 11.3023269 7.04569185 13.8286978 7.06844062 11.7981922 8.57180831 12.5572484 10.9815596" />
    </g>
  </g>
</svg>
