<?xml version="1.0" encoding="UTF-8" standalone="no"?>
<svg
   xmlns:dc="http://purl.org/dc/elements/1.1/"
   xmlns:cc="http://creativecommons.org/ns#"
   xmlns:rdf="http://www.w3.org/1999/02/22-rdf-syntax-ns#"
   xmlns:svg="http://www.w3.org/2000/svg"
   xmlns="http://www.w3.org/2000/svg"
   xmlns:xlink="http://www.w3.org/1999/xlink"
   xmlns:sodipodi="http://sodipodi.sourceforge.net/DTD/sodipodi-0.dtd"
   xmlns:inkscape="http://www.inkscape.org/namespaces/inkscape"
   width="21px"
   height="15px"
   viewBox="0 0 21 15"
   version="1.1"
   id="svg52"
   sodipodi:docname="MS.svg"
   inkscape:version="1.0.2-2 (e86c870879, 2021-01-15)">
  <metadata
     id="metadata56">
    <rdf:RDF>
      <cc:Work
         rdf:about="">
        <dc:format>image/svg+xml</dc:format>
        <dc:type
           rdf:resource="http://purl.org/dc/dcmitype/StillImage" />
      </cc:Work>
    </rdf:RDF>
  </metadata>
  <sodipodi:namedview
     pagecolor="#ffffff"
     bordercolor="#666666"
     borderopacity="1"
     objecttolerance="10"
     gridtolerance="10"
     guidetolerance="10"
     inkscape:pageopacity="0"
     inkscape:pageshadow="2"
     inkscape:window-width="704"
     inkscape:window-height="480"
     id="namedview54"
     showgrid="false"
     inkscape:zoom="52.761905"
     inkscape:cx="10.5"
     inkscape:cy="7.5"
     inkscape:window-x="0"
     inkscape:window-y="0"
     inkscape:window-maximized="0"
     inkscape:current-layer="svg52"
     inkscape:document-rotation="0" />
  <!-- Generator: sketchtool 46 (44423) - http://www.bohemiancoding.com/sketch -->
  <title
     id="title2">MS</title>
  <desc
     id="desc4">Created with sketchtool.</desc>
  <defs
     id="defs32">
    <linearGradient
       x1="50%"
       y1="0%"
       x2="50%"
       y2="100%"
       id="linearGradient-1">
      <stop
         stop-color="#FFFFFF"
         offset="0%"
         id="stop6" />
      <stop
         stop-color="#F0F0F0"
         offset="100%"
         id="stop8" />
    </linearGradient>
    <linearGradient
       x1="50%"
       y1="0%"
       x2="50%"
       y2="100%"
       id="linearGradient-2">
      <stop
         stop-color="#07319C"
         offset="0%"
         id="stop11" />
      <stop
         stop-color="#00247E"
         offset="100%"
         id="stop13" />
    </linearGradient>
    <linearGradient
       x1="50%"
       y1="0%"
       x2="50%"
       y2="100%"
       id="linearGradient-3">
      <stop
         stop-color="#DB1E36"
         offset="0%"
         id="stop16" />
      <stop
         stop-color="#D51931"
         offset="100%"
         id="stop18" />
    </linearGradient>
    <linearGradient
       x1="50%"
       y1="0%"
       x2="50%"
       y2="100%"
       id="linearGradient-4">
      <stop
         stop-color="#08B9D6"
         offset="0%"
         id="stop21" />
      <stop
         stop-color="#00A3BE"
         offset="100%"
         id="stop23" />
    </linearGradient>
    <path
       d="M0,3.5 L2.57831658e-17,0.999341965 C1.15435165e-17,0.447420638 0.443716645,0 0.999807492,0 L4.00019251,0 C4.55237094,0 5,0.440959692 5,0.999341965 L5,3.5 C5,6 2.5,7 2.5,7 C2.5,7 0,6 0,3.5 Z"
       id="path-5" />
    <linearGradient
       x1="50%"
       y1="0%"
       x2="50%"
       y2="100%"
       id="linearGradient-7">
      <stop
         stop-color="#262626"
         offset="0%"
         id="stop27" />
      <stop
         stop-color="#0D0D0D"
         offset="100%"
         id="stop29" />
    </linearGradient>
    <linearGradient
       x1="50%"
       y1="0%"
       x2="50%"
       y2="100%"
       id="linearGradient2749">
      <stop
         stop-color="#ffffff"
         offset="0%"
         id="stop78" />
      <stop
         stop-color="#f0f0f0"
         offset="100%"
         id="stop80" />
    </linearGradient>
    <linearGradient
       x1="50%"
       y1="0%"
       x2="50%"
       y2="100%"
       id="linearGradient1001">
      <stop
         stop-color="#313131"
         offset="0%"
         id="stop83" />
      <stop
         stop-color="#232323"
         offset="100%"
         id="stop85" />
    </linearGradient>
    <linearGradient
       x1="50%"
       y1="0%"
       x2="50%"
       y2="100%"
       id="linearGradient9880">
      <stop
         stop-color="#595959"
         offset="0%"
         id="stop88" />
      <stop
         stop-color="#545454"
         offset="100%"
         id="stop90" />
    </linearGradient>
    <linearGradient
       x1="50%"
       y1="0%"
       x2="50%"
       y2="100%"
       id="linearGradient3434">
      <stop
         stop-color="#878787"
         offset="0%"
         id="stop93" />
      <stop
         stop-color="#757575"
         offset="100%"
         id="stop95" />
    </linearGradient>
    <linearGradient
       x1="50%"
       y1="0%"
       x2="50%"
       y2="100%"
       id="linearGradient7264">
      <stop
         stop-color="#262626"
         offset="0%"
         id="stop98" />
      <stop
         stop-color="#0d0d0d"
         offset="100%"
         id="stop100" />
    </linearGradient>
  </defs>
  <g
     id="Symbols"
     stroke="none"
     stroke-width="1"
     fill="none"
     fill-rule="evenodd">
    <g
       id="MS">
      <rect
         id="FlagBackground"
         fill="url(#linearGradient2749)"
         x="0"
         y="0"
         width="21"
         height="15" />
      <rect
         id="Mask-Copy"
         fill="url(#linearGradient1001)"
         x="0"
         y="0"
         width="21"
         height="15" />
      <path
         d="M3,3.22996746 L-1.3516287,-0.5 L0.660232527,-0.5 L4.16023253,2 L4.85660189,2 L9.5,-0.902123821 L9.5,0.25 C9.5,0.552509227 9.33308555,0.876533554 9.08215972,1.05576629 L6,3.25730895 L6,3.77003254 L9.13722049,6.45907867 C9.59934261,6.85518335 9.34102897,7.5 8.75,7.5 C8.50478614,7.5 8.2052751,7.40393402 8.00092153,7.25796718 L4.83976747,5 L4.14339811,5 L-0.5,7.90212382 L-0.5,6.24269105 L3,3.74269105 L3,3.22996746 Z"
         id="Rectangle-36"
         fill="url(#linearGradient2749)"
         fill-rule="nonzero" />
      <path
         d="M3.5,3 L-4.4408921e-16,-2.13162821e-14 L0.5,-2.13162821e-14 L4,2.5 L5,2.5 L9,-2.13162821e-14 L9,0.25 C9,0.388071187 8.91348267,0.561798096 8.79154062,0.648899555 L5.5,3 L5.5,4 L8.8118248,6.83870697 C8.91575109,6.92778665 8.8840332,7 8.75,7 L8.75,7 C8.61192881,7 8.41348267,6.9382019 8.29154062,6.85110044 L5,4.5 L4,4.5 L-4.4408921e-16,7 L-4.4408921e-16,6.5 L3.5,4 L3.5,3 Z"
         id="path37"
         fill="url(#linearGradient9880)" />
      <path
         d="M-4.4408921e-16,2.5 L-4.4408921e-16,4.5 L3.5,4.5 L3.5,7.00461102 C3.5,7.2782068 3.71403503,7.5 4.00468445,7.5 L4.99531555,7.5 C5.27404508,7.5 5.5,7.2842474 5.5,7.00461102 L5.5,4.5 L9.00952148,4.5 C9.28040529,4.5 9.5,4.28596497 9.5,3.99531555 L9.5,3.00468445 C9.5,2.72595492 9.28494263,2.5 9.00952148,2.5 L5.5,2.5 L5.5,-2.13162821e-14 L3.5,-2.13162821e-14 L3.5,2.5 L-4.4408921e-16,2.5 Z"
         id="Rectangle-2"
         fill="url(#linearGradient2749)" />
      <polygon
         id="polygon40"
         fill="url(#linearGradient9880)"
         points="-4.4408921e-16 3 4 3 4 2.5 4 -2.13162821e-14 5 -2.13162821e-14 5 2.5 5 3 9 3 9 4 5 4 5 4.5 5 7 4 7 4 4.5 4 4 -4.4408921e-16 4" />
      <g
         id="Rectangle-1105"
         transform="translate(13.000000, 4.000000)">
        <mask
           id="mask-6"
           fill="white">
          <use
             xlink:href="#path-5"
             id="use42" />
        </mask>
        <use
           id="Combined-Shape"
           fill="url(#linearGradient3434)"
           xlink:href="#path-5" />
        <polygon
           id="Rectangle-1106"
           fill="#565656"
           mask="url(#mask-6)"
           points="1.37667655e-13 5 5 5 5 7 3 7 2 7 1.61648472e-13 7" />
        <path
           d="M3,2 L3,1 L2,1 L2,2 L1,2 L1,3 L2,3 L2,5 L3,5 L3,3 L4,3 L4,2 L3,2 Z"
           id="path47"
           fill="url(#linearGradient7264)"
           mask="url(#mask-6)" />
      </g>
    </g>
  </g>
</svg>
