<?xml version="1.0" encoding="UTF-8" standalone="no"?>
<svg
   xmlns:dc="http://purl.org/dc/elements/1.1/"
   xmlns:cc="http://creativecommons.org/ns#"
   xmlns:rdf="http://www.w3.org/1999/02/22-rdf-syntax-ns#"
   xmlns:svg="http://www.w3.org/2000/svg"
   xmlns="http://www.w3.org/2000/svg"
   xmlns:sodipodi="http://sodipodi.sourceforge.net/DTD/sodipodi-0.dtd"
   xmlns:inkscape="http://www.inkscape.org/namespaces/inkscape"
   width="21px"
   height="15px"
   viewBox="0 0 21 15"
   version="1.1"
   id="svg48"
   sodipodi:docname="NC.svg"
   inkscape:version="1.0.2-2 (e86c870879, 2021-01-15)">
  <metadata
     id="metadata52">
    <rdf:RDF>
      <cc:Work
         rdf:about="">
        <dc:format>image/svg+xml</dc:format>
        <dc:type
           rdf:resource="http://purl.org/dc/dcmitype/StillImage" />
      </cc:Work>
    </rdf:RDF>
  </metadata>
  <sodipodi:namedview
     pagecolor="#ffffff"
     bordercolor="#666666"
     borderopacity="1"
     objecttolerance="10"
     gridtolerance="10"
     guidetolerance="10"
     inkscape:pageopacity="0"
     inkscape:pageshadow="2"
     inkscape:window-width="704"
     inkscape:window-height="480"
     id="namedview50"
     showgrid="false"
     inkscape:zoom="52.761905"
     inkscape:cx="10.5"
     inkscape:cy="7.5"
     inkscape:window-x="0"
     inkscape:window-y="0"
     inkscape:window-maximized="0"
     inkscape:current-layer="svg48"
     inkscape:document-rotation="0" />
  <!-- Generator: sketchtool 46 (44423) - http://www.bohemiancoding.com/sketch -->
  <title
     id="title2">NC</title>
  <desc
     id="desc4">Created with sketchtool.</desc>
  <defs
     id="defs36">
    <linearGradient
       x1="50%"
       y1="0%"
       x2="50%"
       y2="100%"
       id="linearGradient-1">
      <stop
         stop-color="#FFFFFF"
         offset="0%"
         id="stop6" />
      <stop
         stop-color="#F0F0F0"
         offset="100%"
         id="stop8" />
    </linearGradient>
    <linearGradient
       x1="50%"
       y1="0%"
       x2="50%"
       y2="100%"
       id="linearGradient-2">
      <stop
         stop-color="#094CC7"
         offset="0%"
         id="stop11" />
      <stop
         stop-color="#003CAB"
         offset="100%"
         id="stop13" />
    </linearGradient>
    <linearGradient
       x1="50%"
       y1="0%"
       x2="50%"
       y2="100%"
       id="linearGradient-3">
      <stop
         stop-color="#2AAD55"
         offset="0%"
         id="stop16" />
      <stop
         stop-color="#219447"
         offset="100%"
         id="stop18" />
    </linearGradient>
    <linearGradient
       x1="50%"
       y1="0%"
       x2="50%"
       y2="100%"
       id="linearGradient-4">
      <stop
         stop-color="#F65D55"
         offset="0%"
         id="stop21" />
      <stop
         stop-color="#E9443C"
         offset="100%"
         id="stop23" />
    </linearGradient>
    <linearGradient
       x1="50%"
       y1="0%"
       x2="50%"
       y2="100%"
       id="linearGradient-5">
      <stop
         stop-color="#FAE749"
         offset="0%"
         id="stop26" />
      <stop
         stop-color="#FBE533"
         offset="100%"
         id="stop28" />
    </linearGradient>
    <linearGradient
       x1="50%"
       y1="0%"
       x2="50%"
       y2="100%"
       id="linearGradient-6">
      <stop
         stop-color="#262626"
         offset="0%"
         id="stop31" />
      <stop
         stop-color="#0D0D0D"
         offset="100%"
         id="stop33" />
    </linearGradient>
    <linearGradient
       x1="50%"
       y1="0%"
       x2="50%"
       y2="100%"
       id="linearGradient6300">
      <stop
         stop-color="#ffffff"
         offset="0%"
         id="stop76" />
      <stop
         stop-color="#f0f0f0"
         offset="100%"
         id="stop78" />
    </linearGradient>
    <linearGradient
       x1="50%"
       y1="0%"
       x2="50%"
       y2="100%"
       id="linearGradient381">
      <stop
         stop-color="#464646"
         offset="0%"
         id="stop81" />
      <stop
         stop-color="#373737"
         offset="100%"
         id="stop83" />
    </linearGradient>
    <linearGradient
       x1="50%"
       y1="0%"
       x2="50%"
       y2="100%"
       id="linearGradient9199">
      <stop
         stop-color="#7c7c7c"
         offset="0%"
         id="stop86" />
      <stop
         stop-color="#696969"
         offset="100%"
         id="stop88" />
    </linearGradient>
    <linearGradient
       x1="50%"
       y1="0%"
       x2="50%"
       y2="100%"
       id="linearGradient4345">
      <stop
         stop-color="#8a8a8a"
         offset="0%"
         id="stop91" />
      <stop
         stop-color="#747474"
         offset="100%"
         id="stop93" />
    </linearGradient>
    <linearGradient
       x1="50%"
       y1="0%"
       x2="50%"
       y2="100%"
       id="linearGradient3590">
      <stop
         stop-color="#dbdbdb"
         offset="0%"
         id="stop96" />
      <stop
         stop-color="#d7d7d7"
         offset="100%"
         id="stop98" />
    </linearGradient>
    <linearGradient
       x1="50%"
       y1="0%"
       x2="50%"
       y2="100%"
       id="linearGradient8542">
      <stop
         stop-color="#262626"
         offset="0%"
         id="stop101" />
      <stop
         stop-color="#0d0d0d"
         offset="100%"
         id="stop103" />
    </linearGradient>
  </defs>
  <g
     id="Symbols"
     stroke="none"
     stroke-width="1"
     fill="none"
     fill-rule="evenodd">
    <g
       id="NC">
      <rect
         id="FlagBackground"
         fill="url(#linearGradient6300)"
         x="0"
         y="0"
         width="21"
         height="15" />
      <rect
         id="Rectangle-2"
         fill="url(#linearGradient381)"
         x="0"
         y="0"
         width="21"
         height="5" />
      <rect
         id="rect40"
         fill="url(#linearGradient9199)"
         x="0"
         y="10"
         width="21"
         height="5" />
      <rect
         id="rect42"
         fill="url(#linearGradient4345)"
         x="0"
         y="5"
         width="21"
         height="5" />
      <circle
         id="Oval-95"
         fill="url(#linearGradient3590)"
         cx="10.5"
         cy="7.5"
         r="3.5" />
      <path
         d="M10.0917899,6.21120062 C10.0339787,6.29276685 10,6.39241536 10,6.5 C10,6.77614237 10.2238576,7 10.5,7 C10.7761424,7 11,6.77614237 11,6.5 C11,6.26021849 10.8312137,6.05985912 10.6059713,6.01125212 C10.6538139,5.98687284 10.7019029,5.9607816 10.75,5.9330127 C11.3478658,5.58783473 11.7206029,5.11414631 11.5825318,4.875 C11.4444606,4.63585369 10.8478658,4.72180933 10.25,5.0669873 C9.65213422,5.41216527 9.27939706,5.88585369 9.41746825,6.125 C9.50287427,6.27292757 9.7637219,6.29646371 10.0917899,6.21120062 L10.0917899,6.21120062 Z M10.5,10.5 C9.67157288,10.5 9.5,9.77614237 9.5,9.5 C9.5,9.22385763 9.67157288,9 10.5,9 C11.3284271,9 11.5,9.22385763 11.5,9.5 C11.5,9.77614237 11.3284271,10.5 10.5,10.5 Z M10.5,9 C10.2238576,9 10,8.77614237 10,8.5 C10,8.22385763 10.2238576,8 10.5,8 C10.7761424,8 11,8.22385763 11,8.5 C11,8.77614237 10.7761424,9 10.5,9 Z M10.5,8 C10.2238576,8 10,7.77614237 10,7.5 C10,7.22385763 10.2238576,7 10.5,7 C10.7761424,7 11,7.22385763 11,7.5 C11,7.77614237 10.7761424,8 10.5,8 Z"
         id="Combined-Shape"
         fill="url(#linearGradient8542)" />
    </g>
  </g>
</svg>
