<?xml version="1.0" encoding="UTF-8" standalone="no"?>
<svg
   xmlns:dc="http://purl.org/dc/elements/1.1/"
   xmlns:cc="http://creativecommons.org/ns#"
   xmlns:rdf="http://www.w3.org/1999/02/22-rdf-syntax-ns#"
   xmlns:svg="http://www.w3.org/2000/svg"
   xmlns="http://www.w3.org/2000/svg"
   xmlns:xlink="http://www.w3.org/1999/xlink"
   xmlns:sodipodi="http://sodipodi.sourceforge.net/DTD/sodipodi-0.dtd"
   xmlns:inkscape="http://www.inkscape.org/namespaces/inkscape"
   width="21px"
   height="15px"
   viewBox="0 0 21 15"
   version="1.1"
   id="svg59"
   sodipodi:docname="SH.svg"
   inkscape:version="1.0.2-2 (e86c870879, 2021-01-15)">
  <metadata
     id="metadata63">
    <rdf:RDF>
      <cc:Work
         rdf:about="">
        <dc:format>image/svg+xml</dc:format>
        <dc:type
           rdf:resource="http://purl.org/dc/dcmitype/StillImage" />
      </cc:Work>
    </rdf:RDF>
  </metadata>
  <sodipodi:namedview
     pagecolor="#ffffff"
     bordercolor="#666666"
     borderopacity="1"
     objecttolerance="10"
     gridtolerance="10"
     guidetolerance="10"
     inkscape:pageopacity="0"
     inkscape:pageshadow="2"
     inkscape:window-width="704"
     inkscape:window-height="480"
     id="namedview61"
     showgrid="false"
     inkscape:zoom="52.761905"
     inkscape:cx="10.5"
     inkscape:cy="7.5"
     inkscape:window-x="0"
     inkscape:window-y="0"
     inkscape:window-maximized="0"
     inkscape:current-layer="svg59"
     inkscape:document-rotation="0" />
  <!-- Generator: sketchtool 46.2 (44496) - http://www.bohemiancoding.com/sketch -->
  <title
     id="title2">SH</title>
  <desc
     id="desc4">Created with sketchtool.</desc>
  <defs
     id="defs37">
    <linearGradient
       x1="50%"
       y1="0%"
       x2="50%"
       y2="100%"
       id="linearGradient-1">
      <stop
         stop-color="#FFFFFF"
         offset="0%"
         id="stop6" />
      <stop
         stop-color="#F0F0F0"
         offset="100%"
         id="stop8" />
    </linearGradient>
    <linearGradient
       x1="50%"
       y1="0%"
       x2="50%"
       y2="100%"
       id="linearGradient-2">
      <stop
         stop-color="#07319C"
         offset="0%"
         id="stop11" />
      <stop
         stop-color="#00247E"
         offset="100%"
         id="stop13" />
    </linearGradient>
    <linearGradient
       x1="50%"
       y1="0%"
       x2="50%"
       y2="100%"
       id="linearGradient-3">
      <stop
         stop-color="#A7D2FF"
         offset="0%"
         id="stop16" />
      <stop
         stop-color="#91C6FD"
         offset="100%"
         id="stop18" />
    </linearGradient>
    <path
       d="M0,3.5 L1.54164674e-17,0.509643555 C6.90218757e-18,0.228175192 0.21484375,0 0.497698784,0 L4.50230122,0 C4.77717266,0 5,0.226606369 5,0.509643555 L5,3.5 C5,5.5 2.5,6 2.5,6 C2.5,6 0,5.5 0,3.5 Z"
       id="path-4" />
    <linearGradient
       x1="50%"
       y1="0%"
       x2="50%"
       y2="100%"
       id="linearGradient-6">
      <stop
         stop-color="#EE7B2D"
         offset="0%"
         id="stop22" />
      <stop
         stop-color="#CC621A"
         offset="100%"
         id="stop24" />
    </linearGradient>
    <linearGradient
       x1="50%"
       y1="0%"
       x2="50%"
       y2="100%"
       id="linearGradient-7">
      <stop
         stop-color="#FFFC4B"
         offset="0%"
         id="stop27" />
      <stop
         stop-color="#FFFC38"
         offset="100%"
         id="stop29" />
    </linearGradient>
    <linearGradient
       x1="50%"
       y1="0%"
       x2="50%"
       y2="100%"
       id="linearGradient-8">
      <stop
         stop-color="#DB1E36"
         offset="0%"
         id="stop32" />
      <stop
         stop-color="#D51931"
         offset="100%"
         id="stop34" />
    </linearGradient>
    <linearGradient
       x1="50%"
       y1="0%"
       x2="50%"
       y2="100%"
       id="linearGradient5286">
      <stop
         stop-color="#ffffff"
         offset="0%"
         id="stop88" />
      <stop
         stop-color="#f0f0f0"
         offset="100%"
         id="stop90" />
    </linearGradient>
    <linearGradient
       x1="50%"
       y1="0%"
       x2="50%"
       y2="100%"
       id="linearGradient8205">
      <stop
         stop-color="#313131"
         offset="0%"
         id="stop93" />
      <stop
         stop-color="#232323"
         offset="100%"
         id="stop95" />
    </linearGradient>
    <linearGradient
       x1="50%"
       y1="0%"
       x2="50%"
       y2="100%"
       id="linearGradient6882">
      <stop
         stop-color="#cacaca"
         offset="0%"
         id="stop98" />
      <stop
         stop-color="#bcbcbc"
         offset="100%"
         id="stop100" />
    </linearGradient>
    <linearGradient
       x1="50%"
       y1="0%"
       x2="50%"
       y2="100%"
       id="linearGradient3519">
      <stop
         stop-color="#949494"
         offset="0%"
         id="stop103" />
      <stop
         stop-color="#797979"
         offset="100%"
         id="stop105" />
    </linearGradient>
    <linearGradient
       x1="50%"
       y1="0%"
       x2="50%"
       y2="100%"
       id="linearGradient1868">
      <stop
         stop-color="#e9e9e9"
         offset="0%"
         id="stop108" />
      <stop
         stop-color="#e7e7e7"
         offset="100%"
         id="stop110" />
    </linearGradient>
    <linearGradient
       x1="50%"
       y1="0%"
       x2="50%"
       y2="100%"
       id="linearGradient8905">
      <stop
         stop-color="#595959"
         offset="0%"
         id="stop113" />
      <stop
         stop-color="#545454"
         offset="100%"
         id="stop115" />
    </linearGradient>
  </defs>
  <g
     id="Symbols"
     stroke="none"
     stroke-width="1"
     fill="none"
     fill-rule="evenodd">
    <g
       id="SH">
      <rect
         id="FlagBackground"
         fill="url(#linearGradient5286)"
         x="0"
         y="0"
         width="21"
         height="15" />
      <rect
         id="Mask-Copy"
         fill="url(#linearGradient8205)"
         x="0"
         y="0"
         width="21"
         height="15" />
      <g
         id="Rectangle-1105"
         transform="translate(13.000000, 6.000000)">
        <mask
           id="mask-5"
           fill="white">
          <use
             xlink:href="#path-4"
             id="use41" />
        </mask>
        <use
           id="Combined-Shape"
           fill="url(#linearGradient6882)"
           xlink:href="#path-4" />
        <path
           d="M0.5,6.5 C1.32842712,6.5 1.5,5.1045695 1.5,4 C1.5,2.8954305 1.32842712,2.5 0.5,2.5 C-0.328427125,2.5 -1,2.8954305 -1,4 C-1,5.1045695 -0.328427125,6.5 0.5,6.5 Z"
           id="Oval"
           fill="url(#linearGradient3519)"
           mask="url(#mask-5)" />
        <ellipse
           id="Oval-2"
           fill="#646464"
           mask="url(#mask-5)"
           cx="2.5"
           cy="4.5"
           rx="1.5"
           ry="1" />
        <ellipse
           id="ellipse47"
           fill="#ffffff"
           mask="url(#mask-5)"
           cx="2.5"
           cy="3.5"
           rx="1"
           ry="1" />
        <rect
           id="Rectangle"
           fill="url(#linearGradient1868)"
           mask="url(#mask-5)"
           x="0"
           y="0"
           width="5"
           height="2" />
      </g>
      <path
         d="M3,3.22996746 L-1.3516287,-0.5 L0.660232527,-0.5 L4.16023253,2 L4.85660189,2 L9.5,-0.902123821 L9.5,0.25 C9.5,0.552509227 9.33308555,0.876533554 9.08215972,1.05576629 L6,3.25730895 L6,3.77003254 L9.13722049,6.45907867 C9.59934261,6.85518335 9.34102897,7.5 8.75,7.5 C8.50478614,7.5 8.2052751,7.40393402 8.00092153,7.25796718 L4.83976747,5 L4.14339811,5 L-0.5,7.90212382 L-0.5,6.24269105 L3,3.74269105 L3,3.22996746 Z"
         id="Rectangle-36"
         fill="url(#linearGradient5286)"
         fill-rule="nonzero" />
      <path
         d="M3.5,3 L-4.4408921e-16,0 L0.5,0 L4,2.5 L5,2.5 L9,0 L9,0.25 C9,0.388071187 8.91348267,0.561798096 8.79154062,0.648899555 L5.5,3 L5.5,4 L8.8118248,6.83870697 C8.91575109,6.92778665 8.8840332,7 8.75,7 L8.75,7 C8.61192881,7 8.41348267,6.9382019 8.29154062,6.85110044 L5,4.5 L4,4.5 L-4.4408921e-16,7 L-4.4408921e-16,6.5 L3.5,4 L3.5,3 Z"
         id="path52"
         fill="url(#linearGradient8905)" />
      <path
         d="M-4.4408921e-16,2.5 L-4.4408921e-16,4.5 L3.5,4.5 L3.5,7.00461102 C3.5,7.2782068 3.71403503,7.5 4.00468445,7.5 L4.99531555,7.5 C5.27404508,7.5 5.5,7.2842474 5.5,7.00461102 L5.5,4.5 L9.00952148,4.5 C9.28040529,4.5 9.5,4.28596497 9.5,3.99531555 L9.5,3.00468445 C9.5,2.72595492 9.28494263,2.5 9.00952148,2.5 L5.5,2.5 L5.5,0 L3.5,0 L3.5,2.5 L-4.4408921e-16,2.5 Z"
         id="Rectangle-2"
         fill="url(#linearGradient5286)" />
      <polygon
         id="polygon55"
         fill="url(#linearGradient8905)"
         points="-4.4408921e-16 3 4 3 4 2.5 4 0 5 0 5 2.5 5 3 9 3 9 4 5 4 5 4.5 5 7 4 7 4 4.5 4 4 -4.4408921e-16 4" />
    </g>
  </g>
</svg>
