<?xml version="1.0" encoding="UTF-8" standalone="no"?>
<svg
   xmlns:dc="http://purl.org/dc/elements/1.1/"
   xmlns:cc="http://creativecommons.org/ns#"
   xmlns:rdf="http://www.w3.org/1999/02/22-rdf-syntax-ns#"
   xmlns:svg="http://www.w3.org/2000/svg"
   xmlns="http://www.w3.org/2000/svg"
   xmlns:sodipodi="http://sodipodi.sourceforge.net/DTD/sodipodi-0.dtd"
   xmlns:inkscape="http://www.inkscape.org/namespaces/inkscape"
   width="21px"
   height="15px"
   viewBox="0 0 21 15"
   version="1.1"
   id="svg27"
   sodipodi:docname="SM.svg"
   inkscape:version="1.0.2-2 (e86c870879, 2021-01-15)">
  <metadata
     id="metadata31">
    <rdf:RDF>
      <cc:Work
         rdf:about="">
        <dc:format>image/svg+xml</dc:format>
        <dc:type
           rdf:resource="http://purl.org/dc/dcmitype/StillImage" />
      </cc:Work>
    </rdf:RDF>
  </metadata>
  <sodipodi:namedview
     pagecolor="#ffffff"
     bordercolor="#666666"
     borderopacity="1"
     objecttolerance="10"
     gridtolerance="10"
     guidetolerance="10"
     inkscape:pageopacity="0"
     inkscape:pageshadow="2"
     inkscape:window-width="704"
     inkscape:window-height="480"
     id="namedview29"
     showgrid="false"
     inkscape:zoom="52.761905"
     inkscape:cx="10.5"
     inkscape:cy="7.5"
     inkscape:window-x="0"
     inkscape:window-y="0"
     inkscape:window-maximized="0"
     inkscape:current-layer="svg27"
     inkscape:document-rotation="0" />
  <!-- Generator: sketchtool 46 (44423) - http://www.bohemiancoding.com/sketch -->
  <title
     id="title2">SM</title>
  <desc
     id="desc4">Created with sketchtool.</desc>
  <defs
     id="defs16">
    <linearGradient
       x1="50%"
       y1="0%"
       x2="50%"
       y2="100%"
       id="linearGradient-1">
      <stop
         stop-color="#FFFFFF"
         offset="0%"
         id="stop6" />
      <stop
         stop-color="#F0F0F0"
         offset="100%"
         id="stop8" />
    </linearGradient>
    <linearGradient
       x1="50%"
       y1="0%"
       x2="50%"
       y2="100%"
       id="linearGradient-2">
      <stop
         stop-color="#7CCCF5"
         offset="0%"
         id="stop11" />
      <stop
         stop-color="#62B7E3"
         offset="100%"
         id="stop13" />
    </linearGradient>
    <linearGradient
       x1="50%"
       y1="0%"
       x2="50%"
       y2="100%"
       id="linearGradient8616">
      <stop
         stop-color="#ffffff"
         offset="0%"
         id="stop43" />
      <stop
         stop-color="#f0f0f0"
         offset="100%"
         id="stop45" />
    </linearGradient>
    <linearGradient
       x1="50%"
       y1="0%"
       x2="50%"
       y2="100%"
       id="linearGradient2712">
      <stop
         stop-color="#b9b9b9"
         offset="0%"
         id="stop48" />
      <stop
         stop-color="#a3a3a3"
         offset="100%"
         id="stop50" />
    </linearGradient>
  </defs>
  <g
     id="Symbols"
     stroke="none"
     stroke-width="1"
     fill="none"
     fill-rule="evenodd">
    <g
       id="SM">
      <rect
         id="FlagBackground"
         fill="url(#linearGradient8616)"
         x="0"
         y="0"
         width="21"
         height="15" />
      <rect
         id="Rectangle-2"
         fill="url(#linearGradient2712)"
         x="0"
         y="7"
         width="21"
         height="8" />
      <rect
         id="rect20"
         fill="url(#linearGradient8616)"
         x="0"
         y="0"
         width="21"
         height="7" />
      <path
         d="M8,7 C8,7.90143048 8.48152018,8.71954992 9.24677273,9.16357911 C9.48561975,9.3021674 9.79159152,9.22089165 9.93017981,8.98204463 C10.0687681,8.74319762 9.98749235,8.43722585 9.74864534,8.29863755 C9.28867518,8.03174504 9,7.54127594 9,7 C9,6.72385763 8.77614237,6.5 8.5,6.5 C8.22385763,6.5 8,6.72385763 8,7 Z M11.8455353,9.10731545 C12.5588244,8.65111736 13,7.86294784 13,7 C13,6.72385763 12.7761424,6.5 12.5,6.5 C12.2238576,6.5 12,6.72385763 12,7 C12,7.5182519 11.7356132,7.99058439 11.3067388,8.26487951 C11.0741065,8.41366406 11.0061345,8.72286348 11.1549191,8.95549574 C11.3037036,9.188128 11.612903,9.2561 11.8455353,9.10731545 Z"
         id="Oval-5"
         fill="#545454"
         fill-rule="nonzero" />
      <ellipse
         id="ellipse23"
         fill="#a5a5a5"
         cx="10.5"
         cy="6.5"
         rx="1"
         ry="1.5" />
    </g>
  </g>
</svg>
