<?xml version="1.0" encoding="UTF-8" standalone="no"?>
<svg
   xmlns:dc="http://purl.org/dc/elements/1.1/"
   xmlns:cc="http://creativecommons.org/ns#"
   xmlns:rdf="http://www.w3.org/1999/02/22-rdf-syntax-ns#"
   xmlns:svg="http://www.w3.org/2000/svg"
   xmlns="http://www.w3.org/2000/svg"
   xmlns:sodipodi="http://sodipodi.sourceforge.net/DTD/sodipodi-0.dtd"
   xmlns:inkscape="http://www.inkscape.org/namespaces/inkscape"
   width="21px"
   height="15px"
   viewBox="0 0 21 15"
   version="1.1"
   id="svg51"
   sodipodi:docname="SX.svg"
   inkscape:version="1.0.2-2 (e86c870879, 2021-01-15)">
  <metadata
     id="metadata55">
    <rdf:RDF>
      <cc:Work
         rdf:about="">
        <dc:format>image/svg+xml</dc:format>
        <dc:type
           rdf:resource="http://purl.org/dc/dcmitype/StillImage" />
      </cc:Work>
    </rdf:RDF>
  </metadata>
  <sodipodi:namedview
     pagecolor="#ffffff"
     bordercolor="#666666"
     borderopacity="1"
     objecttolerance="10"
     gridtolerance="10"
     guidetolerance="10"
     inkscape:pageopacity="0"
     inkscape:pageshadow="2"
     inkscape:window-width="704"
     inkscape:window-height="480"
     id="namedview53"
     showgrid="false"
     inkscape:zoom="52.761905"
     inkscape:cx="10.5"
     inkscape:cy="7.5"
     inkscape:window-x="0"
     inkscape:window-y="0"
     inkscape:window-maximized="0"
     inkscape:current-layer="svg51"
     inkscape:document-rotation="0" />
  <!-- Generator: sketchtool 46 (44423) - http://www.bohemiancoding.com/sketch -->
  <title
     id="title2">SX</title>
  <desc
     id="desc4">Created with sketchtool.</desc>
  <defs
     id="defs36">
    <linearGradient
       x1="50%"
       y1="0%"
       x2="50%"
       y2="100%"
       id="linearGradient-1">
      <stop
         stop-color="#FFFFFF"
         offset="0%"
         id="stop6" />
      <stop
         stop-color="#F0F0F0"
         offset="100%"
         id="stop8" />
    </linearGradient>
    <linearGradient
       x1="50%"
       y1="0%"
       x2="50%"
       y2="100%"
       id="linearGradient-2">
      <stop
         stop-color="#0740AA"
         offset="0%"
         id="stop11" />
      <stop
         stop-color="#012F85"
         offset="100%"
         id="stop13" />
    </linearGradient>
    <linearGradient
       x1="50%"
       y1="0%"
       x2="50%"
       y2="100%"
       id="linearGradient-3">
      <stop
         stop-color="#F02C33"
         offset="0%"
         id="stop16" />
      <stop
         stop-color="#D82027"
         offset="100%"
         id="stop18" />
    </linearGradient>
    <linearGradient
       x1="50%"
       y1="0%"
       x2="50%"
       y2="100%"
       id="linearGradient-4">
      <stop
         stop-color="#E72C33"
         offset="0%"
         id="stop21" />
      <stop
         stop-color="#D82027"
         offset="100%"
         id="stop23" />
    </linearGradient>
    <linearGradient
       x1="50%"
       y1="0%"
       x2="50%"
       y2="100%"
       id="linearGradient-5">
      <stop
         stop-color="#78C1F0"
         offset="0%"
         id="stop26" />
      <stop
         stop-color="#67B1E0"
         offset="100%"
         id="stop28" />
    </linearGradient>
    <linearGradient
       x1="50%"
       y1="0%"
       x2="50%"
       y2="100%"
       id="linearGradient-6">
      <stop
         stop-color="#F7E14B"
         offset="0%"
         id="stop31" />
      <stop
         stop-color="#F7DF3E"
         offset="100%"
         id="stop33" />
    </linearGradient>
    <linearGradient
       x1="50%"
       y1="0%"
       x2="50%"
       y2="100%"
       id="linearGradient5454">
      <stop
         stop-color="#ffffff"
         offset="0%"
         id="stop79" />
      <stop
         stop-color="#f0f0f0"
         offset="100%"
         id="stop81" />
    </linearGradient>
    <linearGradient
       x1="50%"
       y1="0%"
       x2="50%"
       y2="100%"
       id="linearGradient2823">
      <stop
         stop-color="#3b3b3b"
         offset="0%"
         id="stop84" />
      <stop
         stop-color="#2b2b2b"
         offset="100%"
         id="stop86" />
    </linearGradient>
    <linearGradient
       x1="50%"
       y1="0%"
       x2="50%"
       y2="100%"
       id="linearGradient1190">
      <stop
         stop-color="#676767"
         offset="0%"
         id="stop89" />
      <stop
         stop-color="#585858"
         offset="100%"
         id="stop91" />
    </linearGradient>
    <linearGradient
       x1="50%"
       y1="0%"
       x2="50%"
       y2="100%"
       id="linearGradient5725">
      <stop
         stop-color="#656565"
         offset="0%"
         id="stop94" />
      <stop
         stop-color="#585858"
         offset="100%"
         id="stop96" />
    </linearGradient>
    <linearGradient
       x1="50%"
       y1="0%"
       x2="50%"
       y2="100%"
       id="linearGradient6191">
      <stop
         stop-color="#b1b1b1"
         offset="0%"
         id="stop99" />
      <stop
         stop-color="#a0a0a0"
         offset="100%"
         id="stop101" />
    </linearGradient>
    <linearGradient
       x1="50%"
       y1="0%"
       x2="50%"
       y2="100%"
       id="linearGradient3332">
      <stop
         stop-color="#d6d6d6"
         offset="0%"
         id="stop104" />
      <stop
         stop-color="#d4d4d4"
         offset="100%"
         id="stop106" />
    </linearGradient>
  </defs>
  <g
     id="Symbols"
     stroke="none"
     stroke-width="1"
     fill="none"
     fill-rule="evenodd">
    <g
       id="SX">
      <rect
         id="FlagBackground"
         fill="url(#linearGradient5454)"
         x="0"
         y="0"
         width="21"
         height="15" />
      <rect
         id="Rectangle-2"
         fill="url(#linearGradient2823)"
         x="0"
         y="7"
         width="21"
         height="8" />
      <rect
         id="rect40"
         fill="url(#linearGradient1190)"
         x="0"
         y="0"
         width="21"
         height="7" />
      <polygon
         id="Rectangle-83"
         fill="url(#linearGradient5454)"
         points="0 0 10 7.5 0 15" />
      <path
         d="M1.5,7 L1.5,5.50614953 C1.5,4.95161419 1.9382901,4.5 2.49538898,4.5 L4.50461102,4.5 C5.05579652,4.5 5.5,4.95726048 5.5,5.50614953 L5.5,7 C5.5,7.84456945 5.1157048,8.44663194 4.49650629,8.79751109 C4.13871224,9.00026105 3.78910418,9.08183627 3.46674049,9.09889258 C3.21089582,9.08183627 2.86128776,9.00026105 2.50349371,8.79751109 C1.8842952,8.44663194 1.5,7.84456945 1.5,7 Z"
         id="Mask"
         fill="url(#linearGradient5725)"
         fill-rule="nonzero" />
      <path
         d="M2,7 L2,5.50614953 C2,5.22661086 2.2157526,5 2.49538898,5 L4.50461102,5 C4.7782068,5 5,5.23211365 5,5.50614953 L5,7 C5,8.5 3.5,8.6 3.5,8.6 C3.5,8.6 2,8.5 2,7 Z"
         id="path44"
         fill="url(#linearGradient6191)" />
      <polygon
         id="Rectangle-1394"
         fill="#ffffff"
         points="3 6.5 3.5 6 4 6.5 4 7.5 3 7.5" />
      <path
         d="M1.00127315,9.36801632 C1.60691933,10.0659994 2.56116706,10.5 3.5,10.5 C4.44801721,10.5 5.41530379,10.0519486 6.02102886,9.33837767 C6.19973322,9.12785602 6.17394022,8.812326 5.96341857,8.63362164 C5.75289693,8.45491728 5.43736691,8.48071029 5.25866255,8.69123193 C4.84286812,9.18105617 4.15430852,9.5 3.5,9.5 C2.85053603,9.5 2.17199371,9.19139271 1.75657246,8.71263631 C1.57559427,8.50406616 1.25980295,8.48169846 1.0512328,8.66267666 C0.842662659,8.84365485 0.820294962,9.15944617 1.00127315,9.36801632 Z"
         id="Oval-276"
         fill="#cfcfcf"
         fill-rule="nonzero" />
      <circle
         id="Oval-275"
         fill="url(#linearGradient3332)"
         cx="3.5"
         cy="4.5"
         r="1" />
    </g>
  </g>
</svg>
