<?xml version="1.0" encoding="UTF-8" standalone="no"?>
<svg
   xmlns:dc="http://purl.org/dc/elements/1.1/"
   xmlns:cc="http://creativecommons.org/ns#"
   xmlns:rdf="http://www.w3.org/1999/02/22-rdf-syntax-ns#"
   xmlns:svg="http://www.w3.org/2000/svg"
   xmlns="http://www.w3.org/2000/svg"
   xmlns:sodipodi="http://sodipodi.sourceforge.net/DTD/sodipodi-0.dtd"
   xmlns:inkscape="http://www.inkscape.org/namespaces/inkscape"
   width="21px"
   height="15px"
   viewBox="0 0 21 15"
   version="1.1"
   id="svg37"
   sodipodi:docname="TF.svg"
   inkscape:version="1.0.2-2 (e86c870879, 2021-01-15)">
  <metadata
     id="metadata41">
    <rdf:RDF>
      <cc:Work
         rdf:about="">
        <dc:format>image/svg+xml</dc:format>
        <dc:type
           rdf:resource="http://purl.org/dc/dcmitype/StillImage" />
      </cc:Work>
    </rdf:RDF>
  </metadata>
  <sodipodi:namedview
     pagecolor="#ffffff"
     bordercolor="#666666"
     borderopacity="1"
     objecttolerance="10"
     gridtolerance="10"
     guidetolerance="10"
     inkscape:pageopacity="0"
     inkscape:pageshadow="2"
     inkscape:window-width="704"
     inkscape:window-height="480"
     id="namedview39"
     showgrid="false"
     inkscape:zoom="52.761905"
     inkscape:cx="10.5"
     inkscape:cy="7.5"
     inkscape:window-x="0"
     inkscape:window-y="0"
     inkscape:window-maximized="0"
     inkscape:current-layer="svg37"
     inkscape:document-rotation="0" />
  <!-- Generator: sketchtool 46 (44423) - http://www.bohemiancoding.com/sketch -->
  <title
     id="title2">TF</title>
  <desc
     id="desc4">Created with sketchtool.</desc>
  <defs
     id="defs26">
    <linearGradient
       x1="50%"
       y1="0%"
       x2="50%"
       y2="100%"
       id="linearGradient-1">
      <stop
         stop-color="#FFFFFF"
         offset="0%"
         id="stop6" />
      <stop
         stop-color="#F0F0F0"
         offset="100%"
         id="stop8" />
    </linearGradient>
    <linearGradient
       x1="50%"
       y1="0%"
       x2="50%"
       y2="100%"
       id="linearGradient-2">
      <stop
         stop-color="#073AB6"
         offset="0%"
         id="stop11" />
      <stop
         stop-color="#002B93"
         offset="100%"
         id="stop13" />
    </linearGradient>
    <linearGradient
       x1="50%"
       y1="0%"
       x2="50%"
       y2="100%"
       id="linearGradient-3">
      <stop
         stop-color="#F44653"
         offset="0%"
         id="stop16" />
      <stop
         stop-color="#EE2A39"
         offset="100%"
         id="stop18" />
    </linearGradient>
    <linearGradient
       x1="50%"
       y1="0%"
       x2="50%"
       y2="100%"
       id="linearGradient-4">
      <stop
         stop-color="#1035BB"
         offset="0%"
         id="stop21" />
      <stop
         stop-color="#042396"
         offset="100%"
         id="stop23" />
    </linearGradient>
    <linearGradient
       x1="50%"
       y1="0%"
       x2="50%"
       y2="100%"
       id="linearGradient3561">
      <stop
         stop-color="#ffffff"
         offset="0%"
         id="stop59" />
      <stop
         stop-color="#f0f0f0"
         offset="100%"
         id="stop61" />
    </linearGradient>
    <linearGradient
       x1="50%"
       y1="0%"
       x2="50%"
       y2="100%"
       id="linearGradient5419">
      <stop
         stop-color="#393939"
         offset="0%"
         id="stop64" />
      <stop
         stop-color="#2a2a2a"
         offset="100%"
         id="stop66" />
    </linearGradient>
    <linearGradient
       x1="50%"
       y1="0%"
       x2="50%"
       y2="100%"
       id="linearGradient9782">
      <stop
         stop-color="#7c7c7c"
         offset="0%"
         id="stop69" />
      <stop
         stop-color="#666666"
         offset="100%"
         id="stop71" />
    </linearGradient>
    <linearGradient
       x1="50%"
       y1="0%"
       x2="50%"
       y2="100%"
       id="linearGradient3880">
      <stop
         stop-color="#393939"
         offset="0%"
         id="stop74" />
      <stop
         stop-color="#272727"
         offset="100%"
         id="stop76" />
    </linearGradient>
  </defs>
  <g
     id="Symbols"
     stroke="none"
     stroke-width="1"
     fill="none"
     fill-rule="evenodd">
    <g
       id="TF">
      <rect
         id="FlagBackground"
         fill="url(#linearGradient3561)"
         x="0"
         y="0"
         width="21"
         height="15" />
      <rect
         id="Mask-Copy"
         fill="url(#linearGradient5419)"
         x="0"
         y="0"
         width="21"
         height="15" />
      <path
         d="M0,0 L9.5,0 L9.5,7.25046158 C9.5,7.38827784 9.39331055,7.5 9.24589795,7.5 L0,7.5 L0,0 Z"
         id="Rectangle-1349-Copy-3"
         fill="url(#linearGradient3561)" />
      <rect
         id="Rectangle-1349"
         fill="url(#linearGradient9782)"
         x="6"
         y="0"
         width="3"
         height="7" />
      <rect
         id="Rectangle-1349-Copy-2"
         fill="url(#linearGradient3880)"
         x="0"
         y="0"
         width="3"
         height="7" />
      <rect
         id="Rectangle-1349-Copy"
         fill="url(#linearGradient3561)"
         x="3"
         y="0"
         width="3"
         height="7" />
      <path
         d="M13,6 L18,6 L17.5,7 L16,7 L16,7.5 L17,7.5 L16.5,8.5 L16,8.5 L16,10 L15,10 L15,7 L13.5,7 L13,6 Z M17,8.5 L18,10 L16,10 L17,8.5 Z M14,8.5 L15,10 L13,10 L14,8.5 Z M15.5,11.5 L14.5,10 L16.5,10 L15.5,11.5 Z M18.5,8 C18.2238576,8 18,7.77614237 18,7.5 C18,7.22385763 18.2238576,7 18.5,7 C18.7761424,7 19,7.22385763 19,7.5 C19,7.77614237 18.7761424,8 18.5,8 Z M12.5,8 C12.2238576,8 12,7.77614237 12,7.5 C12,7.22385763 12.2238576,7 12.5,7 C12.7761424,7 13,7.22385763 13,7.5 C13,7.77614237 12.7761424,8 12.5,8 Z M13.5,12 C13.2238576,12 13,11.7761424 13,11.5 C13,11.2238576 13.2238576,11 13.5,11 C13.7761424,11 14,11.2238576 14,11.5 C14,11.7761424 13.7761424,12 13.5,12 Z M17.5,12 C17.2238576,12 17,11.7761424 17,11.5 C17,11.2238576 17.2238576,11 17.5,11 C17.7761424,11 18,11.2238576 18,11.5 C18,11.7761424 17.7761424,12 17.5,12 Z M15.5,13 C15.2238576,13 15,12.7761424 15,12.5 C15,12.2238576 15.2238576,12 15.5,12 C15.7761424,12 16,12.2238576 16,12.5 C16,12.7761424 15.7761424,13 15.5,13 Z"
         id="Combined-Shape"
         fill="#ffffff" />
    </g>
  </g>
</svg>
