<?xml version="1.0" encoding="UTF-8" standalone="no"?>
<svg
   xmlns:dc="http://purl.org/dc/elements/1.1/"
   xmlns:cc="http://creativecommons.org/ns#"
   xmlns:rdf="http://www.w3.org/1999/02/22-rdf-syntax-ns#"
   xmlns:svg="http://www.w3.org/2000/svg"
   xmlns="http://www.w3.org/2000/svg"
   xmlns:sodipodi="http://sodipodi.sourceforge.net/DTD/sodipodi-0.dtd"
   xmlns:inkscape="http://www.inkscape.org/namespaces/inkscape"
   width="21px"
   height="15px"
   viewBox="0 0 21 15"
   version="1.1"
   id="svg31"
   sodipodi:docname="TJ.svg"
   inkscape:version="1.0.2-2 (e86c870879, 2021-01-15)">
  <metadata
     id="metadata35">
    <rdf:RDF>
      <cc:Work
         rdf:about="">
        <dc:format>image/svg+xml</dc:format>
        <dc:type
           rdf:resource="http://purl.org/dc/dcmitype/StillImage" />
      </cc:Work>
    </rdf:RDF>
  </metadata>
  <sodipodi:namedview
     pagecolor="#ffffff"
     bordercolor="#666666"
     borderopacity="1"
     objecttolerance="10"
     gridtolerance="10"
     guidetolerance="10"
     inkscape:pageopacity="0"
     inkscape:pageshadow="2"
     inkscape:window-width="704"
     inkscape:window-height="480"
     id="namedview33"
     showgrid="false"
     inkscape:zoom="52.761905"
     inkscape:cx="10.5"
     inkscape:cy="7.5"
     inkscape:window-x="0"
     inkscape:window-y="0"
     inkscape:window-maximized="0"
     inkscape:current-layer="svg31"
     inkscape:document-rotation="0" />
  <!-- Generator: sketchtool 46 (44423) - http://www.bohemiancoding.com/sketch -->
  <title
     id="title2">TJ</title>
  <desc
     id="desc4">Created with sketchtool.</desc>
  <defs
     id="defs21">
    <linearGradient
       x1="50%"
       y1="0%"
       x2="50%"
       y2="100%"
       id="linearGradient-1">
      <stop
         stop-color="#FFFFFF"
         offset="0%"
         id="stop6" />
      <stop
         stop-color="#F0F0F0"
         offset="100%"
         id="stop8" />
    </linearGradient>
    <linearGradient
       x1="50%"
       y1="0%"
       x2="50%"
       y2="100%"
       id="linearGradient-2">
      <stop
         stop-color="#D9101C"
         offset="0%"
         id="stop11" />
      <stop
         stop-color="#CA0814"
         offset="100%"
         id="stop13" />
    </linearGradient>
    <linearGradient
       x1="50%"
       y1="0%"
       x2="50%"
       y2="100%"
       id="linearGradient-3">
      <stop
         stop-color="#0F7811"
         offset="0%"
         id="stop16" />
      <stop
         stop-color="#0A650C"
         offset="100%"
         id="stop18" />
    </linearGradient>
    <linearGradient
       x1="50%"
       y1="0%"
       x2="50%"
       y2="100%"
       id="linearGradient3470">
      <stop
         stop-color="#ffffff"
         offset="0%"
         id="stop50" />
      <stop
         stop-color="#f0f0f0"
         offset="100%"
         id="stop52" />
    </linearGradient>
    <linearGradient
       x1="50%"
       y1="0%"
       x2="50%"
       y2="100%"
       id="linearGradient7095">
      <stop
         stop-color="#4d4d4d"
         offset="0%"
         id="stop55" />
      <stop
         stop-color="#434343"
         offset="100%"
         id="stop57" />
    </linearGradient>
    <linearGradient
       x1="50%"
       y1="0%"
       x2="50%"
       y2="100%"
       id="linearGradient9608">
      <stop
         stop-color="#4d4d4d"
         offset="0%"
         id="stop60" />
      <stop
         stop-color="#404040"
         offset="100%"
         id="stop62" />
    </linearGradient>
  </defs>
  <g
     id="Symbols"
     stroke="none"
     stroke-width="1"
     fill="none"
     fill-rule="evenodd">
    <g
       id="TJ">
      <rect
         id="FlagBackground"
         fill="url(#linearGradient3470)"
         x="0"
         y="0"
         width="21"
         height="15" />
      <rect
         id="Rectangle-2"
         fill="url(#linearGradient7095)"
         x="0"
         y="0"
         width="21"
         height="5" />
      <rect
         id="rect25"
         fill="url(#linearGradient9608)"
         x="0"
         y="10"
         width="21"
         height="5" />
      <rect
         id="Rectangle-2-Copy-4"
         fill="url(#linearGradient3470)"
         x="0"
         y="5"
         width="21"
         height="5" />
      <path
         d="M10.0660084,8 C10.0240119,7.7825361 10,7.59044003 10,7.5 C10,7.22385763 10.2238576,7 10.5,7 C10.7761424,7 11,7.22385763 11,7.5 C11,7.59044003 10.9759881,7.7825361 10.9339916,8 L11.504611,8 C11.7782068,8 12,8.23193359 12,8.5 C12,8.77614237 11.7842474,9 11.504611,9 L9.49538898,9 C9.2217932,9 9,8.76806641 9,8.5 C9,8.22385763 9.2157526,8 9.49538898,8 L10.0660084,8 L10.0660084,8 Z M9.5,7 C9.22385763,7 9,6.77614237 9,6.5 C9,6.22385763 9.22385763,6 9.5,6 C9.77614237,6 10,6.22385763 10,6.5 C10,6.77614237 9.77614237,7 9.5,7 Z M11.5,7 C11.2238576,7 11,6.77614237 11,6.5 C11,6.22385763 11.2238576,6 11.5,6 C11.7761424,6 12,6.22385763 12,6.5 C12,6.77614237 11.7761424,7 11.5,7 Z M13.5,8 C13.2238576,8 13,7.77614237 13,7.5 C13,7.22385763 13.2238576,7 13.5,7 C13.7761424,7 14,7.22385763 14,7.5 C14,7.77614237 13.7761424,8 13.5,8 Z M7.5,8 C7.22385763,8 7,7.77614237 7,7.5 C7,7.22385763 7.22385763,7 7.5,7 C7.77614237,7 8,7.22385763 8,7.5 C8,7.77614237 7.77614237,8 7.5,8 Z"
         id="Oval-36"
         fill="#cecece" />
    </g>
  </g>
</svg>
