<?xml version="1.0" encoding="UTF-8" standalone="no"?>
<svg
   xmlns:dc="http://purl.org/dc/elements/1.1/"
   xmlns:cc="http://creativecommons.org/ns#"
   xmlns:rdf="http://www.w3.org/1999/02/22-rdf-syntax-ns#"
   xmlns:svg="http://www.w3.org/2000/svg"
   xmlns="http://www.w3.org/2000/svg"
   xmlns:sodipodi="http://sodipodi.sourceforge.net/DTD/sodipodi-0.dtd"
   xmlns:inkscape="http://www.inkscape.org/namespaces/inkscape"
   width="21px"
   height="15px"
   viewBox="0 0 21 15"
   version="1.1"
   id="svg35"
   sodipodi:docname="TK.svg"
   inkscape:version="1.0.2-2 (e86c870879, 2021-01-15)">
  <metadata
     id="metadata39">
    <rdf:RDF>
      <cc:Work
         rdf:about="">
        <dc:format>image/svg+xml</dc:format>
        <dc:type
           rdf:resource="http://purl.org/dc/dcmitype/StillImage" />
      </cc:Work>
    </rdf:RDF>
  </metadata>
  <sodipodi:namedview
     pagecolor="#ffffff"
     bordercolor="#666666"
     borderopacity="1"
     objecttolerance="10"
     gridtolerance="10"
     guidetolerance="10"
     inkscape:pageopacity="0"
     inkscape:pageshadow="2"
     inkscape:window-width="704"
     inkscape:window-height="480"
     id="namedview37"
     showgrid="false"
     inkscape:zoom="52.761905"
     inkscape:cx="10.5"
     inkscape:cy="7.5"
     inkscape:window-x="0"
     inkscape:window-y="0"
     inkscape:window-maximized="0"
     inkscape:current-layer="svg35"
     inkscape:document-rotation="0" />
  <!-- Generator: sketchtool 46 (44423) - http://www.bohemiancoding.com/sketch -->
  <title
     id="title2">TK</title>
  <desc
     id="desc4">Created with sketchtool.</desc>
  <defs
     id="defs21">
    <linearGradient
       x1="50%"
       y1="0%"
       x2="50%"
       y2="100%"
       id="linearGradient-1">
      <stop
         stop-color="#FFFFFF"
         offset="0%"
         id="stop6" />
      <stop
         stop-color="#F0F0F0"
         offset="100%"
         id="stop8" />
    </linearGradient>
    <linearGradient
       x1="50%"
       y1="0%"
       x2="50%"
       y2="100%"
       id="linearGradient-2">
      <stop
         stop-color="#0637C5"
         offset="0%"
         id="stop11" />
      <stop
         stop-color="#002CAA"
         offset="100%"
         id="stop13" />
    </linearGradient>
    <linearGradient
       x1="50%"
       y1="0%"
       x2="50%"
       y2="100%"
       id="linearGradient-3">
      <stop
         stop-color="#FDD33F"
         offset="0%"
         id="stop16" />
      <stop
         stop-color="#FED02F"
         offset="100%"
         id="stop18" />
    </linearGradient>
    <linearGradient
       x1="50%"
       y1="0%"
       x2="50%"
       y2="100%"
       id="linearGradient8421">
      <stop
         stop-color="#ffffff"
         offset="0%"
         id="stop54" />
      <stop
         stop-color="#f0f0f0"
         offset="100%"
         id="stop56" />
    </linearGradient>
    <linearGradient
       x1="50%"
       y1="0%"
       x2="50%"
       y2="100%"
       id="linearGradient4663">
      <stop
         stop-color="#393939"
         offset="0%"
         id="stop59" />
      <stop
         stop-color="#2d2d2d"
         offset="100%"
         id="stop61" />
    </linearGradient>
    <linearGradient
       x1="50%"
       y1="0%"
       x2="50%"
       y2="100%"
       id="linearGradient8299">
      <stop
         stop-color="#cfcfcf"
         offset="0%"
         id="stop64" />
      <stop
         stop-color="#cbcbcb"
         offset="100%"
         id="stop66" />
    </linearGradient>
  </defs>
  <g
     id="Symbols"
     stroke="none"
     stroke-width="1"
     fill="none"
     fill-rule="evenodd">
    <g
       id="TK">
      <rect
         id="FlagBackground"
         fill="url(#linearGradient8421)"
         x="0"
         y="0"
         width="21"
         height="15" />
      <rect
         id="Mask-Copy"
         fill="url(#linearGradient4663)"
         x="0"
         y="0"
         width="21"
         height="15" />
      <path
         d="M4,12 L19,12 L19,13 L3,13 L4,12 Z M11.5,6 C14.5,4 18,2 18,2 C18,2 16.3573445,5.07344524 16.5,6.5 C16.6906779,8.40677857 19,11 19,11 L5,11 C5,11 8.5,8 11.5,6 Z"
         id="Combined-Shape"
         fill="url(#linearGradient8299)" />
      <polygon
         id="Star-2"
         fill="#ffffff"
         points="4 9 3.29289322 9.20710678 3.5 8.5 3.29289322 7.79289322 4 8 4.70710678 7.79289322 4.5 8.5 4.70710678 9.20710678" />
      <polygon
         id="polygon27"
         fill="#ffffff"
         points="5 2.5 4.29289322 2.70710678 4.5 2 4.29289322 1.29289322 5 1.5 5.70710678 1.29289322 5.5 2 5.70710678 2.70710678" />
      <polygon
         id="polygon29"
         fill="#ffffff"
         points="7 5.5 6.29289322 5.70710678 6.5 5 6.29289322 4.29289322 7 4.5 7.70710678 4.29289322 7.5 5 7.70710678 5.70710678" />
      <polygon
         id="polygon31"
         fill="#ffffff"
         points="2 5.5 1.29289322 5.70710678 1.5 5 1.29289322 4.29289322 2 4.5 2.70710678 4.29289322 2.5 5 2.70710678 5.70710678" />
    </g>
  </g>
</svg>
