<?xml version="1.0" encoding="UTF-8" standalone="no"?>
<svg
   xmlns:dc="http://purl.org/dc/elements/1.1/"
   xmlns:cc="http://creativecommons.org/ns#"
   xmlns:rdf="http://www.w3.org/1999/02/22-rdf-syntax-ns#"
   xmlns:svg="http://www.w3.org/2000/svg"
   xmlns="http://www.w3.org/2000/svg"
   xmlns:sodipodi="http://sodipodi.sourceforge.net/DTD/sodipodi-0.dtd"
   xmlns:inkscape="http://www.inkscape.org/namespaces/inkscape"
   width="21px"
   height="15px"
   viewBox="0 0 21 15"
   version="1.1"
   id="svg31"
   sodipodi:docname="UZ.svg"
   inkscape:version="1.0.2-2 (e86c870879, 2021-01-15)">
  <metadata
     id="metadata35">
    <rdf:RDF>
      <cc:Work
         rdf:about="">
        <dc:format>image/svg+xml</dc:format>
        <dc:type
           rdf:resource="http://purl.org/dc/dcmitype/StillImage" />
      </cc:Work>
    </rdf:RDF>
  </metadata>
  <sodipodi:namedview
     pagecolor="#ffffff"
     bordercolor="#666666"
     borderopacity="1"
     objecttolerance="10"
     gridtolerance="10"
     guidetolerance="10"
     inkscape:pageopacity="0"
     inkscape:pageshadow="2"
     inkscape:window-width="704"
     inkscape:window-height="480"
     id="namedview33"
     showgrid="false"
     inkscape:zoom="52.761905"
     inkscape:cx="10.5"
     inkscape:cy="7.5"
     inkscape:window-x="0"
     inkscape:window-y="0"
     inkscape:window-maximized="0"
     inkscape:current-layer="svg31"
     inkscape:document-rotation="0" />
  <!-- Generator: sketchtool 46 (44423) - http://www.bohemiancoding.com/sketch -->
  <title
     id="title2">UZ</title>
  <desc
     id="desc4">Created with sketchtool.</desc>
  <defs
     id="defs21">
    <linearGradient
       x1="50%"
       y1="0%"
       x2="50%"
       y2="100%"
       id="linearGradient-1">
      <stop
         stop-color="#FFFFFF"
         offset="0%"
         id="stop6" />
      <stop
         stop-color="#F0F0F0"
         offset="100%"
         id="stop8" />
    </linearGradient>
    <linearGradient
       x1="50%"
       y1="0%"
       x2="50%"
       y2="100%"
       id="linearGradient-2">
      <stop
         stop-color="#04AAC8"
         offset="0%"
         id="stop11" />
      <stop
         stop-color="#009AB6"
         offset="100%"
         id="stop13" />
    </linearGradient>
    <linearGradient
       x1="50%"
       y1="0%"
       x2="50%"
       y2="100%"
       id="linearGradient-3">
      <stop
         stop-color="#23C840"
         offset="0%"
         id="stop16" />
      <stop
         stop-color="#1EB639"
         offset="100%"
         id="stop18" />
    </linearGradient>
    <linearGradient
       x1="50%"
       y1="0%"
       x2="50%"
       y2="100%"
       id="linearGradient3324">
      <stop
         stop-color="#ffffff"
         offset="0%"
         id="stop50" />
      <stop
         stop-color="#f0f0f0"
         offset="100%"
         id="stop52" />
    </linearGradient>
    <linearGradient
       x1="50%"
       y1="0%"
       x2="50%"
       y2="100%"
       id="linearGradient9514">
      <stop
         stop-color="#7c7c7c"
         offset="0%"
         id="stop55" />
      <stop
         stop-color="#6f6f6f"
         offset="100%"
         id="stop57" />
    </linearGradient>
    <linearGradient
       x1="50%"
       y1="0%"
       x2="50%"
       y2="100%"
       id="linearGradient720">
      <stop
         stop-color="#878787"
         offset="0%"
         id="stop60" />
      <stop
         stop-color="#7a7a7a"
         offset="100%"
         id="stop62" />
    </linearGradient>
  </defs>
  <g
     id="Symbols"
     stroke="none"
     stroke-width="1"
     fill="none"
     fill-rule="evenodd">
    <g
       id="UZ">
      <rect
         id="FlagBackground"
         fill="url(#linearGradient3324)"
         x="0"
         y="0"
         width="21"
         height="15" />
      <rect
         id="Rectangle-2"
         fill="url(#linearGradient9514)"
         x="0"
         y="0"
         width="21"
         height="5" />
      <rect
         id="rect25"
         fill="url(#linearGradient720)"
         x="0"
         y="10"
         width="21"
         height="5" />
      <rect
         id="Rectangle-2-Copy-4"
         fill="url(#linearGradient3324)"
         x="0"
         y="5"
         width="21"
         height="5" />
      <path
         d="M4.33356893,1.25274924 C4.09517255,1.0931066 3.80845938,1 3.5,1 C2.67157288,1 2,1.67157288 2,2.5 C2,3.32842712 2.67157288,4 3.5,4 C3.80845938,4 4.09517255,3.9068934 4.33356893,3.74725076 C4.30594816,3.74907396 4.27808222,3.75 4.25,3.75 C3.55964406,3.75 3,3.19035594 3,2.5 C3,1.80964406 3.55964406,1.25 4.25,1.25 C4.27808222,1.25 4.30594816,1.25092604 4.33356893,1.25274924 Z M5.5,4 C5.22385763,4 5,3.77614237 5,3.5 C5,3.22385763 5.22385763,3 5.5,3 C5.77614237,3 6,3.22385763 6,3.5 C6,3.77614237 5.77614237,4 5.5,4 Z M7.5,2 C7.22385763,2 7,1.77614237 7,1.5 C7,1.22385763 7.22385763,1 7.5,1 C7.77614237,1 8,1.22385763 8,1.5 C8,1.77614237 7.77614237,2 7.5,2 Z M9.5,2 C9.22385763,2 9,1.77614237 9,1.5 C9,1.22385763 9.22385763,1 9.5,1 C9.77614237,1 10,1.22385763 10,1.5 C10,1.77614237 9.77614237,2 9.5,2 Z M9.5,4 C9.22385763,4 9,3.77614237 9,3.5 C9,3.22385763 9.22385763,3 9.5,3 C9.77614237,3 10,3.22385763 10,3.5 C10,3.77614237 9.77614237,4 9.5,4 Z M7.5,4 C7.22385763,4 7,3.77614237 7,3.5 C7,3.22385763 7.22385763,3 7.5,3 C7.77614237,3 8,3.22385763 8,3.5 C8,3.77614237 7.77614237,4 7.5,4 Z"
         id="Oval-68"
         fill="url(#linearGradient3324)" />
    </g>
  </g>
</svg>
