<?xml version="1.0" encoding="UTF-8" standalone="no"?>
<svg
   xmlns:dc="http://purl.org/dc/elements/1.1/"
   xmlns:cc="http://creativecommons.org/ns#"
   xmlns:rdf="http://www.w3.org/1999/02/22-rdf-syntax-ns#"
   xmlns:svg="http://www.w3.org/2000/svg"
   xmlns="http://www.w3.org/2000/svg"
   xmlns:sodipodi="http://sodipodi.sourceforge.net/DTD/sodipodi-0.dtd"
   xmlns:inkscape="http://www.inkscape.org/namespaces/inkscape"
   width="21px"
   height="15px"
   viewBox="0 0 21 15"
   version="1.1"
   id="svg36"
   sodipodi:docname="VE.svg"
   inkscape:version="1.0.2-2 (e86c870879, 2021-01-15)">
  <metadata
     id="metadata40">
    <rdf:RDF>
      <cc:Work
         rdf:about="">
        <dc:format>image/svg+xml</dc:format>
        <dc:type
           rdf:resource="http://purl.org/dc/dcmitype/StillImage" />
      </cc:Work>
    </rdf:RDF>
  </metadata>
  <sodipodi:namedview
     pagecolor="#ffffff"
     bordercolor="#666666"
     borderopacity="1"
     objecttolerance="10"
     gridtolerance="10"
     guidetolerance="10"
     inkscape:pageopacity="0"
     inkscape:pageshadow="2"
     inkscape:window-width="704"
     inkscape:window-height="480"
     id="namedview38"
     showgrid="false"
     inkscape:zoom="52.761905"
     inkscape:cx="10.5"
     inkscape:cy="7.5"
     inkscape:window-x="0"
     inkscape:window-y="0"
     inkscape:window-maximized="0"
     inkscape:current-layer="svg36"
     inkscape:document-rotation="0" />
  <!-- Generator: sketchtool 46 (44423) - http://www.bohemiancoding.com/sketch -->
  <title
     id="title2">VE</title>
  <desc
     id="desc4">Created with sketchtool.</desc>
  <defs
     id="defs26">
    <linearGradient
       x1="50%"
       y1="0%"
       x2="50%"
       y2="100%"
       id="linearGradient-1">
      <stop
         stop-color="#FFFFFF"
         offset="0%"
         id="stop6" />
      <stop
         stop-color="#F0F0F0"
         offset="100%"
         id="stop8" />
    </linearGradient>
    <linearGradient
       x1="50%"
       y1="0%"
       x2="50%"
       y2="100%"
       id="linearGradient-2">
      <stop
         stop-color="#063191"
         offset="0%"
         id="stop11" />
      <stop
         stop-color="#03287C"
         offset="100%"
         id="stop13" />
    </linearGradient>
    <linearGradient
       x1="50%"
       y1="0%"
       x2="50%"
       y2="100%"
       id="linearGradient-3">
      <stop
         stop-color="#E2213B"
         offset="0%"
         id="stop16" />
      <stop
         stop-color="#CD1931"
         offset="100%"
         id="stop18" />
    </linearGradient>
    <linearGradient
       x1="50%"
       y1="0%"
       x2="50%"
       y2="100%"
       id="linearGradient-4">
      <stop
         stop-color="#FFD044"
         offset="0%"
         id="stop21" />
      <stop
         stop-color="#FFCB2F"
         offset="100%"
         id="stop23" />
    </linearGradient>
    <linearGradient
       x1="50%"
       y1="0%"
       x2="50%"
       y2="100%"
       id="linearGradient5129">
      <stop
         stop-color="#ffffff"
         offset="0%"
         id="stop58" />
      <stop
         stop-color="#f0f0f0"
         offset="100%"
         id="stop60" />
    </linearGradient>
    <linearGradient
       x1="50%"
       y1="0%"
       x2="50%"
       y2="100%"
       id="linearGradient4723">
      <stop
         stop-color="#2f2f2f"
         offset="0%"
         id="stop63" />
      <stop
         stop-color="#272727"
         offset="100%"
         id="stop65" />
    </linearGradient>
    <linearGradient
       x1="50%"
       y1="0%"
       x2="50%"
       y2="100%"
       id="linearGradient8032">
      <stop
         stop-color="#5e5e5e"
         offset="0%"
         id="stop68" />
      <stop
         stop-color="#525252"
         offset="100%"
         id="stop70" />
    </linearGradient>
    <linearGradient
       x1="50%"
       y1="0%"
       x2="50%"
       y2="100%"
       id="linearGradient4141">
      <stop
         stop-color="#cecece"
         offset="0%"
         id="stop73" />
      <stop
         stop-color="#c9c9c9"
         offset="100%"
         id="stop75" />
    </linearGradient>
  </defs>
  <g
     id="Symbols"
     stroke="none"
     stroke-width="1"
     fill="none"
     fill-rule="evenodd">
    <g
       id="VE">
      <rect
         id="FlagBackground"
         fill="url(#linearGradient5129)"
         x="0"
         y="0"
         width="21"
         height="15" />
      <rect
         id="Rectangle-2-Copy-4"
         fill="url(#linearGradient4723)"
         x="0"
         y="5"
         width="21"
         height="5" />
      <rect
         id="Rectangle-2"
         fill="url(#linearGradient8032)"
         x="0"
         y="10"
         width="21"
         height="5" />
      <path
         d="M10.5,7 C10.2238576,7 10,6.77614237 10,6.5 C10,6.22385763 10.2238576,6 10.5,6 C10.7761424,6 11,6.22385763 11,6.5 C11,6.77614237 10.7761424,7 10.5,7 Z M8.5,7.5 C8.22385763,7.5 8,7.27614237 8,7 C8,6.72385763 8.22385763,6.5 8.5,6.5 C8.77614237,6.5 9,6.72385763 9,7 C9,7.27614237 8.77614237,7.5 8.5,7.5 Z M12.5,7.5 C12.2238576,7.5 12,7.27614237 12,7 C12,6.72385763 12.2238576,6.5 12.5,6.5 C12.7761424,6.5 13,6.72385763 13,7 C13,7.27614237 12.7761424,7.5 12.5,7.5 Z M7.5,9 C7.22385763,9 7,8.77614237 7,8.5 C7,8.22385763 7.22385763,8 7.5,8 C7.77614237,8 8,8.22385763 8,8.5 C8,8.77614237 7.77614237,9 7.5,9 Z M13.5,9 C13.2238576,9 13,8.77614237 13,8.5 C13,8.22385763 13.2238576,8 13.5,8 C13.7761424,8 14,8.22385763 14,8.5 C14,8.77614237 13.7761424,9 13.5,9 Z"
         id="Oval-61"
         fill="url(#linearGradient5129)" />
      <rect
         id="rect32"
         fill="url(#linearGradient4141)"
         x="0"
         y="0"
         width="21"
         height="5" />
    </g>
  </g>
</svg>
