<?xml version="1.0" encoding="UTF-8" standalone="no"?>
<svg
   xmlns:dc="http://purl.org/dc/elements/1.1/"
   xmlns:cc="http://creativecommons.org/ns#"
   xmlns:rdf="http://www.w3.org/1999/02/22-rdf-syntax-ns#"
   xmlns:svg="http://www.w3.org/2000/svg"
   xmlns="http://www.w3.org/2000/svg"
   xmlns:sodipodi="http://sodipodi.sourceforge.net/DTD/sodipodi-0.dtd"
   xmlns:inkscape="http://www.inkscape.org/namespaces/inkscape"
   width="21px"
   height="15px"
   viewBox="0 0 21 15"
   version="1.1"
   id="svg44"
   sodipodi:docname="VU.svg"
   inkscape:version="1.0.2-2 (e86c870879, 2021-01-15)">
  <metadata
     id="metadata48">
    <rdf:RDF>
      <cc:Work
         rdf:about="">
        <dc:format>image/svg+xml</dc:format>
        <dc:type
           rdf:resource="http://purl.org/dc/dcmitype/StillImage" />
      </cc:Work>
    </rdf:RDF>
  </metadata>
  <sodipodi:namedview
     pagecolor="#ffffff"
     bordercolor="#666666"
     borderopacity="1"
     objecttolerance="10"
     gridtolerance="10"
     guidetolerance="10"
     inkscape:pageopacity="0"
     inkscape:pageshadow="2"
     inkscape:window-width="704"
     inkscape:window-height="480"
     id="namedview46"
     showgrid="false"
     inkscape:zoom="52.761905"
     inkscape:cx="10.5"
     inkscape:cy="7.5"
     inkscape:window-x="0"
     inkscape:window-y="0"
     inkscape:window-maximized="0"
     inkscape:current-layer="svg44"
     inkscape:document-rotation="0" />
  <!-- Generator: sketchtool 46 (44423) - http://www.bohemiancoding.com/sketch -->
  <title
     id="title2">VU</title>
  <desc
     id="desc4">Created with sketchtool.</desc>
  <defs
     id="defs31">
    <linearGradient
       x1="50%"
       y1="0%"
       x2="50%"
       y2="100%"
       id="linearGradient-1">
      <stop
         stop-color="#FFFFFF"
         offset="0%"
         id="stop6" />
      <stop
         stop-color="#F0F0F0"
         offset="100%"
         id="stop8" />
    </linearGradient>
    <linearGradient
       x1="50%"
       y1="0%"
       x2="50%"
       y2="100%"
       id="linearGradient-2">
      <stop
         stop-color="#27AB53"
         offset="0%"
         id="stop11" />
      <stop
         stop-color="#219447"
         offset="100%"
         id="stop13" />
    </linearGradient>
    <linearGradient
       x1="50%"
       y1="0%"
       x2="50%"
       y2="100%"
       id="linearGradient-3">
      <stop
         stop-color="#EC2547"
         offset="0%"
         id="stop16" />
      <stop
         stop-color="#CE1A39"
         offset="100%"
         id="stop18" />
    </linearGradient>
    <linearGradient
       x1="50%"
       y1="0%"
       x2="50%"
       y2="100%"
       id="linearGradient-4">
      <stop
         stop-color="#262626"
         offset="0%"
         id="stop21" />
      <stop
         stop-color="#0D0D0D"
         offset="100%"
         id="stop23" />
    </linearGradient>
    <linearGradient
       x1="50%"
       y1="0%"
       x2="50%"
       y2="100%"
       id="linearGradient-5">
      <stop
         stop-color="#FFD449"
         offset="0%"
         id="stop26" />
      <stop
         stop-color="#FDCD34"
         offset="100%"
         id="stop28" />
    </linearGradient>
    <linearGradient
       x1="50%"
       y1="0%"
       x2="50%"
       y2="100%"
       id="linearGradient6677">
      <stop
         stop-color="#ffffff"
         offset="0%"
         id="stop69" />
      <stop
         stop-color="#f0f0f0"
         offset="100%"
         id="stop71" />
    </linearGradient>
    <linearGradient
       x1="50%"
       y1="0%"
       x2="50%"
       y2="100%"
       id="linearGradient2024">
      <stop
         stop-color="#7a7a7a"
         offset="0%"
         id="stop74" />
      <stop
         stop-color="#696969"
         offset="100%"
         id="stop76" />
    </linearGradient>
    <linearGradient
       x1="50%"
       y1="0%"
       x2="50%"
       y2="100%"
       id="linearGradient7337">
      <stop
         stop-color="#646464"
         offset="0%"
         id="stop79" />
      <stop
         stop-color="#535353"
         offset="100%"
         id="stop81" />
    </linearGradient>
    <linearGradient
       x1="50%"
       y1="0%"
       x2="50%"
       y2="100%"
       id="linearGradient8194">
      <stop
         stop-color="#262626"
         offset="0%"
         id="stop84" />
      <stop
         stop-color="#0d0d0d"
         offset="100%"
         id="stop86" />
    </linearGradient>
    <linearGradient
       x1="50%"
       y1="0%"
       x2="50%"
       y2="100%"
       id="linearGradient132">
      <stop
         stop-color="#d1d1d1"
         offset="0%"
         id="stop89" />
      <stop
         stop-color="#cacaca"
         offset="100%"
         id="stop91" />
    </linearGradient>
  </defs>
  <g
     id="Symbols"
     stroke="none"
     stroke-width="1"
     fill="none"
     fill-rule="evenodd">
    <g
       id="VU">
      <rect
         id="FlagBackground"
         fill="url(#linearGradient6677)"
         x="0"
         y="0"
         width="21"
         height="15" />
      <rect
         id="Rectangle-2"
         fill="url(#linearGradient2024)"
         x="0.2"
         y="9"
         width="21"
         height="6" />
      <rect
         id="rect35"
         fill="url(#linearGradient7337)"
         x="0.2"
         y="0"
         width="21"
         height="6" />
      <path
         d="M8.2,6 L21.2,6 L21.2,9 L8.2,9 L0.2,15 L0.2,0 L8.2,6 Z"
         id="Combined-Shape"
         fill="url(#linearGradient8194)" />
      <path
         d="M6.86666667,7.5 L-0.6,1.9 L-1,1.6 L-0.4,0.8 L0,1.1 L7.86666667,7 L20.7,7 L21.2,7 L21.2,8 L20.7,8 L7.7,8 L8,7.9 L0,13.9 L-0.4,14.2 L-1,13.4 L-0.6,13.1 L6.86666667,7.5 Z"
         id="path38"
         fill="url(#linearGradient132)"
         fill-rule="nonzero" />
      <path
         d="M2.7,9 C1.87157288,9 1.2,8.32842712 1.2,7.5 C1.2,6.67157288 1.87157288,6 2.7,6 C3.52842712,6 4.2,6.67157288 4.2,7.5 C4.2,8.22719484 3.38679788,9.86267318 2.7,10 C2.60439134,10.0191172 2.80123229,9 2.7,9 Z M2.7,8.25 C2.97614237,8.5 3.2,7.77614237 3.2,7.5 C3.2,7.22385763 2.97614237,7 2.7,7 C2.42385763,7 2.2,7.22385763 2.2,7.5 C2.2,7.77614237 2.42385763,8.5 2.7,8.25 Z"
         id="path40"
         fill="url(#linearGradient132)" />
    </g>
  </g>
</svg>
