<?xml version="1.0" encoding="UTF-8" standalone="no"?>
<svg
   xmlns:dc="http://purl.org/dc/elements/1.1/"
   xmlns:cc="http://creativecommons.org/ns#"
   xmlns:rdf="http://www.w3.org/1999/02/22-rdf-syntax-ns#"
   xmlns:svg="http://www.w3.org/2000/svg"
   xmlns="http://www.w3.org/2000/svg"
   xmlns:sodipodi="http://sodipodi.sourceforge.net/DTD/sodipodi-0.dtd"
   xmlns:inkscape="http://www.inkscape.org/namespaces/inkscape"
   width="21px"
   height="15px"
   viewBox="0 0 21 15"
   version="1.1"
   id="svg29"
   sodipodi:docname="WS.svg"
   inkscape:version="1.0.2-2 (e86c870879, 2021-01-15)">
  <metadata
     id="metadata33">
    <rdf:RDF>
      <cc:Work
         rdf:about="">
        <dc:format>image/svg+xml</dc:format>
        <dc:type
           rdf:resource="http://purl.org/dc/dcmitype/StillImage" />
      </cc:Work>
    </rdf:RDF>
  </metadata>
  <sodipodi:namedview
     pagecolor="#ffffff"
     bordercolor="#666666"
     borderopacity="1"
     objecttolerance="10"
     gridtolerance="10"
     guidetolerance="10"
     inkscape:pageopacity="0"
     inkscape:pageshadow="2"
     inkscape:window-width="704"
     inkscape:window-height="480"
     id="namedview31"
     showgrid="false"
     inkscape:zoom="52.761905"
     inkscape:cx="10.5"
     inkscape:cy="7.5"
     inkscape:window-x="0"
     inkscape:window-y="0"
     inkscape:window-maximized="0"
     inkscape:current-layer="svg29"
     inkscape:document-rotation="0" />
  <!-- Generator: sketchtool 46 (44423) - http://www.bohemiancoding.com/sketch -->
  <title
     id="title2">WS</title>
  <desc
     id="desc4">Created with sketchtool.</desc>
  <defs
     id="defs21">
    <linearGradient
       x1="50%"
       y1="0%"
       x2="50%"
       y2="100%"
       id="linearGradient-1">
      <stop
         stop-color="#FFFFFF"
         offset="0%"
         id="stop6" />
      <stop
         stop-color="#F0F0F0"
         offset="100%"
         id="stop8" />
    </linearGradient>
    <linearGradient
       x1="50%"
       y1="0%"
       x2="50%"
       y2="100%"
       id="linearGradient-2">
      <stop
         stop-color="#E31F37"
         offset="0%"
         id="stop11" />
      <stop
         stop-color="#CC162C"
         offset="100%"
         id="stop13" />
    </linearGradient>
    <linearGradient
       x1="50%"
       y1="0%"
       x2="50%"
       y2="100%"
       id="linearGradient-3">
      <stop
         stop-color="#083B9A"
         offset="0%"
         id="stop16" />
      <stop
         stop-color="#042E7D"
         offset="100%"
         id="stop18" />
    </linearGradient>
    <linearGradient
       x1="50%"
       y1="0%"
       x2="50%"
       y2="100%"
       id="linearGradient6617">
      <stop
         stop-color="#ffffff"
         offset="0%"
         id="stop48" />
      <stop
         stop-color="#f0f0f0"
         offset="100%"
         id="stop50" />
    </linearGradient>
    <linearGradient
       x1="50%"
       y1="0%"
       x2="50%"
       y2="100%"
       id="linearGradient1048">
      <stop
         stop-color="#5c5c5c"
         offset="0%"
         id="stop53" />
      <stop
         stop-color="#4f4f4f"
         offset="100%"
         id="stop55" />
    </linearGradient>
    <linearGradient
       x1="50%"
       y1="0%"
       x2="50%"
       y2="100%"
       id="linearGradient6867">
      <stop
         stop-color="#373737"
         offset="0%"
         id="stop58" />
      <stop
         stop-color="#2a2a2a"
         offset="100%"
         id="stop60" />
    </linearGradient>
  </defs>
  <g
     id="Symbols"
     stroke="none"
     stroke-width="1"
     fill="none"
     fill-rule="evenodd">
    <g
       id="WS">
      <rect
         id="FlagBackground"
         fill="url(#linearGradient6617)"
         x="0"
         y="0"
         width="21"
         height="15" />
      <rect
         id="Mask-Copy"
         fill="url(#linearGradient1048)"
         x="0"
         y="0"
         width="21"
         height="15" />
      <polygon
         id="Rectangle-2"
         fill="url(#linearGradient6867)"
         points="0 8 11 8 11 0 0 0" />
      <path
         d="M5,7 L4.29289322,7.20710678 L4.5,6.5 L4.29289322,5.79289322 L5,6 L5.70710678,5.79289322 L5.5,6.5 L5.70710678,7.20710678 L5,7 Z M5,2 L4.29289322,2.20710678 L4.5,1.5 L4.29289322,0.792893219 L5,1 L5.70710678,0.792893219 L5.5,1.5 L5.70710678,2.20710678 L5,2 Z M3,4.5 L2.29289322,4.70710678 L2.5,4 L2.29289322,3.29289322 L3,3.5 L3.70710678,3.29289322 L3.5,4 L3.70710678,4.70710678 L3,4.5 Z M7.5,4 L6.79289322,4.20710678 L7,3.5 L6.79289322,2.79289322 L7.5,3 L8.20710678,2.79289322 L8,3.5 L8.20710678,4.20710678 L7.5,4 Z M6.25,5.5 C6.11192881,5.5 6,5.38807119 6,5.25 C6,5.11192881 6.11192881,5 6.25,5 C6.38807119,5 6.5,5.11192881 6.5,5.25 C6.5,5.38807119 6.38807119,5.5 6.25,5.5 Z"
         id="Star-2"
         fill="url(#linearGradient6617)" />
    </g>
  </g>
</svg>
